  0
SECTION
  2
HEADER
  9
$ACADVER
  1
AC1024
  9
$ACADMAINTVER
 70
6
  9
$DWGCODEPAGE
  3
ANSI_1252
  9
$LASTSAVEDBY
  1
ezdxf
  9
$INSBASE
 10
0.0
 20
0.0
 30
0.0
  9
$EXTMIN
 10
1e+20
 20
1e+20
 30
1e+20
  9
$EXTMAX
 10
-1e+20
 20
-1e+20
 30
-1e+20
  9
$LIMMIN
 10
0.0
 20
0.0
  9
$LIMMAX
 10
420.0
 20
297.0
  9
$ORTHOMODE
 70
0
  9
$REGENMODE
 70
1
  9
$FILLMODE
 70
1
  9
$QTEXTMODE
 70
0
  9
$MIRRTEXT
 70
1
  9
$LTSCALE
 40
1.0
  9
$ATTMODE
 70
1
  9
$TEXTSIZE
 40
2.5
  9
$TRACEWID
 40
1.0
  9
$TEXTSTYLE
  7
Standard
  9
$CLAYER
  8
0
  9
$CELTYPE
  6
ByLayer
  9
$CECOLOR
 62
256
  9
$CELTSCALE
 40
1.0
  9
$DISPSILH
 70
0
  9
$DIMSCALE
 40
1.0
  9
$DIMASZ
 40
2.5
  9
$DIMEXO
 40
0.625
  9
$DIMDLI
 40
3.75
  9
$DIMRND
 40
0.0
  9
$DIMDLE
 40
0.0
  9
$DIMEXE
 40
1.25
  9
$DIMTP
 40
0.0
  9
$DIMTM
 40
0.0
  9
$DIMTXT
 40
2.5
  9
$DIMCEN
 40
2.5
  9
$DIMTSZ
 40
0.0
  9
$DIMTOL
 70
0
  9
$DIMLIM
 70
0
  9
$DIMTIH
 70
0
  9
$DIMTOH
 70
0
  9
$DIMSE1
 70
0
  9
$DIMSE2
 70
0
  9
$DIMTAD
 70
1
  9
$DIMZIN
 70
8
  9
$DIMBLK
  1

  9
$DIMASO
 70
1
  9
$DIMSHO
 70
1
  9
$DIMPOST
  1

  9
$DIMAPOST
  1

  9
$DIMALT
 70
0
  9
$DIMALTD
 70
3
  9
$DIMALTF
 40
0.03937007874
  9
$DIMLFAC
 40
1.0
  9
$DIMTOFL
 70
1
  9
$DIMTVP
 40
0.0
  9
$DIMTIX
 70
0
  9
$DIMSOXD
 70
0
  9
$DIMSAH
 70
0
  9
$DIMBLK1
  1

  9
$DIMBLK2
  1

  9
$DIMSTYLE
  2
ISO-25
  9
$DIMCLRD
 70
0
  9
$DIMCLRE
 70
0
  9
$DIMCLRT
 70
0
  9
$DIMTFAC
 40
1.0
  9
$DIMGAP
 40
0.625
  9
$DIMJUST
 70
0
  9
$DIMSD1
 70
0
  9
$DIMSD2
 70
0
  9
$DIMTOLJ
 70
0
  9
$DIMTZIN
 70
8
  9
$DIMALTZ
 70
0
  9
$DIMALTTZ
 70
0
  9
$DIMUPT
 70
0
  9
$DIMDEC
 70
2
  9
$DIMTDEC
 70
2
  9
$DIMALTU
 70
2
  9
$DIMALTTD
 70
3
  9
$DIMTXSTY
  7
Standard
  9
$DIMAUNIT
 70
0
  9
$DIMADEC
 70
0
  9
$DIMALTRND
 40
0.0
  9
$DIMAZIN
 70
0
  9
$DIMDSEP
 70
44
  9
$DIMATFIT
 70
3
  9
$DIMFRAC
 70
0
  9
$DIMLDRBLK
  1

  9
$DIMLUNIT
 70
2
  9
$DIMLWD
 70
-2
  9
$DIMLWE
 70
-2
  9
$DIMTMOVE
 70
0
  9
$DIMFXL
 40
1.0
  9
$DIMFXLON
 70
0
  9
$DIMJOGANG
 40
0.785398163397
  9
$DIMTFILL
 70
0
  9
$DIMTFILLCLR
 70
0
  9
$DIMARCSYM
 70
0
  9
$DIMLTYPE
  6

  9
$DIMLTEX1
  6

  9
$DIMLTEX2
  6

  9
$DIMTXTDIRECTION
 70
0
  9
$LUNITS
 70
2
  9
$LUPREC
 70
4
  9
$SKETCHINC
 40
1.0
  9
$FILLETRAD
 40
10.0
  9
$AUNITS
 70
0
  9
$AUPREC
 70
2
  9
$MENU
  1
.
  9
$ELEVATION
 40
0.0
  9
$PELEVATION
 40
0.0
  9
$THICKNESS
 40
0.0
  9
$LIMCHECK
 70
0
  9
$CHAMFERA
 40
0.0
  9
$CHAMFERB
 40
0.0
  9
$CHAMFERC
 40
0.0
  9
$CHAMFERD
 40
0.0
  9
$SKPOLY
 70
0
  9
$TDCREATE
 40
2461158.811516204
  9
$TDUCREATE
 40
2458532.153996898
  9
$TDUPDATE
 40
2461158.811516204
  9
$TDUUPDATE
 40
2458532.1544311
  9
$TDINDWG
 40
0.0
  9
$TDUSRTIMER
 40
0.0
  9
$USRTIMER
 70
1
  9
$ANGBASE
 50
0.0
  9
$ANGDIR
 70
0
  9
$PDMODE
 70
0
  9
$PDSIZE
 40
0.0
  9
$PLINEWID
 40
0.0
  9
$SPLFRAME
 70
0
  9
$SPLINETYPE
 70
6
  9
$SPLINESEGS
 70
8
  9
$HANDSEED
  5
41A
  9
$SURFTAB1
 70
6
  9
$SURFTAB2
 70
6
  9
$SURFTYPE
 70
6
  9
$SURFU
 70
6
  9
$SURFV
 70
6
  9
$UCSBASE
  2

  9
$UCSNAME
  2

  9
$UCSORG
 10
0.0
 20
0.0
 30
0.0
  9
$UCSXDIR
 10
1.0
 20
0.0
 30
0.0
  9
$UCSYDIR
 10
0.0
 20
1.0
 30
0.0
  9
$UCSORTHOREF
  2

  9
$UCSORTHOVIEW
 70
0
  9
$UCSORGTOP
 10
0.0
 20
0.0
 30
0.0
  9
$UCSORGBOTTOM
 10
0.0
 20
0.0
 30
0.0
  9
$UCSORGLEFT
 10
0.0
 20
0.0
 30
0.0
  9
$UCSORGRIGHT
 10
0.0
 20
0.0
 30
0.0
  9
$UCSORGFRONT
 10
0.0
 20
0.0
 30
0.0
  9
$UCSORGBACK
 10
0.0
 20
0.0
 30
0.0
  9
$PUCSBASE
  2

  9
$PUCSNAME
  2

  9
$PUCSORG
 10
0.0
 20
0.0
 30
0.0
  9
$PUCSXDIR
 10
1.0
 20
0.0
 30
0.0
  9
$PUCSYDIR
 10
0.0
 20
1.0
 30
0.0
  9
$PUCSORTHOREF
  2

  9
$PUCSORTHOVIEW
 70
0
  9
$PUCSORGTOP
 10
0.0
 20
0.0
 30
0.0
  9
$PUCSORGBOTTOM
 10
0.0
 20
0.0
 30
0.0
  9
$PUCSORGLEFT
 10
0.0
 20
0.0
 30
0.0
  9
$PUCSORGRIGHT
 10
0.0
 20
0.0
 30
0.0
  9
$PUCSORGFRONT
 10
0.0
 20
0.0
 30
0.0
  9
$PUCSORGBACK
 10
0.0
 20
0.0
 30
0.0
  9
$USERI1
 70
0
  9
$USERI2
 70
0
  9
$USERI3
 70
0
  9
$USERI4
 70
0
  9
$USERI5
 70
0
  9
$USERR1
 40
0.0
  9
$USERR2
 40
0.0
  9
$USERR3
 40
0.0
  9
$USERR4
 40
0.0
  9
$USERR5
 40
0.0
  9
$WORLDVIEW
 70
1
  9
$SHADEDGE
 70
3
  9
$SHADEDIF
 70
70
  9
$TILEMODE
 70
1
  9
$MAXACTVP
 70
64
  9
$PINSBASE
 10
0.0
 20
0.0
 30
0.0
  9
$PLIMCHECK
 70
0
  9
$PEXTMIN
 10
1e+20
 20
1e+20
 30
1e+20
  9
$PEXTMAX
 10
-1e+20
 20
-1e+20
 30
-1e+20
  9
$PLIMMIN
 10
0.0
 20
0.0
  9
$PLIMMAX
 10
420.0
 20
297.0
  9
$UNITMODE
 70
0
  9
$VISRETAIN
 70
1
  9
$PLINEGEN
 70
0
  9
$PSLTSCALE
 70
1
  9
$TREEDEPTH
 70
3020
  9
$CMLSTYLE
  2
Standard
  9
$CMLJUST
 70
0
  9
$CMLSCALE
 40
20.0
  9
$PROXYGRAPHICS
 70
1
  9
$MEASUREMENT
 70
1
  9
$CELWEIGHT
370
-1
  9
$ENDCAPS
280
0
  9
$JOINSTYLE
280
0
  9
$LWDISPLAY
290
0
  9
$INSUNITS
 70
6
  9
$HYPERLINKBASE
  1

  9
$STYLESHEET
  1

  9
$XEDIT
290
1
  9
$CEPSNTYPE
380
0
  9
$PSTYLEMODE
290
1
  9
$FINGERPRINTGUID
  2
{4C8EFF25-FD84-40B1-935C-342AABB174D9}
  9
$VERSIONGUID
  2
{4EB322FA-4D64-4517-93CD-08036D747570}
  9
$EXTNAMES
290
1
  9
$PSVPSCALE
 40
0.0
  9
$OLESTARTUP
290
0
  9
$SORTENTS
280
127
  9
$INDEXCTL
280
0
  9
$HIDETEXT
280
1
  9
$XCLIPFRAME
280
1
  9
$HALOGAP
280
0
  9
$OBSCOLOR
 70
257
  9
$OBSLTYPE
280
0
  9
$INTERSECTIONDISPLAY
280
0
  9
$INTERSECTIONCOLOR
 70
257
  9
$DIMASSOC
280
2
  9
$PROJECTNAME
  1

  9
$CAMERADISPLAY
290
0
  9
$LENSLENGTH
 40
50.0
  9
$CAMERAHEIGHT
 40
0.0
  9
$STEPSPERSEC
 40
24.0
  9
$STEPSIZE
 40
100.0
  9
$3DDWFPREC
 40
2.0
  9
$PSOLWIDTH
 40
0.005
  9
$PSOLHEIGHT
 40
0.08
  9
$LOFTANG1
 40
1.570796326795
  9
$LOFTANG2
 40
1.570796326795
  9
$LOFTMAG1
 40
0.0
  9
$LOFTMAG2
 40
0.0
  9
$LOFTPARAM
 70
7
  9
$LOFTNORMALS
280
1
  9
$LATITUDE
 40
37.795
  9
$LONGITUDE
 40
-122.394
  9
$NORTHDIRECTION
 40
0.0
  9
$TIMEZONE
 70
-8000
  9
$LIGHTGLYPHDISPLAY
280
1
  9
$TILEMODELIGHTSYNCH
280
1
  9
$CMATERIAL
347
20
  9
$SOLIDHIST
280
0
  9
$SHOWHIST
280
1
  9
$DWFFRAME
280
2
  9
$DGNFRAME
280
2
  9
$REALWORLDSCALE
290
1
  9
$INTERFERECOLOR
 62
256
  9
$CSHADOW
280
0
  9
$SHADOWPLANELOCATION
 40
0.0
  0
ENDSEC
  0
SECTION
  2
CLASSES
  0
CLASS
  1
ACDBDICTIONARYWDFLT
  2
AcDbDictionaryWithDefault
  3
ObjectDBX Classes
 90
0
 91
0
280
0
281
0
  0
CLASS
  1
SUN
  2
AcDbSun
  3
SCENEOE
 90
1153
 91
0
280
0
281
0
  0
CLASS
  1
VISUALSTYLE
  2
AcDbVisualStyle
  3
ObjectDBX Classes
 90
4095
 91
0
280
0
281
0
  0
CLASS
  1
MATERIAL
  2
AcDbMaterial
  3
ObjectDBX Classes
 90
1153
 91
0
280
0
281
0
  0
CLASS
  1
SCALE
  2
AcDbScale
  3
ObjectDBX Classes
 90
1153
 91
0
280
0
281
0
  0
CLASS
  1
TABLESTYLE
  2
AcDbTableStyle
  3
ObjectDBX Classes
 90
4095
 91
0
280
0
281
0
  0
CLASS
  1
MLEADERSTYLE
  2
AcDbMLeaderStyle
  3
ACDB_MLEADERSTYLE_CLASS
 90
4095
 91
0
280
0
281
0
  0
CLASS
  1
DICTIONARYVAR
  2
AcDbDictionaryVar
  3
ObjectDBX Classes
 90
0
 91
0
280
0
281
0
  0
CLASS
  1
CELLSTYLEMAP
  2
AcDbCellStyleMap
  3
ObjectDBX Classes
 90
1152
 91
0
280
0
281
0
  0
CLASS
  1
MENTALRAYRENDERSETTINGS
  2
AcDbMentalRayRenderSettings
  3
SCENEOE
 90
1024
 91
0
280
0
281
0
  0
CLASS
  1
ACDBDETAILVIEWSTYLE
  2
AcDbDetailViewStyle
  3
ObjectDBX Classes
 90
1025
 91
0
280
0
281
0
  0
CLASS
  1
ACDBSECTIONVIEWSTYLE
  2
AcDbSectionViewStyle
  3
ObjectDBX Classes
 90
1025
 91
0
280
0
281
0
  0
CLASS
  1
RASTERVARIABLES
  2
AcDbRasterVariables
  3
ISM
 90
0
 91
0
280
0
281
0
  0
CLASS
  1
LAYOUT
  2
AcDbLayout
  3
ObjectDBX Classes
 90
0
 91
0
280
0
281
0
  0
CLASS
  1
ACDBPLACEHOLDER
  2
AcDbPlaceHolder
  3
ObjectDBX Classes
 90
0
 91
0
280
0
281
0
  0
ENDSEC
  0
SECTION
  2
TABLES
  0
TABLE
  2
VPORT
  5
8
330
0
100
AcDbSymbolTable
 70
1
  0
VPORT
  5
23
330
8
100
AcDbSymbolTableRecord
100
AcDbViewportTableRecord
  2
*Active
 70
0
 10
0.0
 20
0.0
 11
1.0
 21
1.0
 12
0.0
 22
0.0
 13
0.0
 23
0.0
 14
0.5
 24
0.5
 15
0.5
 25
0.5
 16
0.0
 26
0.0
 36
1.0
 17
0.0
 27
0.0
 37
0.0
 40
1000.0
 41
1.34
 42
50.0
 43
0.0
 44
0.0
 50
0.0
 51
0.0
 71
0
 72
1000
 73
1
 74
3
 75
0
 76
0
 77
0
 78
0
281
0
 65
0
146
0.0
  0
ENDTAB
  0
TABLE
  2
LTYPE
  5
2
330
0
100
AcDbSymbolTable
 70
3
  0
LTYPE
  5
24
330
2
100
AcDbSymbolTableRecord
100
AcDbLinetypeTableRecord
  2
ByBlock
 70
0
  3

 72
65
 73
0
 40
0.0
  0
LTYPE
  5
25
330
2
100
AcDbSymbolTableRecord
100
AcDbLinetypeTableRecord
  2
ByLayer
 70
0
  3

 72
65
 73
0
 40
0.0
  0
LTYPE
  5
26
330
2
100
AcDbSymbolTableRecord
100
AcDbLinetypeTableRecord
  2
Continuous
 70
0
  3

 72
65
 73
0
 40
0.0
  0
ENDTAB
  0
TABLE
  2
LAYER
  5
1
330
0
100
AcDbSymbolTable
 70
2
  0
LAYER
  5
27
330
1
100
AcDbSymbolTableRecord
100
AcDbLayerTableRecord
  2
0
 70
0
 62
7
  6
Continuous
370
-3
390
13
347
21
  0
LAYER
  5
28
330
1
100
AcDbSymbolTableRecord
100
AcDbLayerTableRecord
  2
Defpoints
 70
0
 62
7
  6
Continuous
290
0
370
-3
390
13
347
21
  0
ENDTAB
  0
TABLE
  2
STYLE
  5
5
330
0
100
AcDbSymbolTable
 70
1
  0
STYLE
  5
29
330
5
100
AcDbSymbolTableRecord
100
AcDbTextStyleTableRecord
  2
Standard
 70
0
 40
0.0
 41
1.0
 50
0.0
 71
0
 42
2.5
  3
txt
  4

  0
ENDTAB
  0
TABLE
  2
VIEW
  5
7
330
0
100
AcDbSymbolTable
 70
0
  0
ENDTAB
  0
TABLE
  2
UCS
  5
6
330
0
100
AcDbSymbolTable
 70
0
  0
ENDTAB
  0
TABLE
  2
APPID
  5
3
330
0
100
AcDbSymbolTable
 70
3
  0
APPID
  5
2A
330
3
100
AcDbSymbolTableRecord
100
AcDbRegAppTableRecord
  2
ACAD
 70
0
  0
APPID
  5
417
330
3
100
AcDbSymbolTableRecord
100
AcDbRegAppTableRecord
  2
HATCHBACKGROUNDCOLOR
 70
0
  0
APPID
  5
418
330
3
100
AcDbSymbolTableRecord
100
AcDbRegAppTableRecord
  2
EZDXF
 70
0
  0
ENDTAB
  0
TABLE
  2
DIMSTYLE
  5
4
330
0
100
AcDbSymbolTable
 70
1
100
AcDbDimStyleTable
  0
DIMSTYLE
105
2B
330
4
100
AcDbSymbolTableRecord
100
AcDbDimStyleTableRecord
  2
Standard
 70
0
 40
1.0
 41
2.5
 42
0.625
 43
3.75
 44
1.25
 45
0.0
 46
0.0
 47
0.0
 48
0.0
 49
2.5
140
2.5
141
2.5
142
0.0
143
0.03937007874
144
1.0
145
0.0
146
1.0
147
0.625
148
0.0
 69
0
 70
0
 71
0
 72
0
 73
0
 74
0
 75
0
 76
0
 77
1
 78
8
 79
3
170
0
171
3
172
1
173
0
174
0
175
0
176
0
177
0
178
0
179
2
271
2
272
2
273
2
274
3
275
0
276
0
277
2
278
44
279
0
280
0
281
0
282
0
283
0
284
8
285
0
286
0
288
0
289
3
290
0
371
-2
372
-2
  0
ENDTAB
  0
TABLE
  2
BLOCK_RECORD
  5
9
330
0
100
AcDbSymbolTable
 70
2
  0
BLOCK_RECORD
  5
17
330
9
100
AcDbSymbolTableRecord
100
AcDbBlockTableRecord
  2
*Model_Space
340
1A
 70
0
280
1
281
0
  0
BLOCK_RECORD
  5
1B
330
9
100
AcDbSymbolTableRecord
100
AcDbBlockTableRecord
  2
*Paper_Space
340
1E
 70
0
280
1
281
0
  0
ENDTAB
  0
ENDSEC
  0
SECTION
  2
BLOCKS
  0
BLOCK
  5
18
330
17
100
AcDbEntity
  8
0
100
AcDbBlockBegin
  2
*Model_Space
 70
0
 10
0.0
 20
0.0
 30
0.0
  3
*Model_Space
  1

  0
ENDBLK
  5
19
330
17
100
AcDbEntity
  8
0
100
AcDbBlockEnd
  0
BLOCK
  5
1C
330
1B
100
AcDbEntity
  8
0
100
AcDbBlockBegin
  2
*Paper_Space
 70
0
 10
0.0
 20
0.0
 30
0.0
  3
*Paper_Space
  1

  0
ENDBLK
  5
1D
330
1B
100
AcDbEntity
  8
0
100
AcDbBlockEnd
  0
ENDSEC
  0
SECTION
  2
ENTITIES
  0
POINT
  5
2F
330
17
100
AcDbEntity
  8
0
100
AcDbPoint
 10
6.407224991978946
 20
8.400652504341465
 30
3.987226292690127
  0
POINT
  5
30
330
17
100
AcDbEntity
  8
0
100
AcDbPoint
 10
2.1165440543525804
 20
6.885210064309403
 30
9.37156059471893
  0
POINT
  5
31
330
17
100
AcDbEntity
  8
0
100
AcDbPoint
 10
3.642518927128018
 20
9.469223637970451
 30
5.401876687086258
  0
POINT
  5
32
330
17
100
AcDbEntity
  8
0
100
AcDbPoint
 10
4.522191804586963
 20
5.709757898474901
 30
0.8370541019509736
  0
POINT
  5
33
330
17
100
AcDbEntity
  8
0
100
AcDbPoint
 10
3.159007361990116
 20
4.811274242928366
 30
5.288905640896862
  0
POINT
  5
34
330
17
100
AcDbEntity
  8
0
100
AcDbPoint
 10
8.185361318161203
 20
6.174204669928322
 30
9.416999413088993
  0
POINT
  5
35
330
17
100
AcDbEntity
  8
0
100
AcDbPoint
 10
5.974766740528567
 20
0.9646362546094356
 30
1.0285116317589493
  0
POINT
  5
36
330
17
100
AcDbEntity
  8
0
100
AcDbPoint
 10
9.578254755336404
 20
8.795671196416743
 30
1.5317589359090822
  0
POINT
  5
37
330
17
100
AcDbEntity
  8
0
100
AcDbPoint
 10
4.260620992528194
 20
5.8755196781339025
 30
4.3968042302683
  0
POINT
  5
38
330
17
100
AcDbEntity
  8
0
100
AcDbPoint
 10
4.089950682471394
 20
5.671977361355545
 30
5.809626266750194
  0
POINT
  5
39
330
17
100
AcDbEntity
  8
0
100
AcDbPoint
 10
3.440251891375974
 20
4.1502362252041545
 30
5.216096041549088
  0
POINT
  5
3A
330
17
100
AcDbEntity
  8
0
100
AcDbPoint
 10
5.8875895659395425
 20
3.0796415984862016
 30
7.770014727655694
  0
POINT
  5
3B
330
17
100
AcDbEntity
  8
0
100
AcDbPoint
 10
2.6093342478150827
 20
0.7752835847294892
 30
0.5455538747488076
  0
POINT
  5
3C
330
17
100
AcDbEntity
  8
0
100
AcDbPoint
 10
6.83077307533063
 20
5.885521953449984
 30
5.074761646152432
  0
POINT
  5
3D
330
17
100
AcDbEntity
  8
0
100
AcDbPoint
 10
2.9340482715014993
 20
4.595176867081843
 30
6.12088986315304
  0
POINT
  5
3E
330
17
100
AcDbEntity
  8
0
100
AcDbPoint
 10
1.1129213256387926
 20
9.160366716218073
 30
8.863087942590486
  0
POINT
  5
3F
330
17
100
AcDbEntity
  8
0
100
AcDbPoint
 10
7.243376386772321
 20
1.8738082911952059
 30
2.595269208674628
  0
POINT
  5
40
330
17
100
AcDbEntity
  8
0
100
AcDbPoint
 10
4.299061947057073
 20
0.9611284641778162
 30
5.355321963740747
  0
POINT
  5
41
330
17
100
AcDbEntity
  8
0
100
AcDbPoint
 10
9.073814748285148
 20
5.4921674855699445
 30
6.566535953957644
  0
POINT
  5
42
330
17
100
AcDbEntity
  8
0
100
AcDbPoint
 10
0.08306179591735963
 20
1.6356171797602204
 30
2.378970990582041
  0
POINT
  5
43
330
17
100
AcDbEntity
  8
0
100
AcDbPoint
 10
8.77733542467778
 20
6.91594503417437
 30
2.2589829008758775
  0
POINT
  5
44
330
17
100
AcDbEntity
  8
0
100
AcDbPoint
 10
8.792636790523684
 20
4.398855111515136
 30
1.5871256263906397
  0
POINT
  5
45
330
17
100
AcDbEntity
  8
0
100
AcDbPoint
 10
0.3848309583339038
 20
2.1846725257099306
 30
0.13084912491912126
  0
POINT
  5
46
330
17
100
AcDbEntity
  8
0
100
AcDbPoint
 10
6.235025370586296
 20
1.1932323510990583
 30
3.3572796718658138
  0
POINT
  5
47
330
17
100
AcDbEntity
  8
0
100
AcDbPoint
 10
2.824107057176856
 20
9.295473669086231
 30
9.67813029235139
  0
POINT
  5
48
330
17
100
AcDbEntity
  8
0
100
AcDbPoint
 10
8.555828015023488
 20
0.7343752003919213
 30
9.360716423913551
  0
POINT
  5
49
330
17
100
AcDbEntity
  8
0
100
AcDbPoint
 10
0.267821317550494
 20
7.681448021010211
 30
8.730282090439713
  0
POINT
  5
4A
330
17
100
AcDbEntity
  8
0
100
AcDbPoint
 10
0.4477047255471367
 20
5.579621721184935
 30
8.388782434072617
  0
POINT
  5
4B
330
17
100
AcDbEntity
  8
0
100
AcDbPoint
 10
0.06539354033256672
 20
5.188409803167312
 30
6.985185764483042
  0
POINT
  5
4C
330
17
100
AcDbEntity
  8
0
100
AcDbPoint
 10
4.647409290794309
 20
9.560456925138233
 30
7.911995234745474
  0
POINT
  5
4D
330
17
100
AcDbEntity
  8
0
100
AcDbPoint
 10
5.062032817042638
 20
6.395749017450891
 30
1.3755982460459548
  0
POINT
  5
4E
330
17
100
AcDbEntity
  8
0
100
AcDbPoint
 10
5.6640310193663925
 20
3.275535484872397
 30
2.882814675382761
  0
POINT
  5
4F
330
17
100
AcDbEntity
  8
0
100
AcDbPoint
 10
4.4776841465776
 20
9.70099831507129
 30
6.022166473269896
  0
POINT
  5
50
330
17
100
AcDbEntity
  8
0
100
AcDbPoint
 10
5.590681557512037
 20
0.6689415341546567
 30
4.0779169737051335
  0
POINT
  5
51
330
17
100
AcDbEntity
  8
0
100
AcDbPoint
 10
5.343597028829849
 20
5.537154476572958
 30
1.0011127836708533
  0
POINT
  5
52
330
17
100
AcDbEntity
  8
0
100
AcDbPoint
 10
4.038718539961225
 20
0.9848429276080062
 30
2.330163129864835
  0
POINT
  5
53
330
17
100
AcDbEntity
  8
0
100
AcDbPoint
 10
8.026131144572014
 20
1.1545367229814285
 30
6.763426916229714
  0
POINT
  5
54
330
17
100
AcDbEntity
  8
0
100
AcDbPoint
 10
3.213517360625917
 20
4.987707877341553
 30
8.841978021049382
  0
POINT
  5
55
330
17
100
AcDbEntity
  8
0
100
AcDbPoint
 10
1.9159893441526366
 20
8.024661198627738
 30
0.19497585037028142
  0
POINT
  5
56
330
17
100
AcDbEntity
  8
0
100
AcDbPoint
 10
4.7828322252719655
 20
0.43225464759574783
 30
9.259629628569435
  0
POINT
  5
57
330
17
100
AcDbEntity
  8
0
100
AcDbPoint
 10
4.717984375234532
 20
4.284067256159182
 30
5.193525720971658
  0
POINT
  5
58
330
17
100
AcDbEntity
  8
0
100
AcDbPoint
 10
8.171181783750349
 20
1.7333170759190508
 30
0.8583605294882601
  0
POINT
  5
59
330
17
100
AcDbEntity
  8
0
100
AcDbPoint
 10
3.7537495664677123
 20
4.2592892379715135
 30
4.9575694289953685
  0
POINT
  5
5A
330
17
100
AcDbEntity
  8
0
100
AcDbPoint
 10
2.581943225651462
 20
4.454560585795944
 30
2.806849337906142
  0
POINT
  5
5B
330
17
100
AcDbEntity
  8
0
100
AcDbPoint
 10
0.3046317345959304
 20
3.5112313056711897
 30
3.6914235015197305
  0
POINT
  5
5C
330
17
100
AcDbEntity
  8
0
100
AcDbPoint
 10
0.5036264196287976
 20
0.35554350350556874
 30
5.9399121759662945
  0
POINT
  5
5D
330
17
100
AcDbEntity
  8
0
100
AcDbPoint
 10
0.4257785751143872
 20
4.781514645545576
 30
7.353814962508246
  0
POINT
  5
5E
330
17
100
AcDbEntity
  8
0
100
AcDbPoint
 10
9.682631944908348
 20
0.5244139121581926
 30
8.419598754940818
  0
POINT
  5
5F
330
17
100
AcDbEntity
  8
0
100
AcDbPoint
 10
3.7460268462543356
 20
7.542953033440511
 30
2.7527411610228567
  0
POINT
  5
60
330
17
100
AcDbEntity
  8
0
100
AcDbPoint
 10
2.1277148829848436
 20
1.700032443387124
 30
1.9872541299345359
  0
POINT
  5
61
330
17
100
AcDbEntity
  8
0
100
AcDbPoint
 10
1.3008138379069834
 20
9.622075776439141
 30
9.836541263675969
  0
POINT
  5
62
330
17
100
AcDbEntity
  8
0
100
AcDbPoint
 10
2.822413031924127
 20
6.866960632443572
 30
9.27548866319232
  0
POINT
  5
63
330
17
100
AcDbEntity
  8
0
100
AcDbPoint
 10
4.6899218123108675
 20
3.426680034494547
 30
8.050798000243855
  0
POINT
  5
64
330
17
100
AcDbEntity
  8
0
100
AcDbPoint
 10
0.8817919689227338
 20
2.8043699249640976
 30
4.161414547409345
  0
POINT
  5
65
330
17
100
AcDbEntity
  8
0
100
AcDbPoint
 10
3.990280755209157
 20
0.8033059056010994
 30
0.9247544957159948
  0
POINT
  5
66
330
17
100
AcDbEntity
  8
0
100
AcDbPoint
 10
6.544048527672612
 20
8.811674472984306
 30
6.681545384501599
  0
POINT
  5
67
330
17
100
AcDbEntity
  8
0
100
AcDbPoint
 10
3.619597164987487
 20
2.110585769749189
 30
9.908640194429037
  0
POINT
  5
68
330
17
100
AcDbEntity
  8
0
100
AcDbPoint
 10
8.02583833942597
 20
9.04057081570465
 30
6.445218490713547
  0
POINT
  5
69
330
17
100
AcDbEntity
  8
0
100
AcDbPoint
 10
8.386834996727298
 20
2.4472841421382197
 30
3.6499036765761392
  0
POINT
  5
6A
330
17
100
AcDbEntity
  8
0
100
AcDbPoint
 10
4.703261910507016
 20
2.933014189689448
 30
5.0254822410598425
  0
POINT
  5
6B
330
17
100
AcDbEntity
  8
0
100
AcDbPoint
 10
3.9202516256849886
 20
9.716119754970766
 30
3.9138829581157153
  0
POINT
  5
6C
330
17
100
AcDbEntity
  8
0
100
AcDbPoint
 10
7.383416208511557
 20
4.901970625588264
 30
1.6806380823867584
  0
POINT
  5
6D
330
17
100
AcDbEntity
  8
0
100
AcDbPoint
 10
7.14521935505371
 20
2.2796882116499093
 30
6.282700213617414
  0
POINT
  5
6E
330
17
100
AcDbEntity
  8
0
100
AcDbPoint
 10
7.144559927855585
 20
8.708678963054199
 30
3.1556941965639176
  0
POINT
  5
6F
330
17
100
AcDbEntity
  8
0
100
AcDbPoint
 10
5.330639423087798
 20
5.479967047928637
 30
1.0337880517891962
  0
POINT
  5
70
330
17
100
AcDbEntity
  8
0
100
AcDbPoint
 10
2.117276227679763
 20
4.39841815845821
 30
8.127765241467548
  0
POINT
  5
71
330
17
100
AcDbEntity
  8
0
100
AcDbPoint
 10
6.666315223596081
 20
9.231941541015107
 30
7.391965502053791
  0
POINT
  5
72
330
17
100
AcDbEntity
  8
0
100
AcDbPoint
 10
0.7499761611978062
 20
1.2463493399993064
 30
1.406970681998736
  0
POINT
  5
73
330
17
100
AcDbEntity
  8
0
100
AcDbPoint
 10
2.2491583880473174
 20
2.4052877559459604
 30
9.021773290494554
  0
POINT
  5
74
330
17
100
AcDbEntity
  8
0
100
AcDbPoint
 10
5.125768947008346
 20
5.379287954005294
 30
0.9279438573902332
  0
POINT
  5
75
330
17
100
AcDbEntity
  8
0
100
AcDbPoint
 10
3.556601249893804
 20
8.616552369001113
 30
3.10172030349901
  0
POINT
  5
76
330
17
100
AcDbEntity
  8
0
100
AcDbPoint
 10
3.9515985971058996
 20
4.107536946918709
 30
5.42873795614158
  0
POINT
  5
77
330
17
100
AcDbEntity
  8
0
100
AcDbPoint
 10
0.7952380763511091
 20
6.5182665160803
 30
6.049774486701031
  0
POINT
  5
78
330
17
100
AcDbEntity
  8
0
100
AcDbPoint
 10
6.84994195340921
 20
4.826815306571621
 30
3.350928476306363
  0
POINT
  5
79
330
17
100
AcDbEntity
  8
0
100
AcDbPoint
 10
7.789245771692212
 20
4.873758952200243
 30
3.962686610904532
  0
POINT
  5
7A
330
17
100
AcDbEntity
  8
0
100
AcDbPoint
 10
9.749691826803106
 20
2.739541154068479
 30
5.640245088727887
  0
POINT
  5
7B
330
17
100
AcDbEntity
  8
0
100
AcDbPoint
 10
0.6013127981577393
 20
2.1489345924947276
 30
1.436647045446855
  0
POINT
  5
7C
330
17
100
AcDbEntity
  8
0
100
AcDbPoint
 10
1.0673527686625695
 20
3.121628418171274
 30
1.4967504895441908
  0
POINT
  5
7D
330
17
100
AcDbEntity
  8
0
100
AcDbPoint
 10
9.089763717123798
 20
8.668245525520877
 30
1.3085484650076429
  0
POINT
  5
7E
330
17
100
AcDbEntity
  8
0
100
AcDbPoint
 10
2.0549336245627203
 20
7.7324382529938385
 30
2.024549893826463
  0
POINT
  5
7F
330
17
100
AcDbEntity
  8
0
100
AcDbPoint
 10
6.789411738976164
 20
4.207367807674468
 30
3.8544329718568737
  0
POINT
  5
80
330
17
100
AcDbEntity
  8
0
100
AcDbPoint
 10
1.1001044780118263
 20
7.762906587897059
 30
4.136919193626792
  0
POINT
  5
81
330
17
100
AcDbEntity
  8
0
100
AcDbPoint
 10
7.016454395229386
 20
5.162029173461868
 30
0.6877430365460091
  0
POINT
  5
82
330
17
100
AcDbEntity
  8
0
100
AcDbPoint
 10
6.590858257934837
 20
8.808742964803724
 30
9.94054789378277
  0
POINT
  5
83
330
17
100
AcDbEntity
  8
0
100
AcDbPoint
 10
7.799628598427657
 20
2.0496897395484526
 30
6.841815907066629
  0
POINT
  5
84
330
17
100
AcDbEntity
  8
0
100
AcDbPoint
 10
0.607938156965373
 20
3.5310234455586462
 30
8.774436226556848
  0
POINT
  5
85
330
17
100
AcDbEntity
  8
0
100
AcDbPoint
 10
4.925073736488359
 20
5.829212067000261
 30
3.0782388021389515
  0
POINT
  5
86
330
17
100
AcDbEntity
  8
0
100
AcDbPoint
 10
5.1219921367760355
 20
2.4269659519561038
 30
0.6334418202044323
  0
POINT
  5
87
330
17
100
AcDbEntity
  8
0
100
AcDbPoint
 10
4.444175420591666
 20
3.4957910898191047
 30
9.090749892179478
  0
POINT
  5
88
330
17
100
AcDbEntity
  8
0
100
AcDbPoint
 10
1.3986663518792397
 20
7.631245295135326
 30
2.121834933817177
  0
POINT
  5
89
330
17
100
AcDbEntity
  8
0
100
AcDbPoint
 10
5.551266702056161
 20
4.7338703066587176
 30
5.296239261818684
  0
POINT
  5
8A
330
17
100
AcDbEntity
  8
0
100
AcDbPoint
 10
2.6189117562989015
 20
1.2582740867538944
 30
0.9963365231939925
  0
POINT
  5
8B
330
17
100
AcDbEntity
  8
0
100
AcDbPoint
 10
0.9671511615839323
 20
1.6554589567652922
 30
4.7608954395823435
  0
POINT
  5
8C
330
17
100
AcDbEntity
  8
0
100
AcDbPoint
 10
5.2147246644061465
 20
5.4279003941698045
 30
5.8755014110802595
  0
POINT
  5
8D
330
17
100
AcDbEntity
  8
0
100
AcDbPoint
 10
7.304956189598335
 20
4.614340475888085
 30
9.972670898829529
  0
POINT
  5
8E
330
17
100
AcDbEntity
  8
0
100
AcDbPoint
 10
4.834467173570504
 20
3.1125077305551443
 30
6.701110490226005
  0
POINT
  5
8F
330
17
100
AcDbEntity
  8
0
100
AcDbPoint
 10
2.656585798113398
 20
3.349802394024527
 30
4.782093723868439
  0
POINT
  5
90
330
17
100
AcDbEntity
  8
0
100
AcDbPoint
 10
1.0590196547701336
 20
5.876307996672214
 30
6.921040488226117
  0
POINT
  5
91
330
17
100
AcDbEntity
  8
0
100
AcDbPoint
 10
0.9464333526480129
 20
6.082567699930025
 30
2.2939601197881263
  0
POINT
  5
92
330
17
100
AcDbEntity
  8
0
100
AcDbPoint
 10
2.7601679224805853
 20
9.372854249623675
 30
2.1002436421103265
  0
POINT
  5
93
330
17
100
AcDbEntity
  8
0
100
AcDbPoint
 10
2.651786324183101
 20
8.567399782106083
 30
5.471594148925313
  0
POINT
  5
94
330
17
100
AcDbEntity
  8
0
100
AcDbPoint
 10
7.587274934140047
 20
1.9214301579407556
 30
9.875437776364816
  0
POINT
  5
95
330
17
100
AcDbEntity
  8
0
100
AcDbPoint
 10
4.241497679628657
 20
7.4861258932422095
 30
2.108257730094356
  0
POINT
  5
96
330
17
100
AcDbEntity
  8
0
100
AcDbPoint
 10
1.5392730044674763
 20
5.081656847388402
 30
4.365611060278104
  0
POINT
  5
97
330
17
100
AcDbEntity
  8
0
100
AcDbPoint
 10
4.192318528248
 20
1.61698745784016
 30
4.259035070955961
  0
POINT
  5
98
330
17
100
AcDbEntity
  8
0
100
AcDbPoint
 10
2.7931392403888666
 20
9.325617208488586
 30
8.170160943074745
  0
POINT
  5
99
330
17
100
AcDbEntity
  8
0
100
AcDbPoint
 10
7.301275798491699
 20
8.662913869517807
 30
5.842585072370322
  0
POINT
  5
9A
330
17
100
AcDbEntity
  8
0
100
AcDbPoint
 10
0.4139237478548208
 20
9.091270946136934
 30
4.087130004334124
  0
POINT
  5
9B
330
17
100
AcDbEntity
  8
0
100
AcDbPoint
 10
9.159192581508966
 20
7.504762066570493
 30
7.933906679916714
  0
POINT
  5
9C
330
17
100
AcDbEntity
  8
0
100
AcDbPoint
 10
0.7116175893928989
 20
5.76460587529276
 30
4.760059291702431
  0
POINT
  5
9D
330
17
100
AcDbEntity
  8
0
100
AcDbPoint
 10
5.619766441508919
 20
2.689698398045035
 30
3.9501445870345284
  0
POINT
  5
9E
330
17
100
AcDbEntity
  8
0
100
AcDbPoint
 10
8.148376593737867
 20
8.859868896497517
 30
4.413041563604723
  0
POINT
  5
9F
330
17
100
AcDbEntity
  8
0
100
AcDbPoint
 10
1.4775192155979489
 20
5.916207549269207
 30
5.0822246806759654
  0
POINT
  5
A0
330
17
100
AcDbEntity
  8
0
100
AcDbPoint
 10
2.6733936184497997
 20
0.231523959598664
 30
9.680170211026947
  0
POINT
  5
A1
330
17
100
AcDbEntity
  8
0
100
AcDbPoint
 10
8.667398025837828
 20
4.692177946097219
 30
1.30626204956242
  0
POINT
  5
A2
330
17
100
AcDbEntity
  8
0
100
AcDbPoint
 10
1.7252867585337117
 20
9.030971146893458
 30
5.385009832852937
  0
POINT
  5
A3
330
17
100
AcDbEntity
  8
0
100
AcDbPoint
 10
6.141969823230995
 20
3.605495469131319
 30
2.182347591134305
  0
POINT
  5
A4
330
17
100
AcDbEntity
  8
0
100
AcDbPoint
 10
1.6533531961058578
 20
4.577958368551565
 30
5.646946118810478
  0
POINT
  5
A5
330
17
100
AcDbEntity
  8
0
100
AcDbPoint
 10
7.761476055326105
 20
4.955409371650038
 30
6.626208263884193
  0
POINT
  5
A6
330
17
100
AcDbEntity
  8
0
100
AcDbPoint
 10
5.447085952200777
 20
0.6079557246937894
 30
5.001531472557302
  0
POINT
  5
A7
330
17
100
AcDbEntity
  8
0
100
AcDbPoint
 10
5.890634607382388
 20
7.515257559528793
 30
6.196180741419578
  0
POINT
  5
A8
330
17
100
AcDbEntity
  8
0
100
AcDbPoint
 10
8.543876652259751
 20
3.219152810734994
 30
5.126783942295543
  0
POINT
  5
A9
330
17
100
AcDbEntity
  8
0
100
AcDbPoint
 10
8.220398089830493
 20
4.280865531078241
 30
5.586978300791298
  0
POINT
  5
AA
330
17
100
AcDbEntity
  8
0
100
AcDbPoint
 10
5.94539217057053
 20
5.29929762535327
 30
2.7493674240648005
  0
POINT
  5
AB
330
17
100
AcDbEntity
  8
0
100
AcDbPoint
 10
1.2153303749637234
 20
3.5085899838027714
 30
9.777140450867343
  0
POINT
  5
AC
330
17
100
AcDbEntity
  8
0
100
AcDbPoint
 10
8.31311201034458
 20
3.905879072775884
 30
0.6015277067340219
  0
POINT
  5
AD
330
17
100
AcDbEntity
  8
0
100
AcDbPoint
 10
7.378715127818154
 20
3.0964491270003425
 30
2.418254658444922
  0
POINT
  5
AE
330
17
100
AcDbEntity
  8
0
100
AcDbPoint
 10
7.697930778212083
 20
7.579928926498722
 30
6.539328855844145
  0
POINT
  5
AF
330
17
100
AcDbEntity
  8
0
100
AcDbPoint
 10
8.34422171430246
 20
9.93838264450616
 30
3.190346803940395
  0
POINT
  5
B0
330
17
100
AcDbEntity
  8
0
100
AcDbPoint
 10
5.635923400266138
 20
5.7058036151999865
 30
7.0789206566271705
  0
POINT
  5
B1
330
17
100
AcDbEntity
  8
0
100
AcDbPoint
 10
4.927677846491479
 20
0.8281802568558683
 30
2.295715694005364
  0
POINT
  5
B2
330
17
100
AcDbEntity
  8
0
100
AcDbPoint
 10
7.520998872705765
 20
4.469911695649479
 30
9.698093959231752
  0
POINT
  5
B3
330
17
100
AcDbEntity
  8
0
100
AcDbPoint
 10
8.510424680977009
 20
3.642293211700449
 30
6.850567751295032
  0
POINT
  5
B4
330
17
100
AcDbEntity
  8
0
100
AcDbPoint
 10
8.426465995343486
 20
0.010254791692658749
 30
3.2480199837538946
  0
POINT
  5
B5
330
17
100
AcDbEntity
  8
0
100
AcDbPoint
 10
2.5149769583251613
 20
1.018378989889961
 30
8.711519596206545
  0
POINT
  5
B6
330
17
100
AcDbEntity
  8
0
100
AcDbPoint
 10
8.58453936013771
 20
2.184687883541555
 30
7.247615309366392
  0
POINT
  5
B7
330
17
100
AcDbEntity
  8
0
100
AcDbPoint
 10
9.551817110636135
 20
2.041150899546155
 30
8.694416520885845
  0
POINT
  5
B8
330
17
100
AcDbEntity
  8
0
100
AcDbPoint
 10
8.171373439163828
 20
2.70579958432812
 30
9.830158909303115
  0
POINT
  5
B9
330
17
100
AcDbEntity
  8
0
100
AcDbPoint
 10
2.6050091391669126
 20
0.4234666769056994
 30
2.514263168677824
  0
POINT
  5
BA
330
17
100
AcDbEntity
  8
0
100
AcDbPoint
 10
0.31311302067211555
 20
2.2706780758351597
 30
6.457474625210683
  0
POINT
  5
BB
330
17
100
AcDbEntity
  8
0
100
AcDbPoint
 10
1.4567622418370474
 20
7.415184715824864
 30
4.8774699972086575
  0
POINT
  5
BC
330
17
100
AcDbEntity
  8
0
100
AcDbPoint
 10
4.346872123097056
 20
5.70635965466033
 30
4.451226170651027
  0
POINT
  5
BD
330
17
100
AcDbEntity
  8
0
100
AcDbPoint
 10
1.0126978191752267
 20
1.198168774938101
 30
8.488836143806715
  0
POINT
  5
BE
330
17
100
AcDbEntity
  8
0
100
AcDbPoint
 10
7.710028792222556
 20
7.0220097013217
 30
1.5039257176741694
  0
POINT
  5
BF
330
17
100
AcDbEntity
  8
0
100
AcDbPoint
 10
5.6224261618048486
 20
8.122076649147687
 30
8.346492084090043
  0
POINT
  5
C0
330
17
100
AcDbEntity
  8
0
100
AcDbPoint
 10
1.9369269723436178
 20
3.029894899747556
 30
2.7124262829317045
  0
POINT
  5
C1
330
17
100
AcDbEntity
  8
0
100
AcDbPoint
 10
4.272013222243952
 20
1.7824039343878162
 30
6.999563956123314
  0
POINT
  5
C2
330
17
100
AcDbEntity
  8
0
100
AcDbPoint
 10
9.050903130427525
 20
9.705275998377571
 30
3.5055373721232987
  0
POINT
  5
C3
330
17
100
AcDbEntity
  8
0
100
AcDbPoint
 10
5.588906728977943
 20
6.454994838937644
 30
8.409473987033142
  0
POINT
  5
C4
330
17
100
AcDbEntity
  8
0
100
AcDbPoint
 10
5.267743223257312
 20
4.516668970605552
 30
9.503910037650087
  0
POINT
  5
C5
330
17
100
AcDbEntity
  8
0
100
AcDbPoint
 10
5.854350917546097
 20
0.9630330479678917
 30
4.75988320834401
  0
POINT
  5
C6
330
17
100
AcDbEntity
  8
0
100
AcDbPoint
 10
2.007086331520098
 20
6.08052178925481
 30
5.769463273644409
  0
POINT
  5
C7
330
17
100
AcDbEntity
  8
0
100
AcDbPoint
 10
5.16978540533886
 20
0.059720752527234744
 30
9.756940491261972
  0
POINT
  5
C8
330
17
100
AcDbEntity
  8
0
100
AcDbPoint
 10
5.230922653316075
 20
0.004185418767441718
 30
2.352897804837739
  0
POINT
  5
C9
330
17
100
AcDbEntity
  8
0
100
AcDbPoint
 10
8.828518002879008
 20
8.80680225302189
 30
6.388977777704017
  0
POINT
  5
CA
330
17
100
AcDbEntity
  8
0
100
AcDbPoint
 10
4.477180105644816
 20
7.729837556508988
 30
3.156852836927042
  0
POINT
  5
CB
330
17
100
AcDbEntity
  8
0
100
AcDbPoint
 10
8.264451191613201
 20
4.430956929284788
 30
0.9681538512056631
  0
POINT
  5
CC
330
17
100
AcDbEntity
  8
0
100
AcDbPoint
 10
3.5407044581552274
 20
2.362418551396627
 30
0.3116990137662401
  0
POINT
  5
CD
330
17
100
AcDbEntity
  8
0
100
AcDbPoint
 10
6.039438870854753
 20
9.872590071539749
 30
4.143862794265345
  0
POINT
  5
CE
330
17
100
AcDbEntity
  8
0
100
AcDbPoint
 10
4.463752489414254
 20
0.9248893016404047
 30
2.5730819962236238
  0
POINT
  5
CF
330
17
100
AcDbEntity
  8
0
100
AcDbPoint
 10
6.665290187465009
 20
4.490148291220596
 30
3.765480515015982
  0
POINT
  5
D0
330
17
100
AcDbEntity
  8
0
100
AcDbPoint
 10
6.126215876743303
 20
4.042245057354891
 30
9.255302691925237
  0
POINT
  5
D1
330
17
100
AcDbEntity
  8
0
100
AcDbPoint
 10
5.953141738165976
 20
2.8189920758168343
 30
8.917930652657462
  0
POINT
  5
D2
330
17
100
AcDbEntity
  8
0
100
AcDbPoint
 10
9.710859179889248
 20
3.565661347886776
 30
8.72569479298847
  0
POINT
  5
D3
330
17
100
AcDbEntity
  8
0
100
AcDbPoint
 10
9.278368576514938
 20
8.063826623268021
 30
2.489137852485025
  0
POINT
  5
D4
330
17
100
AcDbEntity
  8
0
100
AcDbPoint
 10
0.9095542311281901
 20
7.184485753935003
 30
9.510216702113151
  0
POINT
  5
D5
330
17
100
AcDbEntity
  8
0
100
AcDbPoint
 10
7.15594179447415
 20
3.266826351143578
 30
8.150295879841494
  0
POINT
  5
D6
330
17
100
AcDbEntity
  8
0
100
AcDbPoint
 10
5.349942668903635
 20
7.875214073090734
 30
3.137396547787612
  0
POINT
  5
D7
330
17
100
AcDbEntity
  8
0
100
AcDbPoint
 10
4.605657238975586
 20
0.5057166036560445
 30
4.581695215892988
  0
POINT
  5
D8
330
17
100
AcDbEntity
  8
0
100
AcDbPoint
 10
0.5147314472381437
 20
2.1430438609490388
 30
1.186580518099557
  0
POINT
  5
D9
330
17
100
AcDbEntity
  8
0
100
AcDbPoint
 10
9.786020049849874
 20
6.719945125802993
 30
0.5799561648351115
  0
POINT
  5
DA
330
17
100
AcDbEntity
  8
0
100
AcDbPoint
 10
4.924963509187258
 20
4.9605687172247475
 30
1.794325309710344
  0
POINT
  5
DB
330
17
100
AcDbEntity
  8
0
100
AcDbPoint
 10
7.0409885703070865
 20
0.5302745279759968
 30
9.393029001486132
  0
POINT
  5
DC
330
17
100
AcDbEntity
  8
0
100
AcDbPoint
 10
1.2032765934271006
 20
6.291969910035588
 30
6.269742430578631
  0
POINT
  5
DD
330
17
100
AcDbEntity
  8
0
100
AcDbPoint
 10
5.652307954832217
 20
7.0993471763562574
 30
6.180564534192734
  0
POINT
  5
DE
330
17
100
AcDbEntity
  8
0
100
AcDbPoint
 10
1.3819231760937578
 20
3.0062143333552904
 30
2.1114880004446612
  0
POINT
  5
DF
330
17
100
AcDbEntity
  8
0
100
AcDbPoint
 10
7.227811917875131
 20
9.06659904827947
 30
2.8441633388366805
  0
POINT
  5
E0
330
17
100
AcDbEntity
  8
0
100
AcDbPoint
 10
2.10150680740011
 20
8.061823891577141
 30
7.958746467806938
  0
POINT
  5
E1
330
17
100
AcDbEntity
  8
0
100
AcDbPoint
 10
3.725751650902378
 20
3.8907667244806388
 30
6.975233218579086
  0
POINT
  5
E2
330
17
100
AcDbEntity
  8
0
100
AcDbPoint
 10
8.536270296394658
 20
3.8669930096342275
 30
7.528433933142267
  0
POINT
  5
E3
330
17
100
AcDbEntity
  8
0
100
AcDbPoint
 10
0.10949105712695806
 20
2.929210349268403
 30
2.242275226042516
  0
POINT
  5
E4
330
17
100
AcDbEntity
  8
0
100
AcDbPoint
 10
9.474116523907055
 20
6.07387168449007
 30
6.174252023325403
  0
POINT
  5
E5
330
17
100
AcDbEntity
  8
0
100
AcDbPoint
 10
1.290893687233532
 20
2.8276938706957413
 30
1.7145280229692828
  0
POINT
  5
E6
330
17
100
AcDbEntity
  8
0
100
AcDbPoint
 10
2.6219184023230566
 20
9.970967300669436
 30
7.213962628404915
  0
POINT
  5
E7
330
17
100
AcDbEntity
  8
0
100
AcDbPoint
 10
8.922416799754288
 20
1.6518867677577465
 30
7.7827470077328265
  0
POINT
  5
E8
330
17
100
AcDbEntity
  8
0
100
AcDbPoint
 10
1.202939861223763
 20
6.780361744545131
 30
9.893349603720829
  0
POINT
  5
E9
330
17
100
AcDbEntity
  8
0
100
AcDbPoint
 10
9.833411174598435
 20
1.8844035488317878
 30
1.6080981200422995
  0
POINT
  5
EA
330
17
100
AcDbEntity
  8
0
100
AcDbPoint
 10
3.127665960005074
 20
6.968723363301286
 30
5.421504202476907
  0
POINT
  5
EB
330
17
100
AcDbEntity
  8
0
100
AcDbPoint
 10
2.53218039516402
 20
2.065599660511891
 30
6.423408453045941
  0
POINT
  5
EC
330
17
100
AcDbEntity
  8
0
100
AcDbPoint
 10
8.464587619327823
 20
2.848245148180247
 30
3.4581829048630586
  0
POINT
  5
ED
330
17
100
AcDbEntity
  8
0
100
AcDbPoint
 10
6.007832166625306
 20
1.7399019595300491
 30
9.53471337179714
  0
POINT
  5
EE
330
17
100
AcDbEntity
  8
0
100
AcDbPoint
 10
7.790971610879725
 20
7.925892882336934
 30
5.355643969723648
  0
POINT
  5
EF
330
17
100
AcDbEntity
  8
0
100
AcDbPoint
 10
2.5722440829310536
 20
1.0615862906069373
 30
6.759821293658755
  0
POINT
  5
F0
330
17
100
AcDbEntity
  8
0
100
AcDbPoint
 10
7.454186619132733
 20
8.073683629380174
 30
1.3892329318673968
  0
POINT
  5
F1
330
17
100
AcDbEntity
  8
0
100
AcDbPoint
 10
1.2380497843989058
 20
2.487255396314705
 30
1.7257542402241244
  0
POINT
  5
F2
330
17
100
AcDbEntity
  8
0
100
AcDbPoint
 10
8.750987094978411
 20
7.041458344779912
 30
9.52042752054105
  0
POINT
  5
F3
330
17
100
AcDbEntity
  8
0
100
AcDbPoint
 10
8.977509961958853
 20
6.3007925209010995
 30
6.899442323257857
  0
POINT
  5
F4
330
17
100
AcDbEntity
  8
0
100
AcDbPoint
 10
8.32461347891685
 20
3.7442517581118584
 30
1.9328996782959817
  0
POINT
  5
F5
330
17
100
AcDbEntity
  8
0
100
AcDbPoint
 10
7.943478287563119
 20
2.354536686710713
 30
8.922074798913977
  0
POINT
  5
F6
330
17
100
AcDbEntity
  8
0
100
AcDbPoint
 10
5.148447184704623
 20
2.0594102480891507
 30
0.3819067568548584
  0
POINT
  5
F7
330
17
100
AcDbEntity
  8
0
100
AcDbPoint
 10
5.4963152087045195
 20
1.5099564753744965
 30
2.1168094280154115
  0
POINT
  5
F8
330
17
100
AcDbEntity
  8
0
100
AcDbPoint
 10
5.864690505855026
 20
4.465573845984396
 30
3.1853850239038364
  0
POINT
  5
F9
330
17
100
AcDbEntity
  8
0
100
AcDbPoint
 10
2.6244628968426174
 20
6.149496936108221
 30
1.7814212423802411
  0
POINT
  5
FA
330
17
100
AcDbEntity
  8
0
100
AcDbPoint
 10
1.869312767744653
 20
5.2568202020558985
 30
3.22711661887407
  0
POINT
  5
FB
330
17
100
AcDbEntity
  8
0
100
AcDbPoint
 10
2.99443815895906
 20
2.6677648346711926
 30
4.25069885575449
  0
POINT
  5
FC
330
17
100
AcDbEntity
  8
0
100
AcDbPoint
 10
2.477179983307934
 20
6.797338429396608
 30
2.967606193038482
  0
POINT
  5
FD
330
17
100
AcDbEntity
  8
0
100
AcDbPoint
 10
1.9920706386116982
 20
8.267711061024517
 30
3.1404769740439176
  0
POINT
  5
FE
330
17
100
AcDbEntity
  8
0
100
AcDbPoint
 10
2.9026501286572737
 20
1.3160683139987273
 30
4.7034510053952925
  0
POINT
  5
FF
330
17
100
AcDbEntity
  8
0
100
AcDbPoint
 10
7.488590833487128
 20
8.754595626390806
 30
6.940500317985846
  0
POINT
  5
100
330
17
100
AcDbEntity
  8
0
100
AcDbPoint
 10
9.219040327616833
 20
8.139087467577799
 30
1.5387394150627076
  0
POINT
  5
101
330
17
100
AcDbEntity
  8
0
100
AcDbPoint
 10
2.414472460102921
 20
1.355633519998568
 30
0.6808343430495001
  0
POINT
  5
102
330
17
100
AcDbEntity
  8
0
100
AcDbPoint
 10
1.048210517416398
 20
9.627238996051801
 30
8.887732902754449
  0
POINT
  5
103
330
17
100
AcDbEntity
  8
0
100
AcDbPoint
 10
5.607392063746324
 20
2.4937089861681336
 30
4.345037878338653
  0
POINT
  5
104
330
17
100
AcDbEntity
  8
0
100
AcDbPoint
 10
2.003934517884262
 20
0.5947144784320435
 30
7.04426196181569
  0
POINT
  5
105
330
17
100
AcDbEntity
  8
0
100
AcDbPoint
 10
1.3152050474062682
 20
3.712342714802539
 30
4.18911993111641
  0
POINT
  5
106
330
17
100
AcDbEntity
  8
0
100
AcDbPoint
 10
3.715783908768673
 20
7.025157852188711
 30
3.0878606648634612
  0
POINT
  5
107
330
17
100
AcDbEntity
  8
0
100
AcDbPoint
 10
6.335043437444089
 20
1.8029561641303538
 30
7.682486819225904
  0
POINT
  5
108
330
17
100
AcDbEntity
  8
0
100
AcDbPoint
 10
5.90764730468403
 20
9.642907841021218
 30
3.935401417894976
  0
POINT
  5
109
330
17
100
AcDbEntity
  8
0
100
AcDbPoint
 10
8.405661802197242
 20
0.6742254468342346
 30
5.19188320557364
  0
POINT
  5
10A
330
17
100
AcDbEntity
  8
0
100
AcDbPoint
 10
2.7979497694091746
 20
8.952478120032428
 30
3.9479310174910065
  0
POINT
  5
10B
330
17
100
AcDbEntity
  8
0
100
AcDbPoint
 10
4.09229580178235
 20
2.5404696459309273
 30
3.568390643941346
  0
POINT
  5
10C
330
17
100
AcDbEntity
  8
0
100
AcDbPoint
 10
9.324381325853066
 20
9.717970585734282
 30
1.2505156191510258
  0
POINT
  5
10D
330
17
100
AcDbEntity
  8
0
100
AcDbPoint
 10
3.054698869947039
 20
4.097334536619638
 30
0.5583893586675481
  0
POINT
  5
10E
330
17
100
AcDbEntity
  8
0
100
AcDbPoint
 10
0.793842975168304
 20
0.8103877966886608
 30
0.9935521199453212
  0
POINT
  5
10F
330
17
100
AcDbEntity
  8
0
100
AcDbPoint
 10
6.069295133735256
 20
7.07130828698261
 30
3.0549243390588643
  0
POINT
  5
110
330
17
100
AcDbEntity
  8
0
100
AcDbPoint
 10
4.324228605531006
 20
5.879774579589291
 30
0.8549454415661928
  0
POINT
  5
111
330
17
100
AcDbEntity
  8
0
100
AcDbPoint
 10
6.376935114128677
 20
9.800108818937709
 30
4.104257018104481
  0
POINT
  5
112
330
17
100
AcDbEntity
  8
0
100
AcDbPoint
 10
3.1956437491673837
 20
6.905288088475256
 30
2.5154629704931883
  0
POINT
  5
113
330
17
100
AcDbEntity
  8
0
100
AcDbPoint
 10
7.137354732114762
 20
5.92384795401644
 30
4.686422164903073
  0
POINT
  5
114
330
17
100
AcDbEntity
  8
0
100
AcDbPoint
 10
0.40369274087138973
 20
5.449503916028966
 30
0.3980171441959901
  0
POINT
  5
115
330
17
100
AcDbEntity
  8
0
100
AcDbPoint
 10
0.49674844155938813
 20
2.055708661691109
 30
4.742325257725598
  0
POINT
  5
116
330
17
100
AcDbEntity
  8
0
100
AcDbPoint
 10
0.273563875015721
 20
1.1431231882481185
 30
1.006472071202238
  0
POINT
  5
117
330
17
100
AcDbEntity
  8
0
100
AcDbPoint
 10
9.007746912286315
 20
1.6634118988454971
 30
2.891277128606541
  0
POINT
  5
118
330
17
100
AcDbEntity
  8
0
100
AcDbPoint
 10
6.760838264888895
 20
0.6810095208326916
 30
3.5836231058350823
  0
POINT
  5
119
330
17
100
AcDbEntity
  8
0
100
AcDbPoint
 10
7.250412423966273
 20
1.628761783591589
 30
0.7878382833984143
  0
POINT
  5
11A
330
17
100
AcDbEntity
  8
0
100
AcDbPoint
 10
9.963539209064965
 20
7.936385180642652
 30
5.637718830483775
  0
POINT
  5
11B
330
17
100
AcDbEntity
  8
0
100
AcDbPoint
 10
5.110845655939688
 20
4.357247175746924
 30
2.0800669797080618
  0
POINT
  5
11C
330
17
100
AcDbEntity
  8
0
100
AcDbPoint
 10
9.648475253889178
 20
0.7712162186812976
 30
3.4969085138002787
  0
POINT
  5
11D
330
17
100
AcDbEntity
  8
0
100
AcDbPoint
 10
8.766053396641828
 20
3.348571851329074
 30
9.750348409683369
  0
POINT
  5
11E
330
17
100
AcDbEntity
  8
0
100
AcDbPoint
 10
8.569598403678567
 20
8.768512032218439
 30
1.9742084654590042
  0
POINT
  5
11F
330
17
100
AcDbEntity
  8
0
100
AcDbPoint
 10
4.945029600308555
 20
9.512644949441052
 30
6.3097321489633025
  0
POINT
  5
120
330
17
100
AcDbEntity
  8
0
100
AcDbPoint
 10
9.881716568081616
 20
4.386191397053285
 30
6.517200156921017
  0
POINT
  5
121
330
17
100
AcDbEntity
  8
0
100
AcDbPoint
 10
7.725565857185265
 20
5.167312396161767
 30
6.710229557619063
  0
POINT
  5
122
330
17
100
AcDbEntity
  8
0
100
AcDbPoint
 10
7.821890650553897
 20
8.85459333355384
 30
8.749209602114563
  0
POINT
  5
123
330
17
100
AcDbEntity
  8
0
100
AcDbPoint
 10
1.3153954238478993
 20
9.587678061958153
 30
8.402247480471544
  0
POINT
  5
124
330
17
100
AcDbEntity
  8
0
100
AcDbPoint
 10
8.335931554814195
 20
3.4327306107711584
 30
9.575318927202254
  0
POINT
  5
125
330
17
100
AcDbEntity
  8
0
100
AcDbPoint
 10
0.8733651772674877
 20
5.191120642041097
 30
3.9451599602387044
  0
POINT
  5
126
330
17
100
AcDbEntity
  8
0
100
AcDbPoint
 10
4.157927280613645
 20
2.490115232272939
 30
5.1043197764036545
  0
POINT
  5
127
330
17
100
AcDbEntity
  8
0
100
AcDbPoint
 10
1.7676785890227564
 20
3.759202483888343
 30
0.18886492396457122
  0
POINT
  5
128
330
17
100
AcDbEntity
  8
0
100
AcDbPoint
 10
8.935639544585856
 20
9.406574968233109
 30
9.10119998407886
  0
POINT
  5
129
330
17
100
AcDbEntity
  8
0
100
AcDbPoint
 10
9.460437670541884
 20
3.924133572924017
 30
6.054410478372795
  0
POINT
  5
12A
330
17
100
AcDbEntity
  8
0
100
AcDbPoint
 10
1.7992921673477058
 20
6.59601024929872
 30
6.563105099321761
  0
POINT
  5
12B
330
17
100
AcDbEntity
  8
0
100
AcDbPoint
 10
8.200238552407402
 20
7.46249995884424
 30
2.73480790415218
  0
POINT
  5
12C
330
17
100
AcDbEntity
  8
0
100
AcDbPoint
 10
2.4560699915803252
 20
8.10018452051361
 30
3.0876579151521533
  0
POINT
  5
12D
330
17
100
AcDbEntity
  8
0
100
AcDbPoint
 10
8.868939961589444
 20
9.187326333453594
 30
9.304782453562803
  0
POINT
  5
12E
330
17
100
AcDbEntity
  8
0
100
AcDbPoint
 10
2.422033598195786
 20
3.796934303748105
 30
8.69465732483977
  0
POINT
  5
12F
330
17
100
AcDbEntity
  8
0
100
AcDbPoint
 10
9.27523043798033
 20
9.588631845436451
 30
1.1147537197779933
  0
POINT
  5
130
330
17
100
AcDbEntity
  8
0
100
AcDbPoint
 10
1.5037247735154913
 20
4.814007352001436
 30
0.425037475748008
  0
POINT
  5
131
330
17
100
AcDbEntity
  8
0
100
AcDbPoint
 10
6.403146721387477
 20
7.907992065673286
 30
2.360518875955412
  0
POINT
  5
132
330
17
100
AcDbEntity
  8
0
100
AcDbPoint
 10
3.118366219920703
 20
2.041849994432132
 30
0.17550431903985197
  0
POINT
  5
133
330
17
100
AcDbEntity
  8
0
100
AcDbPoint
 10
2.7124485381946704
 20
2.6543579702070232
 30
9.302181884377621
  0
POINT
  5
134
330
17
100
AcDbEntity
  8
0
100
AcDbPoint
 10
5.549876446073761
 20
0.39352047107585997
 30
7.961059944854076
  0
POINT
  5
135
330
17
100
AcDbEntity
  8
0
100
AcDbPoint
 10
3.773346108688298
 20
5.3468155401325905
 30
1.7849258980926463
  0
POINT
  5
136
330
17
100
AcDbEntity
  8
0
100
AcDbPoint
 10
2.1044691906930826
 20
3.8971589385321135
 30
7.1615006738872395
  0
POINT
  5
137
330
17
100
AcDbEntity
  8
0
100
AcDbPoint
 10
2.558003117361917
 20
6.510953665891313
 30
9.19757929773575
  0
POINT
  5
138
330
17
100
AcDbEntity
  8
0
100
AcDbPoint
 10
5.793227795780832
 20
4.953811590284628
 30
2.122334918449188
  0
POINT
  5
139
330
17
100
AcDbEntity
  8
0
100
AcDbPoint
 10
3.325266556257059
 20
3.454074216134809
 30
8.287221752326289
  0
POINT
  5
13A
330
17
100
AcDbEntity
  8
0
100
AcDbPoint
 10
5.363355416044877
 20
6.491272330590209
 30
9.988818110885083
  0
POINT
  5
13B
330
17
100
AcDbEntity
  8
0
100
AcDbPoint
 10
6.210728695220436
 20
7.520696633724176
 30
9.046395445798364
  0
POINT
  5
13C
330
17
100
AcDbEntity
  8
0
100
AcDbPoint
 10
3.7157307337222734
 20
5.9290780368443325
 30
4.316498749368388
  0
POINT
  5
13D
330
17
100
AcDbEntity
  8
0
100
AcDbPoint
 10
5.516288158516401
 20
2.59006264166477
 30
3.298626609441009
  0
POINT
  5
13E
330
17
100
AcDbEntity
  8
0
100
AcDbPoint
 10
4.660508563903748
 20
5.204709197563961
 30
9.436182852998694
  0
POINT
  5
13F
330
17
100
AcDbEntity
  8
0
100
AcDbPoint
 10
5.210328588043036
 20
6.509383901713607
 30
0.3464112611278314
  0
POINT
  5
140
330
17
100
AcDbEntity
  8
0
100
AcDbPoint
 10
1.0662180085365291
 20
7.030487718421298
 30
1.7823199414326651
  0
POINT
  5
141
330
17
100
AcDbEntity
  8
0
100
AcDbPoint
 10
4.985336502615663
 20
9.064270004274634
 30
1.5248701344637006
  0
POINT
  5
142
330
17
100
AcDbEntity
  8
0
100
AcDbPoint
 10
7.1991713604904835
 20
1.8500040711585697
 30
8.251019052097003
  0
POINT
  5
143
330
17
100
AcDbEntity
  8
0
100
AcDbPoint
 10
2.3148967002515697
 20
9.197932137552133
 30
8.031772599879812
  0
POINT
  5
144
330
17
100
AcDbEntity
  8
0
100
AcDbPoint
 10
8.172006275086254
 20
7.4493197344526285
 30
1.4662225932973594
  0
POINT
  5
145
330
17
100
AcDbEntity
  8
0
100
AcDbPoint
 10
5.527573330694716
 20
1.0288928929795305
 30
7.743655523668535
  0
POINT
  5
146
330
17
100
AcDbEntity
  8
0
100
AcDbPoint
 10
3.395031787704339
 20
1.2775912512041132
 30
4.907481563383714
  0
POINT
  5
147
330
17
100
AcDbEntity
  8
0
100
AcDbPoint
 10
2.63141339927797
 20
8.872860768205902
 30
3.1132594940203395
  0
POINT
  5
148
330
17
100
AcDbEntity
  8
0
100
AcDbPoint
 10
8.354891741122131
 20
9.06998235062112
 30
4.825441024926928
  0
POINT
  5
149
330
17
100
AcDbEntity
  8
0
100
AcDbPoint
 10
1.1588057921246164
 20
2.896897729683384
 30
8.774873211163612
  0
POINT
  5
14A
330
17
100
AcDbEntity
  8
0
100
AcDbPoint
 10
3.422243773799718
 20
1.8935633032936672
 30
4.509115081263159
  0
POINT
  5
14B
330
17
100
AcDbEntity
  8
0
100
AcDbPoint
 10
7.028168264385276
 20
8.397103401876029
 30
5.228866956246327
  0
POINT
  5
14C
330
17
100
AcDbEntity
  8
0
100
AcDbPoint
 10
7.59760955084556
 20
9.452893171636157
 30
1.6053419897258758
  0
POINT
  5
14D
330
17
100
AcDbEntity
  8
0
100
AcDbPoint
 10
9.411993806708024
 20
6.346961529189494
 30
9.73193787254389
  0
POINT
  5
14E
330
17
100
AcDbEntity
  8
0
100
AcDbPoint
 10
6.302886510371719
 20
4.2679977426006355
 30
2.426141168222151
  0
POINT
  5
14F
330
17
100
AcDbEntity
  8
0
100
AcDbPoint
 10
5.976599557422965
 20
0.057631382784112395
 30
4.808736554178504
  0
POINT
  5
150
330
17
100
AcDbEntity
  8
0
100
AcDbPoint
 10
9.78855536209678
 20
0.4393157303878814
 30
2.222262898378661
  0
POINT
  5
151
330
17
100
AcDbEntity
  8
0
100
AcDbPoint
 10
2.8114027521403995
 20
2.8510377493720496
 30
8.831106823208309
  0
POINT
  5
152
330
17
100
AcDbEntity
  8
0
100
AcDbPoint
 10
8.174013879240675
 20
7.534587886384965
 30
3.690232186529989
  0
POINT
  5
153
330
17
100
AcDbEntity
  8
0
100
AcDbPoint
 10
7.676214137342681
 20
1.162182336145321
 30
0.92585690776955
  0
POINT
  5
154
330
17
100
AcDbEntity
  8
0
100
AcDbPoint
 10
1.7145181034737744
 20
6.35298329875301
 30
3.053911129399174
  0
POINT
  5
155
330
17
100
AcDbEntity
  8
0
100
AcDbPoint
 10
9.405510211823266
 20
2.3321618639822264
 30
1.0475849413679517
  0
POINT
  5
156
330
17
100
AcDbEntity
  8
0
100
AcDbPoint
 10
8.8311586575902
 20
0.47099166068197196
 30
2.6471430857118916
  0
POINT
  5
157
330
17
100
AcDbEntity
  8
0
100
AcDbPoint
 10
2.7894118127759904
 20
0.9388489641126496
 30
3.580420824886531
  0
POINT
  5
158
330
17
100
AcDbEntity
  8
0
100
AcDbPoint
 10
3.753680547038425
 20
8.309284963184803
 30
5.1522195424616815
  0
POINT
  5
159
330
17
100
AcDbEntity
  8
0
100
AcDbPoint
 10
2.2247967312649273
 20
9.565369422291703
 30
8.754723934998163
  0
POINT
  5
15A
330
17
100
AcDbEntity
  8
0
100
AcDbPoint
 10
2.4154122238249363
 20
2.039141262374878
 30
1.4183966578899765
  0
POINT
  5
15B
330
17
100
AcDbEntity
  8
0
100
AcDbPoint
 10
6.866311642376131
 20
8.508130152732589
 30
0.6787652110882425
  0
POINT
  5
15C
330
17
100
AcDbEntity
  8
0
100
AcDbPoint
 10
3.6794292888363045
 20
0.4959514638385487
 30
7.409975893672968
  0
POINT
  5
15D
330
17
100
AcDbEntity
  8
0
100
AcDbPoint
 10
6.549694828403737
 20
8.462181005384702
 30
8.542107147861318
  0
POINT
  5
15E
330
17
100
AcDbEntity
  8
0
100
AcDbPoint
 10
8.686209944189597
 20
3.097322219775683
 30
6.394245617323517
  0
POINT
  5
15F
330
17
100
AcDbEntity
  8
0
100
AcDbPoint
 10
3.0060485281988294
 20
4.788798459652717
 30
4.846680344535201
  0
POINT
  5
160
330
17
100
AcDbEntity
  8
0
100
AcDbPoint
 10
9.037958284951328
 20
9.028313571555932
 30
7.308333119424649
  0
POINT
  5
161
330
17
100
AcDbEntity
  8
0
100
AcDbPoint
 10
4.458186285800019
 20
0.9657244418750977
 30
8.33109970195056
  0
POINT
  5
162
330
17
100
AcDbEntity
  8
0
100
AcDbPoint
 10
6.8003851140601865
 20
5.964881811733521
 30
4.869295520771479
  0
POINT
  5
163
330
17
100
AcDbEntity
  8
0
100
AcDbPoint
 10
4.000856085114175
 20
8.398072691723526
 30
3.0007240669631683
  0
POINT
  5
164
330
17
100
AcDbEntity
  8
0
100
AcDbPoint
 10
2.0258432734997855
 20
5.930628999619522
 30
7.514005204075774
  0
POINT
  5
165
330
17
100
AcDbEntity
  8
0
100
AcDbPoint
 10
1.1777890010139103
 20
1.4790131457114186
 30
5.460086778216324
  0
POINT
  5
166
330
17
100
AcDbEntity
  8
0
100
AcDbPoint
 10
3.298798385180085
 20
4.643703705050195
 30
5.021140225295788
  0
POINT
  5
167
330
17
100
AcDbEntity
  8
0
100
AcDbPoint
 10
1.2346942284231377
 20
2.085607740248533
 30
4.54723908373997
  0
POINT
  5
168
330
17
100
AcDbEntity
  8
0
100
AcDbPoint
 10
4.644302143080794
 20
5.51506746236957
 30
2.0741918070539764
  0
POINT
  5
169
330
17
100
AcDbEntity
  8
0
100
AcDbPoint
 10
2.1523556713962897
 20
1.4509099760764321
 30
1.0864096725292827
  0
POINT
  5
16A
330
17
100
AcDbEntity
  8
0
100
AcDbPoint
 10
1.0331470119196773
 20
5.13535668122469
 30
3.619136540132172
  0
POINT
  5
16B
330
17
100
AcDbEntity
  8
0
100
AcDbPoint
 10
5.55458147673415
 20
4.794684293845095
 30
7.199744627000485
  0
POINT
  5
16C
330
17
100
AcDbEntity
  8
0
100
AcDbPoint
 10
2.593383568945382
 20
0.5007980389469779
 30
4.081050234568768
  0
POINT
  5
16D
330
17
100
AcDbEntity
  8
0
100
AcDbPoint
 10
4.310044176866414
 20
9.69574567556379
 30
6.038607660322056
  0
POINT
  5
16E
330
17
100
AcDbEntity
  8
0
100
AcDbPoint
 10
7.207367613072301
 20
5.53937053023676
 30
3.745961666462069
  0
POINT
  5
16F
330
17
100
AcDbEntity
  8
0
100
AcDbPoint
 10
0.9069640801424084
 20
5.739990041259492
 30
8.730368570221467
  0
POINT
  5
170
330
17
100
AcDbEntity
  8
0
100
AcDbPoint
 10
0.5453033133187979
 20
6.8123101731527305
 30
5.6530685205016535
  0
POINT
  5
171
330
17
100
AcDbEntity
  8
0
100
AcDbPoint
 10
9.509944959086233
 20
1.962986806090924
 30
1.5844349227787546
  0
POINT
  5
172
330
17
100
AcDbEntity
  8
0
100
AcDbPoint
 10
8.211874609385305
 20
3.1893662827785727
 30
2.006483292572705
  0
POINT
  5
173
330
17
100
AcDbEntity
  8
0
100
AcDbPoint
 10
3.649015210831894
 20
9.51806051404006
 30
5.745974296309681
  0
POINT
  5
174
330
17
100
AcDbEntity
  8
0
100
AcDbPoint
 10
3.886310896416938
 20
6.534599506725151
 30
4.0306365625009635
  0
POINT
  5
175
330
17
100
AcDbEntity
  8
0
100
AcDbPoint
 10
4.004217413786785
 20
3.477849177427351
 30
0.3438345016647981
  0
POINT
  5
176
330
17
100
AcDbEntity
  8
0
100
AcDbPoint
 10
6.206029608537768
 20
8.47854303333067
 30
4.245723072586274
  0
POINT
  5
177
330
17
100
AcDbEntity
  8
0
100
AcDbPoint
 10
5.465180846778836
 20
3.3417154876945334
 30
8.271430709535991
  0
POINT
  5
178
330
17
100
AcDbEntity
  8
0
100
AcDbPoint
 10
3.8203425255836354
 20
8.078423293693037
 30
5.006446737897123
  0
POINT
  5
179
330
17
100
AcDbEntity
  8
0
100
AcDbPoint
 10
4.967491027187543
 20
2.314123569800236
 30
2.7955871943730184
  0
POINT
  5
17A
330
17
100
AcDbEntity
  8
0
100
AcDbPoint
 10
1.5887522582967462
 20
4.325626249620489
 30
1.318800596831109
  0
POINT
  5
17B
330
17
100
AcDbEntity
  8
0
100
AcDbPoint
 10
7.655250464312485
 20
5.064257356281207
 30
7.906955194607857
  0
POINT
  5
17C
330
17
100
AcDbEntity
  8
0
100
AcDbPoint
 10
1.5222064614641628
 20
1.3811608427338828
 30
9.027245488858846
  0
POINT
  5
17D
330
17
100
AcDbEntity
  8
0
100
AcDbPoint
 10
4.950880005461023
 20
4.951155475921083
 30
6.475100948824824
  0
POINT
  5
17E
330
17
100
AcDbEntity
  8
0
100
AcDbPoint
 10
6.383818270386668
 20
4.294732816048429
 30
6.593972876422448
  0
POINT
  5
17F
330
17
100
AcDbEntity
  8
0
100
AcDbPoint
 10
8.83040934036114
 20
2.1227633395414482
 30
2.8198450566536657
  0
POINT
  5
180
330
17
100
AcDbEntity
  8
0
100
AcDbPoint
 10
9.673635544413662
 20
9.365094089444007
 30
5.044243106007718
  0
POINT
  5
181
330
17
100
AcDbEntity
  8
0
100
AcDbPoint
 10
3.377711906783717
 20
4.161823474472578
 30
7.708711621671178
  0
POINT
  5
182
330
17
100
AcDbEntity
  8
0
100
AcDbPoint
 10
5.847361498842351
 20
0.23448151126476802
 30
1.9959441431751057
  0
POINT
  5
183
330
17
100
AcDbEntity
  8
0
100
AcDbPoint
 10
8.714087450234002
 20
5.382879441171429
 30
9.778880759110995
  0
POINT
  5
184
330
17
100
AcDbEntity
  8
0
100
AcDbPoint
 10
1.4415760386142218
 20
8.943255323982687
 30
0.08857367277011585
  0
POINT
  5
185
330
17
100
AcDbEntity
  8
0
100
AcDbPoint
 10
5.606063745150997
 20
3.4605739158652957
 30
5.464733238371904
  0
POINT
  5
186
330
17
100
AcDbEntity
  8
0
100
AcDbPoint
 10
0.21746196732747136
 20
0.14628004288174346
 30
4.593497632387638
  0
POINT
  5
187
330
17
100
AcDbEntity
  8
0
100
AcDbPoint
 10
8.43117751439484
 20
9.44252296443602
 30
0.9861772085056042
  0
POINT
  5
188
330
17
100
AcDbEntity
  8
0
100
AcDbPoint
 10
0.6451468832789597
 20
2.7003853092846644
 30
9.852915465494982
  0
POINT
  5
189
330
17
100
AcDbEntity
  8
0
100
AcDbPoint
 10
0.11232519724169499
 20
2.019406386322997
 30
5.660281943003756
  0
POINT
  5
18A
330
17
100
AcDbEntity
  8
0
100
AcDbPoint
 10
4.926599139327741
 20
1.1665210388449665
 30
5.17935367796783
  0
POINT
  5
18B
330
17
100
AcDbEntity
  8
0
100
AcDbPoint
 10
3.703591773131322
 20
1.433995678893254
 30
2.077019724336364
  0
POINT
  5
18C
330
17
100
AcDbEntity
  8
0
100
AcDbPoint
 10
2.9614161487766557
 20
9.939546577919472
 30
2.498482927802139
  0
POINT
  5
18D
330
17
100
AcDbEntity
  8
0
100
AcDbPoint
 10
8.973404908145396
 20
4.877918768202169
 30
2.9751656265243187
  0
POINT
  5
18E
330
17
100
AcDbEntity
  8
0
100
AcDbPoint
 10
8.447310823350179
 20
7.657377633067846
 30
1.4433614709359432
  0
POINT
  5
18F
330
17
100
AcDbEntity
  8
0
100
AcDbPoint
 10
3.622567941974931
 20
2.0223806446684742
 30
0.22161131919058552
  0
POINT
  5
190
330
17
100
AcDbEntity
  8
0
100
AcDbPoint
 10
3.955543078177933
 20
4.143302573512319
 30
6.062436558744015
  0
POINT
  5
191
330
17
100
AcDbEntity
  8
0
100
AcDbPoint
 10
5.886434893588074
 20
8.887569873342564
 30
7.163034854499809
  0
POINT
  5
192
330
17
100
AcDbEntity
  8
0
100
AcDbPoint
 10
2.731514282181587
 20
7.931813265271533
 30
5.947888418651902
  0
POINT
  5
193
330
17
100
AcDbEntity
  8
0
100
AcDbPoint
 10
8.841507735943198
 20
0.4626493850085689
 30
8.117810397567343
  0
POINT
  5
194
330
17
100
AcDbEntity
  8
0
100
AcDbPoint
 10
9.849828627107922
 20
0.26968314241947344
 30
6.418599697286279
  0
POINT
  5
195
330
17
100
AcDbEntity
  8
0
100
AcDbPoint
 10
5.357992782348706
 20
4.267646143069043
 30
0.44883336162163223
  0
POINT
  5
196
330
17
100
AcDbEntity
  8
0
100
AcDbPoint
 10
3.8850628594581895
 20
6.969557749055437
 30
9.369684182325921
  0
POINT
  5
197
330
17
100
AcDbEntity
  8
0
100
AcDbPoint
 10
1.6555639435798086
 20
5.0756409959096445
 30
2.122197728356233
  0
POINT
  5
198
330
17
100
AcDbEntity
  8
0
100
AcDbPoint
 10
3.062789761100466
 20
5.6916564441968145
 30
2.485122163754415
  0
POINT
  5
199
330
17
100
AcDbEntity
  8
0
100
AcDbPoint
 10
5.786915687020779
 20
8.86796007463668
 30
3.0596302350757787
  0
POINT
  5
19A
330
17
100
AcDbEntity
  8
0
100
AcDbPoint
 10
6.193759919288736
 20
6.252096924761333
 30
1.5024161448034412
  0
POINT
  5
19B
330
17
100
AcDbEntity
  8
0
100
AcDbPoint
 10
8.534083871380567
 20
5.092903131833496
 30
4.552220806044707
  0
POINT
  5
19C
330
17
100
AcDbEntity
  8
0
100
AcDbPoint
 10
6.77931933268726
 20
5.576489775662775
 30
1.889505829238023
  0
POINT
  5
19D
330
17
100
AcDbEntity
  8
0
100
AcDbPoint
 10
0.8726651097817029
 20
4.4888914216380496
 30
7.476624772545922
  0
POINT
  5
19E
330
17
100
AcDbEntity
  8
0
100
AcDbPoint
 10
8.824031192395463
 20
3.2964636980198025
 30
4.258623333315939
  0
POINT
  5
19F
330
17
100
AcDbEntity
  8
0
100
AcDbPoint
 10
4.153911961511799
 20
8.76050687995191
 30
6.452641517771762
  0
POINT
  5
1A0
330
17
100
AcDbEntity
  8
0
100
AcDbPoint
 10
8.07772819370078
 20
7.3724834510795345
 30
7.928589475518165
  0
POINT
  5
1A1
330
17
100
AcDbEntity
  8
0
100
AcDbPoint
 10
8.786280854201857
 20
3.5960398344084545
 30
6.911613771963896
  0
POINT
  5
1A2
330
17
100
AcDbEntity
  8
0
100
AcDbPoint
 10
8.803312574997081
 20
8.469819640005902
 30
6.497344550724089
  0
POINT
  5
1A3
330
17
100
AcDbEntity
  8
0
100
AcDbPoint
 10
6.3209008256202415
 20
5.847009670667508
 30
8.430753529441667
  0
POINT
  5
1A4
330
17
100
AcDbEntity
  8
0
100
AcDbPoint
 10
0.5858039598536324
 20
9.951873342590577
 30
8.102503196434727
  0
POINT
  5
1A5
330
17
100
AcDbEntity
  8
0
100
AcDbPoint
 10
6.9956016093298015
 20
9.772812990611587
 30
5.207497077164388
  0
POINT
  5
1A6
330
17
100
AcDbEntity
  8
0
100
AcDbPoint
 10
7.747694712600076
 20
1.1653195771623004
 30
7.38539381824194
  0
POINT
  5
1A7
330
17
100
AcDbEntity
  8
0
100
AcDbPoint
 10
4.6708426171065
 20
3.1677925263925975
 30
5.87965706106672
  0
POINT
  5
1A8
330
17
100
AcDbEntity
  8
0
100
AcDbPoint
 10
6.027002836375841
 20
0.5075333155454365
 30
7.433339120822423
  0
POINT
  5
1A9
330
17
100
AcDbEntity
  8
0
100
AcDbPoint
 10
2.7990331887914
 20
0.1554925553769282
 30
4.062317157811454
  0
POINT
  5
1AA
330
17
100
AcDbEntity
  8
0
100
AcDbPoint
 10
5.321314142203807
 20
2.6710716635471057
 30
6.6557632592396265
  0
POINT
  5
1AB
330
17
100
AcDbEntity
  8
0
100
AcDbPoint
 10
9.562286657794022
 20
5.722623505696952
 30
1.313424949281945
  0
POINT
  5
1AC
330
17
100
AcDbEntity
  8
0
100
AcDbPoint
 10
6.643672556852842
 20
9.758293081279486
 30
8.534108331795526
  0
POINT
  5
1AD
330
17
100
AcDbEntity
  8
0
100
AcDbPoint
 10
4.682295033264503
 20
6.849835340690207
 30
0.5427175892662417
  0
POINT
  5
1AE
330
17
100
AcDbEntity
  8
0
100
AcDbPoint
 10
9.745115559161073
 20
4.109842712757674
 30
5.368307156511676
  0
POINT
  5
1AF
330
17
100
AcDbEntity
  8
0
100
AcDbPoint
 10
5.434030470788586
 20
0.49204587068195416
 30
1.0041937106179988
  0
POINT
  5
1B0
330
17
100
AcDbEntity
  8
0
100
AcDbPoint
 10
8.968518417533467
 20
4.8306470762459455
 30
4.689484361214259
  0
POINT
  5
1B1
330
17
100
AcDbEntity
  8
0
100
AcDbPoint
 10
5.995116872129476
 20
2.7950168601561245
 30
2.074938198034869
  0
POINT
  5
1B2
330
17
100
AcDbEntity
  8
0
100
AcDbPoint
 10
9.554163329070319
 20
7.783562219674645
 30
1.5494715878975351
  0
POINT
  5
1B3
330
17
100
AcDbEntity
  8
0
100
AcDbPoint
 10
0.5796141038902658
 20
2.4714875413790507
 30
7.28270026266132
  0
POINT
  5
1B4
330
17
100
AcDbEntity
  8
0
100
AcDbPoint
 10
6.046928440835973
 20
5.11092504209199
 30
1.435620798903644
  0
POINT
  5
1B5
330
17
100
AcDbEntity
  8
0
100
AcDbPoint
 10
8.543655647453495
 20
9.489230158203409
 30
0.6447661832491836
  0
POINT
  5
1B6
330
17
100
AcDbEntity
  8
0
100
AcDbPoint
 10
4.071665967790624
 20
9.309842215652889
 30
5.567732403981522
  0
POINT
  5
1B7
330
17
100
AcDbEntity
  8
0
100
AcDbPoint
 10
3.813327260222774
 20
4.768371784329855
 30
2.937710931343529
  0
POINT
  5
1B8
330
17
100
AcDbEntity
  8
0
100
AcDbPoint
 10
8.71620468814829
 20
7.896874419469504
 30
3.2996117805204808
  0
POINT
  5
1B9
330
17
100
AcDbEntity
  8
0
100
AcDbPoint
 10
9.307350700005268
 20
9.667394649577352
 30
6.542765850525988
  0
POINT
  5
1BA
330
17
100
AcDbEntity
  8
0
100
AcDbPoint
 10
7.411857780844272
 20
2.267585395638446
 30
3.2007294626532214
  0
POINT
  5
1BB
330
17
100
AcDbEntity
  8
0
100
AcDbPoint
 10
0.07818434700106125
 20
8.47879121338689
 30
3.2193032339169325
  0
POINT
  5
1BC
330
17
100
AcDbEntity
  8
0
100
AcDbPoint
 10
2.4952466453879927
 20
3.6100315537198613
 30
3.57027800050703
  0
POINT
  5
1BD
330
17
100
AcDbEntity
  8
0
100
AcDbPoint
 10
5.155828859229475
 20
7.5409446027904306
 30
4.341599603068532
  0
POINT
  5
1BE
330
17
100
AcDbEntity
  8
0
100
AcDbPoint
 10
9.606012022118412
 20
2.5516546982077735
 30
5.281387298691489
  0
POINT
  5
1BF
330
17
100
AcDbEntity
  8
0
100
AcDbPoint
 10
5.099759541030559
 20
5.757617289214549
 30
2.2346746209696366
  0
POINT
  5
1C0
330
17
100
AcDbEntity
  8
0
100
AcDbPoint
 10
5.123139467837154
 20
4.4530003991144405
 30
0.511354842938404
  0
POINT
  5
1C1
330
17
100
AcDbEntity
  8
0
100
AcDbPoint
 10
6.249557482041713
 20
2.14403878705121
 30
1.1679331530616766
  0
POINT
  5
1C2
330
17
100
AcDbEntity
  8
0
100
AcDbPoint
 10
0.6652270760037249
 20
1.012881362963295
 30
0.9894100179454757
  0
POINT
  5
1C3
330
17
100
AcDbEntity
  8
0
100
AcDbPoint
 10
5.120277748008801
 20
2.4789613569062108
 30
7.662217896176029
  0
POINT
  5
1C4
330
17
100
AcDbEntity
  8
0
100
AcDbPoint
 10
1.1726233616812065
 20
1.4337709172580149
 30
7.713205834151483
  0
POINT
  5
1C5
330
17
100
AcDbEntity
  8
0
100
AcDbPoint
 10
1.7926395907872184
 20
5.565334250745046
 30
0.08185597657026644
  0
POINT
  5
1C6
330
17
100
AcDbEntity
  8
0
100
AcDbPoint
 10
1.2164094495091782
 20
8.52892761326877
 30
8.788842430576835
  0
POINT
  5
1C7
330
17
100
AcDbEntity
  8
0
100
AcDbPoint
 10
6.15847336484205
 20
7.434522261088508
 30
7.163075823382199
  0
POINT
  5
1C8
330
17
100
AcDbEntity
  8
0
100
AcDbPoint
 10
3.3223233994742065
 20
1.3990349709226568
 30
7.865983410353303
  0
POINT
  5
1C9
330
17
100
AcDbEntity
  8
0
100
AcDbPoint
 10
8.446814500476389
 20
5.596624334911491
 30
5.05277141707187
  0
POINT
  5
1CA
330
17
100
AcDbEntity
  8
0
100
AcDbPoint
 10
3.0702505278307743
 20
5.780833104408176
 30
0.7201388819955634
  0
POINT
  5
1CB
330
17
100
AcDbEntity
  8
0
100
AcDbPoint
 10
4.1273113724944075
 20
1.7533721324800122
 30
7.837817124963377
  0
POINT
  5
1CC
330
17
100
AcDbEntity
  8
0
100
AcDbPoint
 10
8.580150429008906
 20
0.2208651949078444
 30
0.6760329273913324
  0
POINT
  5
1CD
330
17
100
AcDbEntity
  8
0
100
AcDbPoint
 10
7.848823488185084
 20
1.3666151706718133
 30
4.772192439680969
  0
POINT
  5
1CE
330
17
100
AcDbEntity
  8
0
100
AcDbPoint
 10
5.720900823009974
 20
3.955149140159434
 30
4.077468786605011
  0
POINT
  5
1CF
330
17
100
AcDbEntity
  8
0
100
AcDbPoint
 10
4.140396717445113
 20
9.6809942915327
 30
5.667693836032975
  0
POINT
  5
1D0
330
17
100
AcDbEntity
  8
0
100
AcDbPoint
 10
0.4703782016188496
 20
8.715877443819213
 30
7.475161836751306
  0
POINT
  5
1D1
330
17
100
AcDbEntity
  8
0
100
AcDbPoint
 10
0.48959979927275077
 20
3.420658344142029
 30
6.806859442840576
  0
POINT
  5
1D2
330
17
100
AcDbEntity
  8
0
100
AcDbPoint
 10
3.5734001290670294
 20
4.42032676488882
 30
1.4542923569472443
  0
POINT
  5
1D3
330
17
100
AcDbEntity
  8
0
100
AcDbPoint
 10
4.8778655418352015
 20
4.209731884354337
 30
8.430606403766468
  0
POINT
  5
1D4
330
17
100
AcDbEntity
  8
0
100
AcDbPoint
 10
2.808161036418121
 20
8.067835351608482
 30
6.376651660423393
  0
POINT
  5
1D5
330
17
100
AcDbEntity
  8
0
100
AcDbPoint
 10
7.446750978392843
 20
0.982886747312085
 30
5.414314105229155
  0
POINT
  5
1D6
330
17
100
AcDbEntity
  8
0
100
AcDbPoint
 10
4.122990401456695
 20
7.886131990842811
 30
4.387071064991607
  0
POINT
  5
1D7
330
17
100
AcDbEntity
  8
0
100
AcDbPoint
 10
2.9528253461407594
 20
8.099926008559232
 30
3.816967130940334
  0
POINT
  5
1D8
330
17
100
AcDbEntity
  8
0
100
AcDbPoint
 10
4.89342802872788
 20
7.631070605942758
 30
4.455628539175848
  0
POINT
  5
1D9
330
17
100
AcDbEntity
  8
0
100
AcDbPoint
 10
8.390343727930743
 20
2.805970857849532
 30
2.7964145810791363
  0
POINT
  5
1DA
330
17
100
AcDbEntity
  8
0
100
AcDbPoint
 10
6.027804140280805
 20
8.587573464371404
 30
5.794475577401567
  0
POINT
  5
1DB
330
17
100
AcDbEntity
  8
0
100
AcDbPoint
 10
9.56767202117006
 20
2.4306377031000004
 30
0.3187229999012453
  0
POINT
  5
1DC
330
17
100
AcDbEntity
  8
0
100
AcDbPoint
 10
3.3883985896671973
 20
4.056161197949395
 30
1.0450711184792982
  0
POINT
  5
1DD
330
17
100
AcDbEntity
  8
0
100
AcDbPoint
 10
9.514779062516466
 20
7.812078958863724
 30
9.523176245911248
  0
POINT
  5
1DE
330
17
100
AcDbEntity
  8
0
100
AcDbPoint
 10
2.85231186932751
 20
4.379262311495992
 30
1.8978042830955355
  0
POINT
  5
1DF
330
17
100
AcDbEntity
  8
0
100
AcDbPoint
 10
7.965829452479714
 20
6.319885259293866
 30
9.179203485611387
  0
POINT
  5
1E0
330
17
100
AcDbEntity
  8
0
100
AcDbPoint
 10
7.130422253800922
 20
1.0110710240007248
 30
6.159977429628441
  0
POINT
  5
1E1
330
17
100
AcDbEntity
  8
0
100
AcDbPoint
 10
5.869636530354732
 20
4.313330322432167
 30
9.66764578110141
  0
POINT
  5
1E2
330
17
100
AcDbEntity
  8
0
100
AcDbPoint
 10
7.9060190235496055
 20
5.014946799342961
 30
2.821842403032976
  0
POINT
  5
1E3
330
17
100
AcDbEntity
  8
0
100
AcDbPoint
 10
5.168200379455899
 20
5.182854517772995
 30
5.061226230604317
  0
POINT
  5
1E4
330
17
100
AcDbEntity
  8
0
100
AcDbPoint
 10
7.496130041822603
 20
2.0413867240382233
 30
5.317250510685768
  0
POINT
  5
1E5
330
17
100
AcDbEntity
  8
0
100
AcDbPoint
 10
5.125275940075987
 20
6.05037383833616
 30
5.318800485971464
  0
POINT
  5
1E6
330
17
100
AcDbEntity
  8
0
100
AcDbPoint
 10
5.619593587978758
 20
8.910420052500207
 30
8.163602884496061
  0
POINT
  5
1E7
330
17
100
AcDbEntity
  8
0
100
AcDbPoint
 10
9.234504958791215
 20
0.6000750381121223
 30
6.266607138003392
  0
POINT
  5
1E8
330
17
100
AcDbEntity
  8
0
100
AcDbPoint
 10
1.1493133719718107
 20
6.700832884911683
 30
3.2292223892009018
  0
POINT
  5
1E9
330
17
100
AcDbEntity
  8
0
100
AcDbPoint
 10
8.459402593415495
 20
8.803256211631519
 30
4.496085795225266
  0
POINT
  5
1EA
330
17
100
AcDbEntity
  8
0
100
AcDbPoint
 10
5.486561876931018
 20
2.941379317802445
 30
5.980206684038456
  0
POINT
  5
1EB
330
17
100
AcDbEntity
  8
0
100
AcDbPoint
 10
6.29183870110393
 20
8.548306799621798
 30
1.304324814326594
  0
POINT
  5
1EC
330
17
100
AcDbEntity
  8
0
100
AcDbPoint
 10
8.984770009168257
 20
8.804066329117985
 30
4.816464218526619
  0
POINT
  5
1ED
330
17
100
AcDbEntity
  8
0
100
AcDbPoint
 10
0.0376233878918697
 20
2.156859719335631
 30
5.101625334573137
  0
POINT
  5
1EE
330
17
100
AcDbEntity
  8
0
100
AcDbPoint
 10
4.204441954891839
 20
0.334597510649256
 30
5.714577975714853
  0
POINT
  5
1EF
330
17
100
AcDbEntity
  8
0
100
AcDbPoint
 10
6.7937768164216505
 20
1.7765747679103683
 30
3.767691431244268
  0
POINT
  5
1F0
330
17
100
AcDbEntity
  8
0
100
AcDbPoint
 10
0.6507719470589912
 20
5.600321060960076
 30
7.616008600288591
  0
POINT
  5
1F1
330
17
100
AcDbEntity
  8
0
100
AcDbPoint
 10
3.7577415819323567
 20
5.607237872485252
 30
0.5768287516669879
  0
POINT
  5
1F2
330
17
100
AcDbEntity
  8
0
100
AcDbPoint
 10
2.193227268324003
 20
2.65799857106366
 30
4.373920379712342
  0
POINT
  5
1F3
330
17
100
AcDbEntity
  8
0
100
AcDbPoint
 10
2.9467870824428957
 20
9.105128604277748
 30
8.24083070165441
  0
POINT
  5
1F4
330
17
100
AcDbEntity
  8
0
100
AcDbPoint
 10
2.1557020510537575
 20
0.5123362135162568
 30
0.25063103827012934
  0
POINT
  5
1F5
330
17
100
AcDbEntity
  8
0
100
AcDbPoint
 10
5.557138311336932
 20
3.291896907092208
 30
5.843330235535361
  0
POINT
  5
1F6
330
17
100
AcDbEntity
  8
0
100
AcDbPoint
 10
2.700108435409345
 20
8.701521214610452
 30
9.931730207086549
  0
POINT
  5
1F7
330
17
100
AcDbEntity
  8
0
100
AcDbPoint
 10
0.9750215627935688
 20
1.7778075913761404
 30
8.701796314639175
  0
POINT
  5
1F8
330
17
100
AcDbEntity
  8
0
100
AcDbPoint
 10
9.089661775473314
 20
5.7362912563277515
 30
6.436070126980752
  0
POINT
  5
1F9
330
17
100
AcDbEntity
  8
0
100
AcDbPoint
 10
4.1429727756618275
 20
0.47367164221360447
 30
4.393014450165991
  0
POINT
  5
1FA
330
17
100
AcDbEntity
  8
0
100
AcDbPoint
 10
7.519344122557319
 20
4.92178189950791
 30
0.5162119385601893
  0
POINT
  5
1FB
330
17
100
AcDbEntity
  8
0
100
AcDbPoint
 10
6.69568974091783
 20
8.95252244004421
 30
9.492196303386764
  0
POINT
  5
1FC
330
17
100
AcDbEntity
  8
0
100
AcDbPoint
 10
1.6323671543718354
 20
6.956924176574258
 30
8.240025882772365
  0
POINT
  5
1FD
330
17
100
AcDbEntity
  8
0
100
AcDbPoint
 10
5.602275922903873
 20
9.100306265303336
 30
5.2947179932248165
  0
POINT
  5
1FE
330
17
100
AcDbEntity
  8
0
100
AcDbPoint
 10
7.292014298947482
 20
1.3204701902987537
 30
3.1677742081004423
  0
POINT
  5
1FF
330
17
100
AcDbEntity
  8
0
100
AcDbPoint
 10
4.203636233913922
 20
7.9796697481389
 30
8.433461199140742
  0
POINT
  5
200
330
17
100
AcDbEntity
  8
0
100
AcDbPoint
 10
3.390709244518799
 20
1.9358915983802516
 30
0.6919763451048377
  0
POINT
  5
201
330
17
100
AcDbEntity
  8
0
100
AcDbPoint
 10
9.729144508103463
 20
4.195928182376799
 30
9.610651461031376
  0
POINT
  5
202
330
17
100
AcDbEntity
  8
0
100
AcDbPoint
 10
7.646360140709538
 20
8.546252373502835
 30
9.658154237438856
  0
POINT
  5
203
330
17
100
AcDbEntity
  8
0
100
AcDbPoint
 10
6.855278058643412
 20
7.847449058484139
 30
4.559479796423357
  0
POINT
  5
204
330
17
100
AcDbEntity
  8
0
100
AcDbPoint
 10
1.8327968046710519
 20
2.3695287532963896
 30
4.936075916243158
  0
POINT
  5
205
330
17
100
AcDbEntity
  8
0
100
AcDbPoint
 10
7.462512998767848
 20
3.4251234232625616
 30
8.772157435533705
  0
POINT
  5
206
330
17
100
AcDbEntity
  8
0
100
AcDbPoint
 10
5.626332630971075
 20
3.7052509835425784
 30
8.360457055582387
  0
POINT
  5
207
330
17
100
AcDbEntity
  8
0
100
AcDbPoint
 10
6.280382284834522
 20
4.961134065707188
 30
9.253568190169087
  0
POINT
  5
208
330
17
100
AcDbEntity
  8
0
100
AcDbPoint
 10
2.8901646807339034
 20
2.473871537650684
 30
3.69339670026291
  0
POINT
  5
209
330
17
100
AcDbEntity
  8
0
100
AcDbPoint
 10
0.2832831427869653
 20
0.986946033801609
 30
9.34821216788888
  0
POINT
  5
20A
330
17
100
AcDbEntity
  8
0
100
AcDbPoint
 10
9.221679606224683
 20
8.769906760785894
 30
5.569105598940346
  0
POINT
  5
20B
330
17
100
AcDbEntity
  8
0
100
AcDbPoint
 10
4.517189759801111
 20
6.467788015316379
 30
0.885297464746787
  0
POINT
  5
20C
330
17
100
AcDbEntity
  8
0
100
AcDbPoint
 10
1.4293060941525082
 20
1.301623916074326
 30
1.1499580971498191
  0
POINT
  5
20D
330
17
100
AcDbEntity
  8
0
100
AcDbPoint
 10
6.010247728373202
 20
4.529127966812209
 30
6.183061145441139
  0
POINT
  5
20E
330
17
100
AcDbEntity
  8
0
100
AcDbPoint
 10
5.785617745208392
 20
7.461458414616066
 30
8.22641279422212
  0
POINT
  5
20F
330
17
100
AcDbEntity
  8
0
100
AcDbPoint
 10
8.240217722827413
 20
5.029694052343628
 30
1.1721507694641153
  0
POINT
  5
210
330
17
100
AcDbEntity
  8
0
100
AcDbPoint
 10
1.6832869336458778
 20
8.404717059672112
 30
8.975821325398645
  0
POINT
  5
211
330
17
100
AcDbEntity
  8
0
100
AcDbPoint
 10
0.9931507492796021
 20
8.050652125340935
 30
1.756762661688095
  0
POINT
  5
212
330
17
100
AcDbEntity
  8
0
100
AcDbPoint
 10
5.1698541326644385
 20
3.9923880498827002
 30
9.871691150807827
  0
POINT
  5
213
330
17
100
AcDbEntity
  8
0
100
AcDbPoint
 10
3.6397159102074674
 20
2.6552369814290344
 30
0.7388983018971196
  0
POINT
  5
214
330
17
100
AcDbEntity
  8
0
100
AcDbPoint
 10
9.934790908964166
 20
9.32767806484324
 30
7.489773842520787
  0
POINT
  5
215
330
17
100
AcDbEntity
  8
0
100
AcDbPoint
 10
6.001494579208932
 20
9.836260094213854
 30
5.5601051524272025
  0
POINT
  5
216
330
17
100
AcDbEntity
  8
0
100
AcDbPoint
 10
6.509924504399542
 20
3.9695219526919767
 30
3.3325523222520967
  0
POINT
  5
217
330
17
100
AcDbEntity
  8
0
100
AcDbPoint
 10
2.3679964337007373
 20
1.128160778339018
 30
7.016518560550816
  0
POINT
  5
218
330
17
100
AcDbEntity
  8
0
100
AcDbPoint
 10
4.470892050162252
 20
3.8131556618147586
 30
1.962661405459093
  0
POINT
  5
219
330
17
100
AcDbEntity
  8
0
100
AcDbPoint
 10
8.70221028729735
 20
6.589606415613437
 30
9.628670779974339
  0
POINT
  5
21A
330
17
100
AcDbEntity
  8
0
100
AcDbPoint
 10
5.3294295119199795
 20
9.711762448158401
 30
8.605092805786455
  0
POINT
  5
21B
330
17
100
AcDbEntity
  8
0
100
AcDbPoint
 10
9.726944950462096
 20
5.178326224155015
 30
2.1515691859553874
  0
POINT
  5
21C
330
17
100
AcDbEntity
  8
0
100
AcDbPoint
 10
1.9533127263033812
 20
9.378746934141947
 30
0.21037792256801136
  0
POINT
  5
21D
330
17
100
AcDbEntity
  8
0
100
AcDbPoint
 10
7.195558013233185
 20
9.410815654482445
 30
4.965832206537945
  0
POINT
  5
21E
330
17
100
AcDbEntity
  8
0
100
AcDbPoint
 10
3.6399078183568303
 20
2.091618296597628
 30
0.02999848619911316
  0
POINT
  5
21F
330
17
100
AcDbEntity
  8
0
100
AcDbPoint
 10
8.821778843735743
 20
7.6031410191841085
 30
1.9458046907039361
  0
POINT
  5
220
330
17
100
AcDbEntity
  8
0
100
AcDbPoint
 10
1.9919565684152662
 20
8.54323871235257
 30
0.8962762038579075
  0
POINT
  5
221
330
17
100
AcDbEntity
  8
0
100
AcDbPoint
 10
3.84262342566988
 20
2.3355400181780506
 30
6.631221121465607
  0
POINT
  5
222
330
17
100
AcDbEntity
  8
0
100
AcDbPoint
 10
1.3309903588875638
 20
4.440430323438644
 30
4.178625683690111
  0
POINT
  5
223
330
17
100
AcDbEntity
  8
0
100
AcDbPoint
 10
1.0780822959520542
 20
3.8067640381286107
 30
7.627328129626156
  0
POINT
  5
224
330
17
100
AcDbEntity
  8
0
100
AcDbPoint
 10
3.4198656888891374
 20
8.333412861288418
 30
2.684435784989158
  0
POINT
  5
225
330
17
100
AcDbEntity
  8
0
100
AcDbPoint
 10
8.045808166051748
 20
9.53497603254395
 30
7.45004886648948
  0
POINT
  5
226
330
17
100
AcDbEntity
  8
0
100
AcDbPoint
 10
5.4420775765484874
 20
7.508994018630927
 30
0.16311497462999203
  0
POINT
  5
227
330
17
100
AcDbEntity
  8
0
100
AcDbPoint
 10
2.7601311169050966
 20
3.43963398247927
 30
6.020171466703909
  0
POINT
  5
228
330
17
100
AcDbEntity
  8
0
100
AcDbPoint
 10
5.730323580077339
 20
1.2839961450513315
 30
4.813563995778118
  0
POINT
  5
229
330
17
100
AcDbEntity
  8
0
100
AcDbPoint
 10
8.205149357793092
 20
3.4273292207721506
 30
3.379793808246437
  0
POINT
  5
22A
330
17
100
AcDbEntity
  8
0
100
AcDbPoint
 10
8.14592773419035
 20
8.859589737560272
 30
6.664467914625155
  0
POINT
  5
22B
330
17
100
AcDbEntity
  8
0
100
AcDbPoint
 10
4.755486492910981
 20
0.7250560354645763
 30
1.9924463518679925
  0
POINT
  5
22C
330
17
100
AcDbEntity
  8
0
100
AcDbPoint
 10
0.23826427519557103
 20
3.8813382332525057
 30
5.72711212405297
  0
POINT
  5
22D
330
17
100
AcDbEntity
  8
0
100
AcDbPoint
 10
2.3306172620894383
 20
1.8233806756900206
 30
0.18550302066096758
  0
POINT
  5
22E
330
17
100
AcDbEntity
  8
0
100
AcDbPoint
 10
3.2770505295304764
 20
6.154482445245481
 30
8.149799342915363
  0
POINT
  5
22F
330
17
100
AcDbEntity
  8
0
100
AcDbPoint
 10
3.5075041163791063
 20
5.315709754346818
 30
2.874847626782696
  0
POINT
  5
230
330
17
100
AcDbEntity
  8
0
100
AcDbPoint
 10
2.9114153097594264
 20
5.1217824061418185
 30
7.614725546420937
  0
POINT
  5
231
330
17
100
AcDbEntity
  8
0
100
AcDbPoint
 10
0.34274429408649
 20
5.891667872355923
 30
7.026037830833513
  0
POINT
  5
232
330
17
100
AcDbEntity
  8
0
100
AcDbPoint
 10
6.415301231429577
 20
4.340219108257263
 30
9.232486317527174
  0
POINT
  5
233
330
17
100
AcDbEntity
  8
0
100
AcDbPoint
 10
0.8303122582444689
 20
7.056649983708065
 30
0.964786824308248
  0
POINT
  5
234
330
17
100
AcDbEntity
  8
0
100
AcDbPoint
 10
7.795857805116721
 20
2.1064306792685183
 30
6.962415928840176
  0
POINT
  5
235
330
17
100
AcDbEntity
  8
0
100
AcDbPoint
 10
0.9039820657618258
 20
6.556922327650327
 30
4.123774948382902
  0
POINT
  5
236
330
17
100
AcDbEntity
  8
0
100
AcDbPoint
 10
6.53470902474168
 20
5.737538033626539
 30
1.7835836727881194
  0
POINT
  5
237
330
17
100
AcDbEntity
  8
0
100
AcDbPoint
 10
8.773189791555204
 20
3.7674144469497204
 30
0.6029194133641025
  0
POINT
  5
238
330
17
100
AcDbEntity
  8
0
100
AcDbPoint
 10
8.96509674141576
 20
9.769212176371205
 30
7.57500010004474
  0
POINT
  5
239
330
17
100
AcDbEntity
  8
0
100
AcDbPoint
 10
6.679609870327363
 20
5.8690184483203325
 30
9.194444455593878
  0
POINT
  5
23A
330
17
100
AcDbEntity
  8
0
100
AcDbPoint
 10
7.215674226743831
 20
6.164555505085605
 30
0.6384158984021315
  0
POINT
  5
23B
330
17
100
AcDbEntity
  8
0
100
AcDbPoint
 10
6.370774015578455
 20
7.894256106720019
 30
3.228201949760937
  0
POINT
  5
23C
330
17
100
AcDbEntity
  8
0
100
AcDbPoint
 10
8.70114791354673
 20
0.9851624572136497
 30
8.20466198022446
  0
POINT
  5
23D
330
17
100
AcDbEntity
  8
0
100
AcDbPoint
 10
7.032941414923982
 20
0.8196949456130753
 30
3.834343650645855
  0
POINT
  5
23E
330
17
100
AcDbEntity
  8
0
100
AcDbPoint
 10
4.724360280706618
 20
1.2646873402053638
 30
4.349703264857773
  0
POINT
  5
23F
330
17
100
AcDbEntity
  8
0
100
AcDbPoint
 10
8.708647712404888
 20
6.7968932970849565
 30
8.916367660439322
  0
POINT
  5
240
330
17
100
AcDbEntity
  8
0
100
AcDbPoint
 10
3.057622033671914
 20
9.566741404688091
 30
5.850763953797817
  0
POINT
  5
241
330
17
100
AcDbEntity
  8
0
100
AcDbPoint
 10
0.9681172105447189
 20
9.257351267620155
 30
3.3105451219004056
  0
POINT
  5
242
330
17
100
AcDbEntity
  8
0
100
AcDbPoint
 10
2.602403811801144
 20
1.44104950945389
 30
9.537852315815096
  0
POINT
  5
243
330
17
100
AcDbEntity
  8
0
100
AcDbPoint
 10
1.2233971123496823
 20
0.629005776679068
 30
0.7997085706169316
  0
POINT
  5
244
330
17
100
AcDbEntity
  8
0
100
AcDbPoint
 10
6.127517605879617
 20
7.472564402616136
 30
2.2846847579781118
  0
POINT
  5
245
330
17
100
AcDbEntity
  8
0
100
AcDbPoint
 10
6.962232905532709
 20
2.18902988128351
 30
6.622806236734544
  0
POINT
  5
246
330
17
100
AcDbEntity
  8
0
100
AcDbPoint
 10
3.4280035909339435
 20
0.5721951303564599
 30
3.2938123260062713
  0
POINT
  5
247
330
17
100
AcDbEntity
  8
0
100
AcDbPoint
 10
5.4130574704094006
 20
3.3516472004138986
 30
3.428432658924081
  0
POINT
  5
248
330
17
100
AcDbEntity
  8
0
100
AcDbPoint
 10
3.9394326208066452
 20
9.176715174444196
 30
1.7123933544597492
  0
POINT
  5
249
330
17
100
AcDbEntity
  8
0
100
AcDbPoint
 10
4.472275361440352
 20
5.7375629446095235
 30
9.906880633300117
  0
POINT
  5
24A
330
17
100
AcDbEntity
  8
0
100
AcDbPoint
 10
7.3926816690607025
 20
8.356328053507033
 30
2.195771538197193
  0
POINT
  5
24B
330
17
100
AcDbEntity
  8
0
100
AcDbPoint
 10
7.424210396461484
 20
0.13713624155257897
 30
1.2260281917877125
  0
POINT
  5
24C
330
17
100
AcDbEntity
  8
0
100
AcDbPoint
 10
6.177192804304297
 20
1.7115505407498088
 30
8.420479589427277
  0
POINT
  5
24D
330
17
100
AcDbEntity
  8
0
100
AcDbPoint
 10
3.1604878747314205
 20
1.2890213889484303
 30
2.3564072325536745
  0
POINT
  5
24E
330
17
100
AcDbEntity
  8
0
100
AcDbPoint
 10
7.493784366917073
 20
4.129720065062276
 30
2.9256507016914037
  0
POINT
  5
24F
330
17
100
AcDbEntity
  8
0
100
AcDbPoint
 10
0.021517064941966035
 20
6.612339091092844
 30
5.45688940831278
  0
POINT
  5
250
330
17
100
AcDbEntity
  8
0
100
AcDbPoint
 10
3.81457685633941
 20
5.526632475586189
 30
9.70902757211491
  0
POINT
  5
251
330
17
100
AcDbEntity
  8
0
100
AcDbPoint
 10
6.913016164665348
 20
7.602516867200916
 30
3.956043283555851
  0
POINT
  5
252
330
17
100
AcDbEntity
  8
0
100
AcDbPoint
 10
3.5881893513132335
 20
6.981377228165129
 30
8.295997953132764
  0
POINT
  5
253
330
17
100
AcDbEntity
  8
0
100
AcDbPoint
 10
7.053970201175492
 20
0.6613448660586807
 30
8.281007989525493
  0
POINT
  5
254
330
17
100
AcDbEntity
  8
0
100
AcDbPoint
 10
5.847184967969964
 20
6.341812531310485
 30
0.13269495244813911
  0
POINT
  5
255
330
17
100
AcDbEntity
  8
0
100
AcDbPoint
 10
8.740955506722294
 20
6.189727873563536
 30
7.420306425263817
  0
POINT
  5
256
330
17
100
AcDbEntity
  8
0
100
AcDbPoint
 10
8.730206673916546
 20
6.0403206670238605
 30
1.369462057586428
  0
POINT
  5
257
330
17
100
AcDbEntity
  8
0
100
AcDbPoint
 10
2.8701471615045007
 20
4.8316020980172825
 30
1.1694090294178472
  0
POINT
  5
258
330
17
100
AcDbEntity
  8
0
100
AcDbPoint
 10
7.85724201486926
 20
7.4366633082618
 30
9.222114334754902
  0
POINT
  5
259
330
17
100
AcDbEntity
  8
0
100
AcDbPoint
 10
6.4014326981770555
 20
8.26519120984066
 30
6.137031411576679
  0
POINT
  5
25A
330
17
100
AcDbEntity
  8
0
100
AcDbPoint
 10
5.047461826207195
 20
4.292942498980226
 30
7.024336181397734
  0
POINT
  5
25B
330
17
100
AcDbEntity
  8
0
100
AcDbPoint
 10
2.786234348353714
 20
9.821863362711314
 30
2.332721892001074
  0
POINT
  5
25C
330
17
100
AcDbEntity
  8
0
100
AcDbPoint
 10
5.485573522794619
 20
6.283779995610178
 30
1.6142110350418126
  0
POINT
  5
25D
330
17
100
AcDbEntity
  8
0
100
AcDbPoint
 10
3.4223337280464063
 20
1.5847909540776883
 30
3.88488976584377
  0
POINT
  5
25E
330
17
100
AcDbEntity
  8
0
100
AcDbPoint
 10
0.022293249355629374
 20
1.9671071029103893
 30
8.837542178449134
  0
POINT
  5
25F
330
17
100
AcDbEntity
  8
0
100
AcDbPoint
 10
9.66968811386322
 20
3.0157315285263375
 30
3.5857059445245487
  0
POINT
  5
260
330
17
100
AcDbEntity
  8
0
100
AcDbPoint
 10
9.310552196675207
 20
6.688388446369276
 30
7.27190554087076
  0
POINT
  5
261
330
17
100
AcDbEntity
  8
0
100
AcDbPoint
 10
7.885361287795875
 20
7.431763510760726
 30
4.28070189006314
  0
POINT
  5
262
330
17
100
AcDbEntity
  8
0
100
AcDbPoint
 10
0.5538985113489925
 20
2.8517776557222807
 30
6.031215440296148
  0
POINT
  5
263
330
17
100
AcDbEntity
  8
0
100
AcDbPoint
 10
2.5093918588138155
 20
9.569819303400397
 30
1.7955569467605503
  0
POINT
  5
264
330
17
100
AcDbEntity
  8
0
100
AcDbPoint
 10
8.158122245594392
 20
3.9708103197046754
 30
9.7171057635447
  0
POINT
  5
265
330
17
100
AcDbEntity
  8
0
100
AcDbPoint
 10
5.596575560647379
 20
5.114855217566781
 30
3.3173556568355735
  0
POINT
  5
266
330
17
100
AcDbEntity
  8
0
100
AcDbPoint
 10
1.1623934857744722
 20
0.14341879790997103
 30
5.704175922091125
  0
POINT
  5
267
330
17
100
AcDbEntity
  8
0
100
AcDbPoint
 10
1.464534680538112
 20
6.083294162034929
 30
0.2855187188151731
  0
POINT
  5
268
330
17
100
AcDbEntity
  8
0
100
AcDbPoint
 10
3.9332215169769738
 20
9.384538001024461
 30
9.75445190663842
  0
POINT
  5
269
330
17
100
AcDbEntity
  8
0
100
AcDbPoint
 10
4.8015764429306955
 20
5.519271533901383
 30
5.056660542926849
  0
POINT
  5
26A
330
17
100
AcDbEntity
  8
0
100
AcDbPoint
 10
8.265409904823194
 20
3.9729073077772514
 30
0.32274427506725156
  0
POINT
  5
26B
330
17
100
AcDbEntity
  8
0
100
AcDbPoint
 10
2.0469281370792447
 20
2.3876727380840523
 30
7.126386490916702
  0
POINT
  5
26C
330
17
100
AcDbEntity
  8
0
100
AcDbPoint
 10
4.615526843178342
 20
2.263414233117491
 30
8.536588543638487
  0
POINT
  5
26D
330
17
100
AcDbEntity
  8
0
100
AcDbPoint
 10
9.454273481935644
 20
8.06890941119142
 30
2.424524656033026
  0
POINT
  5
26E
330
17
100
AcDbEntity
  8
0
100
AcDbPoint
 10
9.129448952408234
 20
3.5796740595675414
 30
4.981124224802576
  0
POINT
  5
26F
330
17
100
AcDbEntity
  8
0
100
AcDbPoint
 10
4.920066205595481
 20
9.761610506526809
 30
5.831683775441591
  0
POINT
  5
270
330
17
100
AcDbEntity
  8
0
100
AcDbPoint
 10
3.3314326582328038
 20
5.716810240560893
 30
0.8913600384284615
  0
POINT
  5
271
330
17
100
AcDbEntity
  8
0
100
AcDbPoint
 10
4.311796501868508
 20
4.902373978971918
 30
9.966691335703716
  0
POINT
  5
272
330
17
100
AcDbEntity
  8
0
100
AcDbPoint
 10
8.023276147240434
 20
8.98218393477024
 30
4.855803344415261
  0
POINT
  5
273
330
17
100
AcDbEntity
  8
0
100
AcDbPoint
 10
4.623425699548935
 20
3.267600160895099
 30
5.79505355830512
  0
POINT
  5
274
330
17
100
AcDbEntity
  8
0
100
AcDbPoint
 10
1.0092919590946425
 20
2.3418969374080523
 30
5.52357454007444
  0
POINT
  5
275
330
17
100
AcDbEntity
  8
0
100
AcDbPoint
 10
9.340049411758622
 20
6.186312988404795
 30
2.273727226706014
  0
POINT
  5
276
330
17
100
AcDbEntity
  8
0
100
AcDbPoint
 10
5.91032680113609
 20
2.900554220282835
 30
4.893519357714312
  0
POINT
  5
277
330
17
100
AcDbEntity
  8
0
100
AcDbPoint
 10
7.201357526752805
 20
7.004162773281655
 30
8.60544636412752
  0
POINT
  5
278
330
17
100
AcDbEntity
  8
0
100
AcDbPoint
 10
5.533729825855785
 20
4.399611792601103
 30
7.885774977795904
  0
POINT
  5
279
330
17
100
AcDbEntity
  8
0
100
AcDbPoint
 10
5.35344870588907
 20
6.0832955600876115
 30
7.469782875161432
  0
POINT
  5
27A
330
17
100
AcDbEntity
  8
0
100
AcDbPoint
 10
5.943499444323405
 20
9.712848010812172
 30
2.56459578188542
  0
POINT
  5
27B
330
17
100
AcDbEntity
  8
0
100
AcDbPoint
 10
6.664311220075039
 20
0.49373070623102366
 30
4.276759282531924
  0
POINT
  5
27C
330
17
100
AcDbEntity
  8
0
100
AcDbPoint
 10
1.2894624067514326
 20
1.6549274515436996
 30
8.676489441268266
  0
POINT
  5
27D
330
17
100
AcDbEntity
  8
0
100
AcDbPoint
 10
1.520898014590617
 20
4.909147185232929
 30
3.2575280704543053
  0
POINT
  5
27E
330
17
100
AcDbEntity
  8
0
100
AcDbPoint
 10
1.907615866698562
 20
2.4393979889807706
 30
7.409809912764683
  0
POINT
  5
27F
330
17
100
AcDbEntity
  8
0
100
AcDbPoint
 10
6.5538481902933645
 20
4.043864581213674
 30
0.8894907980607647
  0
POINT
  5
280
330
17
100
AcDbEntity
  8
0
100
AcDbPoint
 10
4.772331512032542
 20
6.1033534480394955
 30
3.950720527408155
  0
POINT
  5
281
330
17
100
AcDbEntity
  8
0
100
AcDbPoint
 10
6.221576131099588
 20
0.017706186430151982
 30
5.114954865493483
  0
POINT
  5
282
330
17
100
AcDbEntity
  8
0
100
AcDbPoint
 10
4.678252888954471
 20
5.166728315304473
 30
7.485711342970259
  0
POINT
  5
283
330
17
100
AcDbEntity
  8
0
100
AcDbPoint
 10
8.921372932098514
 20
6.575019192796509
 30
9.493244840519383
  0
POINT
  5
284
330
17
100
AcDbEntity
  8
0
100
AcDbPoint
 10
3.228807818586783
 20
9.971633602126433
 30
3.3461271290119443
  0
POINT
  5
285
330
17
100
AcDbEntity
  8
0
100
AcDbPoint
 10
0.5501536324623002
 20
4.441322302459755
 30
9.884636442991056
  0
POINT
  5
286
330
17
100
AcDbEntity
  8
0
100
AcDbPoint
 10
1.685079320609525
 20
2.38351285185196
 30
5.674106520629517
  0
POINT
  5
287
330
17
100
AcDbEntity
  8
0
100
AcDbPoint
 10
2.330729896471395
 20
9.198501294113292
 30
0.33105217883067195
  0
POINT
  5
288
330
17
100
AcDbEntity
  8
0
100
AcDbPoint
 10
7.287654269842899
 20
7.45591090205401
 30
9.8053171836922
  0
POINT
  5
289
330
17
100
AcDbEntity
  8
0
100
AcDbPoint
 10
6.735926971993287
 20
2.9074459447149845
 30
1.637574047956567
  0
POINT
  5
28A
330
17
100
AcDbEntity
  8
0
100
AcDbPoint
 10
2.3312283669443126
 20
0.8845377799691567
 30
0.4182501364569069
  0
POINT
  5
28B
330
17
100
AcDbEntity
  8
0
100
AcDbPoint
 10
0.9830630497943449
 20
2.632435240719876
 30
4.999696668104744
  0
POINT
  5
28C
330
17
100
AcDbEntity
  8
0
100
AcDbPoint
 10
4.090080733319961
 20
0.46632814215671226
 30
9.923172067965588
  0
POINT
  5
28D
330
17
100
AcDbEntity
  8
0
100
AcDbPoint
 10
7.470164947133439
 20
6.13748262211322
 30
4.974270758588013
  0
POINT
  5
28E
330
17
100
AcDbEntity
  8
0
100
AcDbPoint
 10
2.096705628010028
 20
7.159425575203759
 30
9.936050621062169
  0
POINT
  5
28F
330
17
100
AcDbEntity
  8
0
100
AcDbPoint
 10
0.9526521510040342
 20
9.999826069353317
 30
4.0954166450220155
  0
POINT
  5
290
330
17
100
AcDbEntity
  8
0
100
AcDbPoint
 10
4.542168866010279
 20
8.922060665929862
 30
7.073813852354122
  0
POINT
  5
291
330
17
100
AcDbEntity
  8
0
100
AcDbPoint
 10
9.324177041172387
 20
4.418689713345799
 30
7.716995572346551
  0
POINT
  5
292
330
17
100
AcDbEntity
  8
0
100
AcDbPoint
 10
2.7728933419551396
 20
0.4354485309944345
 30
4.463644646380535
  0
POINT
  5
293
330
17
100
AcDbEntity
  8
0
100
AcDbPoint
 10
0.9673765572480542
 20
7.139072864604913
 30
0.7156852544953252
  0
POINT
  5
294
330
17
100
AcDbEntity
  8
0
100
AcDbPoint
 10
1.481268279893938
 20
9.99838868819386
 30
5.791044104646251
  0
POINT
  5
295
330
17
100
AcDbEntity
  8
0
100
AcDbPoint
 10
2.6045518152902147
 20
6.839243188355965
 30
3.2756250992076943
  0
POINT
  5
296
330
17
100
AcDbEntity
  8
0
100
AcDbPoint
 10
8.805901351537239
 20
4.002927950102492
 30
2.5425595129163083
  0
POINT
  5
297
330
17
100
AcDbEntity
  8
0
100
AcDbPoint
 10
5.27675018969393
 20
7.459707700395012
 30
8.866549794277685
  0
POINT
  5
298
330
17
100
AcDbEntity
  8
0
100
AcDbPoint
 10
1.8186048350998796
 20
3.7881052528981374
 30
3.345965695483991
  0
POINT
  5
299
330
17
100
AcDbEntity
  8
0
100
AcDbPoint
 10
5.842294900382891
 20
1.0427282895840173
 30
8.795940458010211
  0
POINT
  5
29A
330
17
100
AcDbEntity
  8
0
100
AcDbPoint
 10
9.464062183282296
 20
4.495300170140889
 30
5.652658624450733
  0
POINT
  5
29B
330
17
100
AcDbEntity
  8
0
100
AcDbPoint
 10
7.273143719735549
 20
3.4193134560975693
 30
1.3544633075814083
  0
POINT
  5
29C
330
17
100
AcDbEntity
  8
0
100
AcDbPoint
 10
1.9796228506641178
 20
2.2903707132288122
 30
5.351592385769138
  0
POINT
  5
29D
330
17
100
AcDbEntity
  8
0
100
AcDbPoint
 10
4.946201715674156
 20
8.014741582211027
 30
5.590511068308443
  0
POINT
  5
29E
330
17
100
AcDbEntity
  8
0
100
AcDbPoint
 10
3.9864845496177237
 20
9.24888455933123
 30
3.0496090777883356
  0
POINT
  5
29F
330
17
100
AcDbEntity
  8
0
100
AcDbPoint
 10
5.0617601803682035
 20
8.963588877408982
 30
5.794407318903552
  0
POINT
  5
2A0
330
17
100
AcDbEntity
  8
0
100
AcDbPoint
 10
4.3170622301717465
 20
3.924813429016516
 30
2.9753757507214984
  0
POINT
  5
2A1
330
17
100
AcDbEntity
  8
0
100
AcDbPoint
 10
7.090973618060231
 20
4.471666389379658
 30
1.5704059099540535
  0
POINT
  5
2A2
330
17
100
AcDbEntity
  8
0
100
AcDbPoint
 10
3.6955576442545004
 20
4.142853032982482
 30
8.25130471826926
  0
POINT
  5
2A3
330
17
100
AcDbEntity
  8
0
100
AcDbPoint
 10
5.16402722656609
 20
5.198253747616227
 30
0.9371381776076926
  0
POINT
  5
2A4
330
17
100
AcDbEntity
  8
0
100
AcDbPoint
 10
6.4003729374653675
 20
4.361074540063377
 30
8.39766881391721
  0
POINT
  5
2A5
330
17
100
AcDbEntity
  8
0
100
AcDbPoint
 10
7.964524345948147
 20
2.788926678000112
 30
1.7037945990824854
  0
POINT
  5
2A6
330
17
100
AcDbEntity
  8
0
100
AcDbPoint
 10
9.565046012387059
 20
8.674951264882388
 30
3.4129646835009533
  0
POINT
  5
2A7
330
17
100
AcDbEntity
  8
0
100
AcDbPoint
 10
5.280596947555152
 20
8.566004452131923
 30
3.8782653028337766
  0
POINT
  5
2A8
330
17
100
AcDbEntity
  8
0
100
AcDbPoint
 10
6.061763366068823
 20
3.9826053829793473
 30
5.219579066458671
  0
POINT
  5
2A9
330
17
100
AcDbEntity
  8
0
100
AcDbPoint
 10
7.24921116548236
 20
0.2624455642135526
 30
0.9442041065260554
  0
POINT
  5
2AA
330
17
100
AcDbEntity
  8
0
100
AcDbPoint
 10
2.146615899406672
 20
4.94636333003969
 30
2.010009728045674
  0
POINT
  5
2AB
330
17
100
AcDbEntity
  8
0
100
AcDbPoint
 10
4.616775063635302
 20
8.406575476480931
 30
3.376018918266243
  0
POINT
  5
2AC
330
17
100
AcDbEntity
  8
0
100
AcDbPoint
 10
4.841292788589699
 20
8.885392662013626
 30
9.366052866830154
  0
POINT
  5
2AD
330
17
100
AcDbEntity
  8
0
100
AcDbPoint
 10
3.0968691319974395
 20
8.924437255542774
 30
3.855770909969668
  0
POINT
  5
2AE
330
17
100
AcDbEntity
  8
0
100
AcDbPoint
 10
4.3305249829648655
 20
4.169199005239755
 30
2.8765455530370976
  0
POINT
  5
2AF
330
17
100
AcDbEntity
  8
0
100
AcDbPoint
 10
6.324920715049957
 20
8.437278971233143
 30
4.1641382688606985
  0
POINT
  5
2B0
330
17
100
AcDbEntity
  8
0
100
AcDbPoint
 10
5.280559043848358
 20
4.083892046079876
 30
5.09551251532306
  0
POINT
  5
2B1
330
17
100
AcDbEntity
  8
0
100
AcDbPoint
 10
4.453991938431214
 20
5.4059393989145255
 30
8.368264285965772
  0
POINT
  5
2B2
330
17
100
AcDbEntity
  8
0
100
AcDbPoint
 10
1.7753379744757314
 20
7.337208183679601
 30
5.715335014554811
  0
POINT
  5
2B3
330
17
100
AcDbEntity
  8
0
100
AcDbPoint
 10
1.6140788029611464
 20
3.858105409615471
 30
6.848537486901812
  0
POINT
  5
2B4
330
17
100
AcDbEntity
  8
0
100
AcDbPoint
 10
4.626305687692417
 20
7.411126136913358
 30
5.692741909822281
  0
POINT
  5
2B5
330
17
100
AcDbEntity
  8
0
100
AcDbPoint
 10
2.772573926623949
 20
1.3946144307627073
 30
1.026491922295668
  0
POINT
  5
2B6
330
17
100
AcDbEntity
  8
0
100
AcDbPoint
 10
6.677427743555844
 20
3.5255982359849316
 30
7.83749176941925
  0
POINT
  5
2B7
330
17
100
AcDbEntity
  8
0
100
AcDbPoint
 10
6.716309001806175
 20
4.8734647850935096
 30
4.2065871349322475
  0
POINT
  5
2B8
330
17
100
AcDbEntity
  8
0
100
AcDbPoint
 10
9.806917851591255
 20
7.126602648818142
 30
0.054482761501889465
  0
POINT
  5
2B9
330
17
100
AcDbEntity
  8
0
100
AcDbPoint
 10
5.312800669393477
 20
1.5504701535684107
 30
2.051473360307323
  0
POINT
  5
2BA
330
17
100
AcDbEntity
  8
0
100
AcDbPoint
 10
3.8015637462563987
 20
3.0281273778097018
 30
4.176634059841983
  0
POINT
  5
2BB
330
17
100
AcDbEntity
  8
0
100
AcDbPoint
 10
4.20419621654635
 20
2.833849927765847
 30
9.224569897852557
  0
POINT
  5
2BC
330
17
100
AcDbEntity
  8
0
100
AcDbPoint
 10
3.868535380740772
 20
1.6404897459829915
 30
1.1146797232707717
  0
POINT
  5
2BD
330
17
100
AcDbEntity
  8
0
100
AcDbPoint
 10
8.124243624543116
 20
3.0622139904831402
 30
5.158464440768508
  0
POINT
  5
2BE
330
17
100
AcDbEntity
  8
0
100
AcDbPoint
 10
9.185298768183435
 20
2.0943052140437093
 30
3.8012215121733526
  0
POINT
  5
2BF
330
17
100
AcDbEntity
  8
0
100
AcDbPoint
 10
3.102522474454057
 20
5.956689332474089
 30
2.578333687026646
  0
POINT
  5
2C0
330
17
100
AcDbEntity
  8
0
100
AcDbPoint
 10
9.27682922913681
 20
9.436813964840592
 30
7.340661291609829
  0
POINT
  5
2C1
330
17
100
AcDbEntity
  8
0
100
AcDbPoint
 10
6.315612755488584
 20
6.552944722646936
 30
3.6871620445250697
  0
POINT
  5
2C2
330
17
100
AcDbEntity
  8
0
100
AcDbPoint
 10
6.636490079480014
 20
4.696511797750795
 30
9.528015130724231
  0
POINT
  5
2C3
330
17
100
AcDbEntity
  8
0
100
AcDbPoint
 10
8.478387092796908
 20
4.746176004669783
 30
2.0715831102234827
  0
POINT
  5
2C4
330
17
100
AcDbEntity
  8
0
100
AcDbPoint
 10
8.223016788457132
 20
7.194143176280291
 30
4.268099493720832
  0
POINT
  5
2C5
330
17
100
AcDbEntity
  8
0
100
AcDbPoint
 10
6.697926227465343
 20
0.1386638530692652
 30
7.679495352266587
  0
POINT
  5
2C6
330
17
100
AcDbEntity
  8
0
100
AcDbPoint
 10
4.423479758353892
 20
3.9382004160657336
 30
7.903993057352045
  0
POINT
  5
2C7
330
17
100
AcDbEntity
  8
0
100
AcDbPoint
 10
9.75912093359016
 20
5.9949593686681935
 30
2.098511412935138
  0
POINT
  5
2C8
330
17
100
AcDbEntity
  8
0
100
AcDbPoint
 10
1.4307259890648971
 20
9.743409639527842
 30
3.8746807786172077
  0
POINT
  5
2C9
330
17
100
AcDbEntity
  8
0
100
AcDbPoint
 10
9.922446543700364
 20
3.314599510528009
 30
6.241886764586812
  0
POINT
  5
2CA
330
17
100
AcDbEntity
  8
0
100
AcDbPoint
 10
9.500271677613894
 20
5.832198341707744
 30
8.260112252289334
  0
POINT
  5
2CB
330
17
100
AcDbEntity
  8
0
100
AcDbPoint
 10
4.216246810179394
 20
9.550383279428216
 30
7.2843104245867485
  0
POINT
  5
2CC
330
17
100
AcDbEntity
  8
0
100
AcDbPoint
 10
0.8719241784333365
 20
0.9612658093781801
 30
1.5227596351042594
  0
POINT
  5
2CD
330
17
100
AcDbEntity
  8
0
100
AcDbPoint
 10
9.5913422855367
 20
1.3747371622934557
 30
5.706060609176351
  0
POINT
  5
2CE
330
17
100
AcDbEntity
  8
0
100
AcDbPoint
 10
0.848080814836677
 20
9.747140327237089
 30
9.931705288843974
  0
POINT
  5
2CF
330
17
100
AcDbEntity
  8
0
100
AcDbPoint
 10
4.0952326165355855
 20
3.2195543797651984
 30
9.02563941444198
  0
POINT
  5
2D0
330
17
100
AcDbEntity
  8
0
100
AcDbPoint
 10
3.4339445678053435
 20
4.582302343300474
 30
1.1788260300039166
  0
POINT
  5
2D1
330
17
100
AcDbEntity
  8
0
100
AcDbPoint
 10
6.320358740439257
 20
8.932144437622576
 30
1.4049707258332755
  0
POINT
  5
2D2
330
17
100
AcDbEntity
  8
0
100
AcDbPoint
 10
6.665317129755244
 20
3.742122321111437
 30
1.7915749288364302
  0
POINT
  5
2D3
330
17
100
AcDbEntity
  8
0
100
AcDbPoint
 10
5.384866093233639
 20
7.946302062129255
 30
4.894551455194849
  0
POINT
  5
2D4
330
17
100
AcDbEntity
  8
0
100
AcDbPoint
 10
3.8412146484989442
 20
7.608750072086924
 30
6.856625165625273
  0
POINT
  5
2D5
330
17
100
AcDbEntity
  8
0
100
AcDbPoint
 10
8.742354001128197
 20
0.12913739123475154
 30
8.412693707931156
  0
POINT
  5
2D6
330
17
100
AcDbEntity
  8
0
100
AcDbPoint
 10
0.6135354371579582
 20
6.958040120930215
 30
6.1419580810598084
  0
POINT
  5
2D7
330
17
100
AcDbEntity
  8
0
100
AcDbPoint
 10
1.3942619259199374
 20
0.09621967933623465
 30
3.4335535992672996
  0
POINT
  5
2D8
330
17
100
AcDbEntity
  8
0
100
AcDbPoint
 10
8.919738347584822
 20
7.058495452896437
 30
7.535482992573917
  0
POINT
  5
2D9
330
17
100
AcDbEntity
  8
0
100
AcDbPoint
 10
5.0103811595872845
 20
9.884913078954824
 30
7.131814288429029
  0
POINT
  5
2DA
330
17
100
AcDbEntity
  8
0
100
AcDbPoint
 10
0.17393813945915104
 20
4.369010833390787
 30
2.4634908313456174
  0
POINT
  5
2DB
330
17
100
AcDbEntity
  8
0
100
AcDbPoint
 10
7.853672373734778
 20
6.000388682301338
 30
1.5074714452568516
  0
POINT
  5
2DC
330
17
100
AcDbEntity
  8
0
100
AcDbPoint
 10
1.6813489622269495
 20
1.8573887566324099
 30
0.989417236433876
  0
POINT
  5
2DD
330
17
100
AcDbEntity
  8
0
100
AcDbPoint
 10
3.6072623336136567
 20
8.655209953653479
 30
8.648857032775428
  0
POINT
  5
2DE
330
17
100
AcDbEntity
  8
0
100
AcDbPoint
 10
7.312461426014637
 20
1.9938310855217478
 30
4.564526026475756
  0
POINT
  5
2DF
330
17
100
AcDbEntity
  8
0
100
AcDbPoint
 10
3.9209650832234813
 20
9.577715374495302
 30
7.810507349171801
  0
POINT
  5
2E0
330
17
100
AcDbEntity
  8
0
100
AcDbPoint
 10
6.509434362720722
 20
3.516078047691381
 30
7.734595102453455
  0
POINT
  5
2E1
330
17
100
AcDbEntity
  8
0
100
AcDbPoint
 10
2.5504516235361177
 20
9.950492873593388
 30
8.657114031749376
  0
POINT
  5
2E2
330
17
100
AcDbEntity
  8
0
100
AcDbPoint
 10
8.020707423132539
 20
5.491725143556487
 30
7.49549813006574
  0
POINT
  5
2E3
330
17
100
AcDbEntity
  8
0
100
AcDbPoint
 10
3.995184969312727
 20
6.8837830728825065
 30
0.09933833524364055
  0
POINT
  5
2E4
330
17
100
AcDbEntity
  8
0
100
AcDbPoint
 10
6.510071839225543
 20
2.1088273230502494
 30
2.176308632173493
  0
POINT
  5
2E5
330
17
100
AcDbEntity
  8
0
100
AcDbPoint
 10
8.968061283772842
 20
1.7410312759507562
 30
1.0417579503379037
  0
POINT
  5
2E6
330
17
100
AcDbEntity
  8
0
100
AcDbPoint
 10
1.8916723093807442
 20
5.4443431715604405
 30
8.139253383344332
  0
POINT
  5
2E7
330
17
100
AcDbEntity
  8
0
100
AcDbPoint
 10
4.1502683309786725
 20
4.865267957747495
 30
8.241671497996435
  0
POINT
  5
2E8
330
17
100
AcDbEntity
  8
0
100
AcDbPoint
 10
8.60198164370747
 20
4.9691882234645
 30
2.60925975913719
  0
POINT
  5
2E9
330
17
100
AcDbEntity
  8
0
100
AcDbPoint
 10
8.070619902489112
 20
5.89717467461448
 30
9.115924433339169
  0
POINT
  5
2EA
330
17
100
AcDbEntity
  8
0
100
AcDbPoint
 10
3.6305419341895373
 20
4.817192379644528
 30
6.596285280863553
  0
POINT
  5
2EB
330
17
100
AcDbEntity
  8
0
100
AcDbPoint
 10
1.715629679259807
 20
2.9772531840392933
 30
1.3693295260426308
  0
POINT
  5
2EC
330
17
100
AcDbEntity
  8
0
100
AcDbPoint
 10
2.071170274733091
 20
7.656204758445554
 30
7.202396207600925
  0
POINT
  5
2ED
330
17
100
AcDbEntity
  8
0
100
AcDbPoint
 10
0.5747065262719919
 20
8.369016868186263
 30
9.975063742659058
  0
POINT
  5
2EE
330
17
100
AcDbEntity
  8
0
100
AcDbPoint
 10
2.2344830397885995
 20
9.200849835456843
 30
7.08697315035406
  0
POINT
  5
2EF
330
17
100
AcDbEntity
  8
0
100
AcDbPoint
 10
6.196846030291122
 20
6.586427531305491
 30
0.6087114461590437
  0
POINT
  5
2F0
330
17
100
AcDbEntity
  8
0
100
AcDbPoint
 10
3.0243745070711303
 20
6.105772872763917
 30
0.5991631179488344
  0
POINT
  5
2F1
330
17
100
AcDbEntity
  8
0
100
AcDbPoint
 10
3.5450397054258866
 20
2.906865541738334
 30
7.981383871894234
  0
POINT
  5
2F2
330
17
100
AcDbEntity
  8
0
100
AcDbPoint
 10
8.566454686888395
 20
2.9828841711669787
 30
3.8738057413550697
  0
POINT
  5
2F3
330
17
100
AcDbEntity
  8
0
100
AcDbPoint
 10
0.4924552513282965
 20
5.148683777164475
 30
5.6765065853420795
  0
POINT
  5
2F4
330
17
100
AcDbEntity
  8
0
100
AcDbPoint
 10
1.7938760587047409
 20
6.03595675707696
 30
8.679684957952226
  0
POINT
  5
2F5
330
17
100
AcDbEntity
  8
0
100
AcDbPoint
 10
3.9037597854224595
 20
4.396794178195217
 30
8.438261520435244
  0
POINT
  5
2F6
330
17
100
AcDbEntity
  8
0
100
AcDbPoint
 10
1.5869525762253989
 20
9.175074659648931
 30
2.802026380564061
  0
POINT
  5
2F7
330
17
100
AcDbEntity
  8
0
100
AcDbPoint
 10
0.39147311141221386
 20
6.63480330928487
 30
9.693909527943914
  0
POINT
  5
2F8
330
17
100
AcDbEntity
  8
0
100
AcDbPoint
 10
6.248425027276126
 20
8.761789856563894
 30
3.212468885049989
  0
POINT
  5
2F9
330
17
100
AcDbEntity
  8
0
100
AcDbPoint
 10
2.714237313600345
 20
9.816112851359032
 30
7.629344284970047
  0
POINT
  5
2FA
330
17
100
AcDbEntity
  8
0
100
AcDbPoint
 10
5.514516708363763
 20
2.332178154752481
 30
6.345741525426823
  0
POINT
  5
2FB
330
17
100
AcDbEntity
  8
0
100
AcDbPoint
 10
7.529287399165208
 20
3.6970490310962614
 30
0.37564601087172633
  0
POINT
  5
2FC
330
17
100
AcDbEntity
  8
0
100
AcDbPoint
 10
3.315827447082432
 20
3.5452394826119416
 30
4.844677990162135
  0
POINT
  5
2FD
330
17
100
AcDbEntity
  8
0
100
AcDbPoint
 10
7.144267329117893
 20
4.82556478094066
 30
4.276586487482888
  0
POINT
  5
2FE
330
17
100
AcDbEntity
  8
0
100
AcDbPoint
 10
8.87926644156202
 20
9.060244528960302
 30
1.1033537792993942
  0
POINT
  5
2FF
330
17
100
AcDbEntity
  8
0
100
AcDbPoint
 10
4.6635720669468625
 20
7.406330286684368
 30
2.5854312936650703
  0
POINT
  5
300
330
17
100
AcDbEntity
  8
0
100
AcDbPoint
 10
8.689858707983417
 20
1.1382613612599946
 30
3.9527232318525174
  0
POINT
  5
301
330
17
100
AcDbEntity
  8
0
100
AcDbPoint
 10
3.3182300077809543
 20
8.932375164755888
 30
1.1870654570822436
  0
POINT
  5
302
330
17
100
AcDbEntity
  8
0
100
AcDbPoint
 10
3.1507613751973116
 20
7.099647663161344
 30
5.409037228288039
  0
POINT
  5
303
330
17
100
AcDbEntity
  8
0
100
AcDbPoint
 10
9.431123982726419
 20
4.081292704414263
 30
2.4919253220046143
  0
POINT
  5
304
330
17
100
AcDbEntity
  8
0
100
AcDbPoint
 10
9.73542148238696
 20
6.847281196348596
 30
7.108862299082846
  0
POINT
  5
305
330
17
100
AcDbEntity
  8
0
100
AcDbPoint
 10
5.361146874098709
 20
9.52931717489047
 30
4.482689382901065
  0
POINT
  5
306
330
17
100
AcDbEntity
  8
0
100
AcDbPoint
 10
2.7770265305724062
 20
2.196894525345207
 30
4.37286085448016
  0
POINT
  5
307
330
17
100
AcDbEntity
  8
0
100
AcDbPoint
 10
4.118940719368709
 20
5.344028932517109
 30
6.870346798180994
  0
POINT
  5
308
330
17
100
AcDbEntity
  8
0
100
AcDbPoint
 10
4.108540878257695
 20
2.9318786679486672
 30
2.055277466245493
  0
POINT
  5
309
330
17
100
AcDbEntity
  8
0
100
AcDbPoint
 10
2.2860386321578896
 20
0.5576346808988153
 30
3.3062779647772023
  0
POINT
  5
30A
330
17
100
AcDbEntity
  8
0
100
AcDbPoint
 10
3.802258255234159
 20
1.019754700307135
 30
1.982847725714677
  0
POINT
  5
30B
330
17
100
AcDbEntity
  8
0
100
AcDbPoint
 10
0.7680943828518116
 20
0.8300915222596483
 30
3.9956990423653957
  0
POINT
  5
30C
330
17
100
AcDbEntity
  8
0
100
AcDbPoint
 10
5.46059068950639
 20
1.6915454918913753
 30
1.25969492273161
  0
POINT
  5
30D
330
17
100
AcDbEntity
  8
0
100
AcDbPoint
 10
6.058352691038945
 20
1.8451878693007473
 30
2.0186889872523284
  0
POINT
  5
30E
330
17
100
AcDbEntity
  8
0
100
AcDbPoint
 10
6.631151718687631
 20
8.139611884395306
 30
2.3537058621558513
  0
POINT
  5
30F
330
17
100
AcDbEntity
  8
0
100
AcDbPoint
 10
7.195799004501176
 20
6.128485874265806
 30
8.471009713920902
  0
POINT
  5
310
330
17
100
AcDbEntity
  8
0
100
AcDbPoint
 10
6.809374098066636
 20
3.569644454589278
 30
1.8438116773832836
  0
POINT
  5
311
330
17
100
AcDbEntity
  8
0
100
AcDbPoint
 10
3.8794446036171393
 20
5.770283358677299
 30
3.3396824667219094
  0
POINT
  5
312
330
17
100
AcDbEntity
  8
0
100
AcDbPoint
 10
5.279397910926402
 20
1.8784602673108797
 30
7.520199568336546
  0
POINT
  5
313
330
17
100
AcDbEntity
  8
0
100
AcDbPoint
 10
2.1259928149429452
 20
1.410238467646029
 30
0.05553038567806423
  0
POINT
  5
314
330
17
100
AcDbEntity
  8
0
100
AcDbPoint
 10
6.810566982849638
 20
6.786884025837497
 30
8.975222660115143
  0
POINT
  5
315
330
17
100
AcDbEntity
  8
0
100
AcDbPoint
 10
7.15896064033992
 20
0.8460536119323814
 30
6.821608622501821
  0
POINT
  5
316
330
17
100
AcDbEntity
  8
0
100
AcDbPoint
 10
3.119004073578411
 20
5.154525267301684
 30
7.639538691946052
  0
POINT
  5
317
330
17
100
AcDbEntity
  8
0
100
AcDbPoint
 10
0.1594982038137871
 20
3.8530687813468267
 30
0.6352460469239107
  0
POINT
  5
318
330
17
100
AcDbEntity
  8
0
100
AcDbPoint
 10
6.635864634274904
 20
9.38128952668189
 30
4.12233275131633
  0
POINT
  5
319
330
17
100
AcDbEntity
  8
0
100
AcDbPoint
 10
0.7408958635029617
 20
8.622589754988567
 30
9.421189646922786
  0
POINT
  5
31A
330
17
100
AcDbEntity
  8
0
100
AcDbPoint
 10
5.173580189927777
 20
3.887614717945629
 30
6.202489673715627
  0
POINT
  5
31B
330
17
100
AcDbEntity
  8
0
100
AcDbPoint
 10
1.0631634476695206
 20
4.692030137776426
 30
0.01702826781037059
  0
POINT
  5
31C
330
17
100
AcDbEntity
  8
0
100
AcDbPoint
 10
9.505740154013099
 20
6.289014827958993
 30
8.1953800082119
  0
POINT
  5
31D
330
17
100
AcDbEntity
  8
0
100
AcDbPoint
 10
4.228806584688046
 20
9.066713306993737
 30
6.028384255999056
  0
POINT
  5
31E
330
17
100
AcDbEntity
  8
0
100
AcDbPoint
 10
4.199213864796034
 20
3.0495682693451274
 30
8.980308732732269
  0
POINT
  5
31F
330
17
100
AcDbEntity
  8
0
100
AcDbPoint
 10
8.466153137006135
 20
6.931360141935974
 30
9.26532159574803
  0
POINT
  5
320
330
17
100
AcDbEntity
  8
0
100
AcDbPoint
 10
2.1247951725146508
 20
8.331008377625691
 30
7.459136180291433
  0
POINT
  5
321
330
17
100
AcDbEntity
  8
0
100
AcDbPoint
 10
4.533379623341467
 20
5.1183178957459985
 30
4.477562873801312
  0
POINT
  5
322
330
17
100
AcDbEntity
  8
0
100
AcDbPoint
 10
1.8927839617036213
 20
0.7487722090292193
 30
3.8918852443304184
  0
POINT
  5
323
330
17
100
AcDbEntity
  8
0
100
AcDbPoint
 10
6.592735692867688
 20
5.326667073457537
 30
7.064881749626294
  0
POINT
  5
324
330
17
100
AcDbEntity
  8
0
100
AcDbPoint
 10
9.06512387433847
 20
3.931090234591741
 30
1.4328886636084248
  0
POINT
  5
325
330
17
100
AcDbEntity
  8
0
100
AcDbPoint
 10
0.9318358704692509
 20
2.7843187333965846
 30
8.959053377308884
  0
POINT
  5
326
330
17
100
AcDbEntity
  8
0
100
AcDbPoint
 10
6.300613732797955
 20
3.077677288567723
 30
0.9817554458872235
  0
POINT
  5
327
330
17
100
AcDbEntity
  8
0
100
AcDbPoint
 10
9.47726684257664
 20
8.35759511159283
 30
9.326990972875906
  0
POINT
  5
328
330
17
100
AcDbEntity
  8
0
100
AcDbPoint
 10
0.31539228974138744
 20
1.680517475343476
 30
9.699318725087931
  0
POINT
  5
329
330
17
100
AcDbEntity
  8
0
100
AcDbPoint
 10
7.343590659948802
 20
7.601097510736473
 30
3.588721847437167
  0
POINT
  5
32A
330
17
100
AcDbEntity
  8
0
100
AcDbPoint
 10
2.5779411020225718
 20
9.257244914300678
 30
9.592235677060437
  0
POINT
  5
32B
330
17
100
AcDbEntity
  8
0
100
AcDbPoint
 10
7.639107909656149
 20
7.480026994495633
 30
7.140718437104335
  0
POINT
  5
32C
330
17
100
AcDbEntity
  8
0
100
AcDbPoint
 10
0.9940293984343562
 20
3.9529690391506933
 30
7.681001036594677
  0
POINT
  5
32D
330
17
100
AcDbEntity
  8
0
100
AcDbPoint
 10
8.657577444200431
 20
5.8814322320397485
 30
7.387664460075296
  0
POINT
  5
32E
330
17
100
AcDbEntity
  8
0
100
AcDbPoint
 10
9.121769466603396
 20
3.2533135193418805
 30
1.2721778660647554
  0
POINT
  5
32F
330
17
100
AcDbEntity
  8
0
100
AcDbPoint
 10
5.311653274162692
 20
8.675300438665786
 30
9.24809597691316
  0
POINT
  5
330
330
17
100
AcDbEntity
  8
0
100
AcDbPoint
 10
4.242581349400493
 20
9.765474083286568
 30
3.1107125071201134
  0
POINT
  5
331
330
17
100
AcDbEntity
  8
0
100
AcDbPoint
 10
6.551074019299316
 20
0.29842554509521557
 30
5.016170247451806
  0
POINT
  5
332
330
17
100
AcDbEntity
  8
0
100
AcDbPoint
 10
3.357657132595971
 20
6.9872206647041635
 30
0.04937001241642314
  0
POINT
  5
333
330
17
100
AcDbEntity
  8
0
100
AcDbPoint
 10
4.07564701348336
 20
8.55755380567606
 30
4.390543435221666
  0
POINT
  5
334
330
17
100
AcDbEntity
  8
0
100
AcDbPoint
 10
8.463167997218786
 20
1.2223604785784659
 30
3.1233295209867498
  0
POINT
  5
335
330
17
100
AcDbEntity
  8
0
100
AcDbPoint
 10
3.969189342840335
 20
2.8982933141920397
 30
5.408558332132935
  0
POINT
  5
336
330
17
100
AcDbEntity
  8
0
100
AcDbPoint
 10
8.533856295531729
 20
2.5740639925700237
 30
6.54419278496205
  0
POINT
  5
337
330
17
100
AcDbEntity
  8
0
100
AcDbPoint
 10
6.702399648251662
 20
4.798291079577335
 30
8.043151678112919
  0
POINT
  5
338
330
17
100
AcDbEntity
  8
0
100
AcDbPoint
 10
7.124377208525683
 20
0.5444849822191233
 30
6.1629838864817685
  0
POINT
  5
339
330
17
100
AcDbEntity
  8
0
100
AcDbPoint
 10
8.614158259980274
 20
2.2046643993604533
 30
3.674652382077681
  0
POINT
  5
33A
330
17
100
AcDbEntity
  8
0
100
AcDbPoint
 10
8.734071024483974
 20
3.3167700199882235
 30
2.2605792401474245
  0
POINT
  5
33B
330
17
100
AcDbEntity
  8
0
100
AcDbPoint
 10
0.18948787807391287
 20
7.291432458890701
 30
0.965469029272592
  0
POINT
  5
33C
330
17
100
AcDbEntity
  8
0
100
AcDbPoint
 10
4.448247949275164
 20
3.2291609305832747
 30
3.252708161150074
  0
POINT
  5
33D
330
17
100
AcDbEntity
  8
0
100
AcDbPoint
 10
0.3927094051327895
 20
0.5436569265972124
 30
1.3093251694459729
  0
POINT
  5
33E
330
17
100
AcDbEntity
  8
0
100
AcDbPoint
 10
7.135422137945261
 20
0.7170889089534038
 30
9.652770862557448
  0
POINT
  5
33F
330
17
100
AcDbEntity
  8
0
100
AcDbPoint
 10
0.09538923404207922
 20
0.06601062746365405
 30
2.7519533316552334
  0
POINT
  5
340
330
17
100
AcDbEntity
  8
0
100
AcDbPoint
 10
5.508883028150141
 20
7.958770913240768
 30
7.3602185085459215
  0
POINT
  5
341
330
17
100
AcDbEntity
  8
0
100
AcDbPoint
 10
2.3993301985898507
 20
8.935603832553923
 30
2.6983783318271293
  0
POINT
  5
342
330
17
100
AcDbEntity
  8
0
100
AcDbPoint
 10
1.74111377866638
 20
3.3416955741647514
 30
3.311668233687425
  0
POINT
  5
343
330
17
100
AcDbEntity
  8
0
100
AcDbPoint
 10
1.4462065802877577
 20
2.90537046069286
 30
0.44404481936815454
  0
POINT
  5
344
330
17
100
AcDbEntity
  8
0
100
AcDbPoint
 10
2.6294083704147653
 20
8.23063898318705
 30
6.003890073207852
  0
POINT
  5
345
330
17
100
AcDbEntity
  8
0
100
AcDbPoint
 10
4.631989227997958
 20
7.871508910849255
 30
1.2180994941291123
  0
POINT
  5
346
330
17
100
AcDbEntity
  8
0
100
AcDbPoint
 10
5.870106635502388
 20
8.050333277698154
 30
8.776034186261288
  0
POINT
  5
347
330
17
100
AcDbEntity
  8
0
100
AcDbPoint
 10
9.005433312786419
 20
6.015412102336662
 30
3.459654114236803
  0
POINT
  5
348
330
17
100
AcDbEntity
  8
0
100
AcDbPoint
 10
4.148833885609181
 20
2.2186004413702642
 30
6.112861402714353
  0
POINT
  5
349
330
17
100
AcDbEntity
  8
0
100
AcDbPoint
 10
3.896194783786208
 20
8.270839262118018
 30
9.21844151017688
  0
POINT
  5
34A
330
17
100
AcDbEntity
  8
0
100
AcDbPoint
 10
8.756087315240734
 20
7.662248005567895
 30
0.8049755794467695
  0
POINT
  5
34B
330
17
100
AcDbEntity
  8
0
100
AcDbPoint
 10
7.216010103984174
 20
0.9260902586371322
 30
5.596228665572366
  0
POINT
  5
34C
330
17
100
AcDbEntity
  8
0
100
AcDbPoint
 10
4.700523768682165
 20
6.926763228828904
 30
2.153474231542037
  0
POINT
  5
34D
330
17
100
AcDbEntity
  8
0
100
AcDbPoint
 10
0.39625889695523164
 20
1.686552510083995
 30
1.7881725342830035
  0
POINT
  5
34E
330
17
100
AcDbEntity
  8
0
100
AcDbPoint
 10
7.910521744157255
 20
7.030232980235307
 30
4.34194567008309
  0
POINT
  5
34F
330
17
100
AcDbEntity
  8
0
100
AcDbPoint
 10
2.5674883264016044
 20
1.5113618808181484
 30
5.110121177303362
  0
POINT
  5
350
330
17
100
AcDbEntity
  8
0
100
AcDbPoint
 10
6.6178391232382605
 20
5.928291826506831
 30
2.6321182738506845
  0
POINT
  5
351
330
17
100
AcDbEntity
  8
0
100
AcDbPoint
 10
0.963429845806979
 20
1.407477186946563
 30
3.8543771512585714
  0
POINT
  5
352
330
17
100
AcDbEntity
  8
0
100
AcDbPoint
 10
1.5913324243963212
 20
0.8142816160451116
 30
8.372083258850063
  0
POINT
  5
353
330
17
100
AcDbEntity
  8
0
100
AcDbPoint
 10
3.1080001306311154
 20
9.521658103802082
 30
5.51823785663636
  0
POINT
  5
354
330
17
100
AcDbEntity
  8
0
100
AcDbPoint
 10
3.0708698915068777
 20
7.397959225693479
 30
9.200574651245338
  0
POINT
  5
355
330
17
100
AcDbEntity
  8
0
100
AcDbPoint
 10
9.334183014991925
 20
0.41528856731020247
 30
9.813587342488155
  0
POINT
  5
356
330
17
100
AcDbEntity
  8
0
100
AcDbPoint
 10
7.4142880192099705
 20
8.820317418696998
 30
7.813270620001336
  0
POINT
  5
357
330
17
100
AcDbEntity
  8
0
100
AcDbPoint
 10
1.9800689645389735
 20
5.589434604655523
 30
4.069931711105079
  0
POINT
  5
358
330
17
100
AcDbEntity
  8
0
100
AcDbPoint
 10
6.6591830588889405
 20
5.375926027785157
 30
5.17984396737687
  0
POINT
  5
359
330
17
100
AcDbEntity
  8
0
100
AcDbPoint
 10
9.194017386857261
 20
0.40652625305035106
 30
7.929434668011865
  0
POINT
  5
35A
330
17
100
AcDbEntity
  8
0
100
AcDbPoint
 10
0.7508120238670712
 20
7.941712214444731
 30
3.070469589070295
  0
POINT
  5
35B
330
17
100
AcDbEntity
  8
0
100
AcDbPoint
 10
7.974022844357515
 20
1.646302947954299
 30
4.96756255237543
  0
POINT
  5
35C
330
17
100
AcDbEntity
  8
0
100
AcDbPoint
 10
4.699298555009662
 20
3.6046078887831987
 30
5.078158872266593
  0
POINT
  5
35D
330
17
100
AcDbEntity
  8
0
100
AcDbPoint
 10
8.605013693397261
 20
4.28171325705482
 30
8.827817636516063
  0
POINT
  5
35E
330
17
100
AcDbEntity
  8
0
100
AcDbPoint
 10
8.770337943119978
 20
9.323661229343065
 30
8.22491610909356
  0
POINT
  5
35F
330
17
100
AcDbEntity
  8
0
100
AcDbPoint
 10
2.1604603369216813
 20
7.781468593043865
 30
1.759783733797995
  0
POINT
  5
360
330
17
100
AcDbEntity
  8
0
100
AcDbPoint
 10
5.17459773767021
 20
4.443168843641375
 30
6.123697780811578
  0
POINT
  5
361
330
17
100
AcDbEntity
  8
0
100
AcDbPoint
 10
1.1723902681106446
 20
0.07796125508183982
 30
3.3846998545775584
  0
POINT
  5
362
330
17
100
AcDbEntity
  8
0
100
AcDbPoint
 10
1.6227632334595354
 20
3.955099873690222
 30
2.3732188147987543
  0
POINT
  5
363
330
17
100
AcDbEntity
  8
0
100
AcDbPoint
 10
3.276300127021794
 20
5.024887635287982
 30
9.769630189688451
  0
POINT
  5
364
330
17
100
AcDbEntity
  8
0
100
AcDbPoint
 10
2.276123772588443
 20
8.381905354162617
 30
5.750142649032681
  0
POINT
  5
365
330
17
100
AcDbEntity
  8
0
100
AcDbPoint
 10
5.135900357627154
 20
1.4571007911403888
 30
6.126264028955668
  0
POINT
  5
366
330
17
100
AcDbEntity
  8
0
100
AcDbPoint
 10
0.5730314415437832
 20
3.407512382766406
 30
3.026679797986589
  0
POINT
  5
367
330
17
100
AcDbEntity
  8
0
100
AcDbPoint
 10
9.671846598747816
 20
2.4521948650223067
 30
4.729943744771914
  0
POINT
  5
368
330
17
100
AcDbEntity
  8
0
100
AcDbPoint
 10
2.8253448421512752
 20
1.9933432968297649
 30
3.0668537758599546
  0
POINT
  5
369
330
17
100
AcDbEntity
  8
0
100
AcDbPoint
 10
3.63610099973089
 20
4.51949367587738
 30
2.727406934278039
  0
POINT
  5
36A
330
17
100
AcDbEntity
  8
0
100
AcDbPoint
 10
2.3443828216952864
 20
9.034615459642609
 30
2.4087514185768666
  0
POINT
  5
36B
330
17
100
AcDbEntity
  8
0
100
AcDbPoint
 10
9.041814338862574
 20
7.846756926819618
 30
4.505489036527494
  0
POINT
  5
36C
330
17
100
AcDbEntity
  8
0
100
AcDbPoint
 10
3.8751200870721894
 20
2.7852279484383846
 30
9.301910665120666
  0
POINT
  5
36D
330
17
100
AcDbEntity
  8
0
100
AcDbPoint
 10
6.805630837908953
 20
4.211896689889492
 30
4.567101513741992
  0
POINT
  5
36E
330
17
100
AcDbEntity
  8
0
100
AcDbPoint
 10
2.0875533999520792
 20
8.070001361491068
 30
5.445683585307392
  0
POINT
  5
36F
330
17
100
AcDbEntity
  8
0
100
AcDbPoint
 10
8.377406568035514
 20
3.08171505277402
 30
9.08396814498657
  0
POINT
  5
370
330
17
100
AcDbEntity
  8
0
100
AcDbPoint
 10
1.5728730960250958
 20
9.885626595447604
 30
8.65605787771649
  0
POINT
  5
371
330
17
100
AcDbEntity
  8
0
100
AcDbPoint
 10
3.613384088719468
 20
3.9169492403738793
 30
6.864919060199788
  0
POINT
  5
372
330
17
100
AcDbEntity
  8
0
100
AcDbPoint
 10
9.128579283931849
 20
7.836960966818147
 30
7.054907910890292
  0
POINT
  5
373
330
17
100
AcDbEntity
  8
0
100
AcDbPoint
 10
1.9137770172034263
 20
7.064473059706737
 30
3.313671449381226
  0
POINT
  5
374
330
17
100
AcDbEntity
  8
0
100
AcDbPoint
 10
5.206785896910224
 20
4.952301836913085
 30
1.801467294092417
  0
POINT
  5
375
330
17
100
AcDbEntity
  8
0
100
AcDbPoint
 10
3.955048248899949
 20
7.9210755083641065
 30
3.4341081067083437
  0
POINT
  5
376
330
17
100
AcDbEntity
  8
0
100
AcDbPoint
 10
9.556544452549685
 20
9.832647945107343
 30
6.790212523039372
  0
POINT
  5
377
330
17
100
AcDbEntity
  8
0
100
AcDbPoint
 10
4.798299781037906
 20
5.587632828912142
 30
0.9841408622986436
  0
POINT
  5
378
330
17
100
AcDbEntity
  8
0
100
AcDbPoint
 10
2.7354018770621913
 20
4.387172063114534
 30
8.799182502560466
  0
POINT
  5
379
330
17
100
AcDbEntity
  8
0
100
AcDbPoint
 10
1.0745810910752063
 20
9.090183810583222
 30
6.4755920118093355
  0
POINT
  5
37A
330
17
100
AcDbEntity
  8
0
100
AcDbPoint
 10
6.730888112592349
 20
0.31623247679782196
 30
1.701859480967558
  0
POINT
  5
37B
330
17
100
AcDbEntity
  8
0
100
AcDbPoint
 10
5.217231435772616
 20
9.59756170759377
 30
2.3698912832201726
  0
POINT
  5
37C
330
17
100
AcDbEntity
  8
0
100
AcDbPoint
 10
5.7707624003698506
 20
3.9080566408772945
 30
7.935866642839922
  0
POINT
  5
37D
330
17
100
AcDbEntity
  8
0
100
AcDbPoint
 10
6.715948809987996
 20
0.28588276400209445
 30
0.7774388612999183
  0
POINT
  5
37E
330
17
100
AcDbEntity
  8
0
100
AcDbPoint
 10
9.861547086897001
 20
2.525821883816892
 30
8.467835274696363
  0
POINT
  5
37F
330
17
100
AcDbEntity
  8
0
100
AcDbPoint
 10
4.507348284867399
 20
6.001203443098774
 30
1.7940004117243447
  0
POINT
  5
380
330
17
100
AcDbEntity
  8
0
100
AcDbPoint
 10
1.6199888142292984
 20
1.9699005509693834
 30
7.309558439943334
  0
POINT
  5
381
330
17
100
AcDbEntity
  8
0
100
AcDbPoint
 10
3.6563261808518277
 20
5.112771010324664
 30
0.3467496186322361
  0
POINT
  5
382
330
17
100
AcDbEntity
  8
0
100
AcDbPoint
 10
8.327830079392092
 20
2.096734312252665
 30
2.5815407953053073
  0
POINT
  5
383
330
17
100
AcDbEntity
  8
0
100
AcDbPoint
 10
1.4109933881064807
 20
5.588441147192606
 30
4.743283130040126
  0
POINT
  5
384
330
17
100
AcDbEntity
  8
0
100
AcDbPoint
 10
2.9557231011077736
 20
8.95448540459062
 30
7.703474121883898
  0
POINT
  5
385
330
17
100
AcDbEntity
  8
0
100
AcDbPoint
 10
5.720517086726313
 20
4.925672181391398
 30
6.808511904885558
  0
POINT
  5
386
330
17
100
AcDbEntity
  8
0
100
AcDbPoint
 10
6.558644865318266
 20
7.530079916341723
 30
0.7922390220587527
  0
POINT
  5
387
330
17
100
AcDbEntity
  8
0
100
AcDbPoint
 10
6.610158220695846
 20
2.2432014391029798
 30
4.443157908802702
  0
POINT
  5
388
330
17
100
AcDbEntity
  8
0
100
AcDbPoint
 10
2.1230347216673673
 20
8.394329139035673
 30
7.37815083677325
  0
POINT
  5
389
330
17
100
AcDbEntity
  8
0
100
AcDbPoint
 10
2.516274376249008
 20
2.133695102262798
 30
1.990697353868941
  0
POINT
  5
38A
330
17
100
AcDbEntity
  8
0
100
AcDbPoint
 10
4.521333527056443
 20
2.411831288733893
 30
1.3682333092869003
  0
POINT
  5
38B
330
17
100
AcDbEntity
  8
0
100
AcDbPoint
 10
8.609750859350335
 20
2.8158509335110162
 30
7.593071403091232
  0
POINT
  5
38C
330
17
100
AcDbEntity
  8
0
100
AcDbPoint
 10
4.150843213995435
 20
8.803466543933233
 30
6.502150049410854
  0
POINT
  5
38D
330
17
100
AcDbEntity
  8
0
100
AcDbPoint
 10
2.5023056873725458
 20
4.147296740677756
 30
1.6717050033180425
  0
POINT
  5
38E
330
17
100
AcDbEntity
  8
0
100
AcDbPoint
 10
0.40137776548309634
 20
1.326094994449274
 30
7.6732408892505966
  0
POINT
  5
38F
330
17
100
AcDbEntity
  8
0
100
AcDbPoint
 10
8.241980689615554
 20
9.108911694232143
 30
7.298864902037766
  0
POINT
  5
390
330
17
100
AcDbEntity
  8
0
100
AcDbPoint
 10
5.645113028993159
 20
0.34294710916547455
 30
1.3779151651337995
  0
POINT
  5
391
330
17
100
AcDbEntity
  8
0
100
AcDbPoint
 10
3.3645400111535406
 20
6.724212193606405
 30
8.832849942247353
  0
POINT
  5
392
330
17
100
AcDbEntity
  8
0
100
AcDbPoint
 10
7.349891264758812
 20
4.302756853398434
 30
8.200096609551183
  0
POINT
  5
393
330
17
100
AcDbEntity
  8
0
100
AcDbPoint
 10
8.662830892565058
 20
9.898542439551989
 30
8.330945118777942
  0
POINT
  5
394
330
17
100
AcDbEntity
  8
0
100
AcDbPoint
 10
3.0455273142236017
 20
5.372110649840628
 30
8.834354345454337
  0
POINT
  5
395
330
17
100
AcDbEntity
  8
0
100
AcDbPoint
 10
8.134420459854487
 20
8.046561292573855
 30
9.616858807550804
  0
POINT
  5
396
330
17
100
AcDbEntity
  8
0
100
AcDbPoint
 10
4.160633723045153
 20
9.632985268851888
 30
7.6743743049447
  0
POINT
  5
397
330
17
100
AcDbEntity
  8
0
100
AcDbPoint
 10
3.614049744523602
 20
1.9737066904797218
 30
7.111891452145174
  0
POINT
  5
398
330
17
100
AcDbEntity
  8
0
100
AcDbPoint
 10
7.052001805129869
 20
9.012318127438654
 30
7.898432676817891
  0
POINT
  5
399
330
17
100
AcDbEntity
  8
0
100
AcDbPoint
 10
7.080025227257012
 20
0.17960803192497599
 30
6.44772366488803
  0
POINT
  5
39A
330
17
100
AcDbEntity
  8
0
100
AcDbPoint
 10
6.818258049567526
 20
3.1972102126355093
 30
1.474723624271177
  0
POINT
  5
39B
330
17
100
AcDbEntity
  8
0
100
AcDbPoint
 10
3.7006011590459
 20
6.165079258957276
 30
3.9254919705379763
  0
POINT
  5
39C
330
17
100
AcDbEntity
  8
0
100
AcDbPoint
 10
4.679860294818465
 20
1.9380801575708007
 30
4.600038354225776
  0
POINT
  5
39D
330
17
100
AcDbEntity
  8
0
100
AcDbPoint
 10
1.55194552445862
 20
8.656382949369695
 30
7.784676708631983
  0
POINT
  5
39E
330
17
100
AcDbEntity
  8
0
100
AcDbPoint
 10
3.4298433775488943
 20
5.979399126761783
 30
7.699145889185921
  0
POINT
  5
39F
330
17
100
AcDbEntity
  8
0
100
AcDbPoint
 10
8.302508667799607
 20
0.3854357715540446
 30
8.504066541106175
  0
POINT
  5
3A0
330
17
100
AcDbEntity
  8
0
100
AcDbPoint
 10
0.8324919534503827
 20
8.880089391844287
 30
7.428070296438935
  0
POINT
  5
3A1
330
17
100
AcDbEntity
  8
0
100
AcDbPoint
 10
5.006021184467759
 20
3.4012271564799033
 30
4.250923413349601
  0
POINT
  5
3A2
330
17
100
AcDbEntity
  8
0
100
AcDbPoint
 10
8.857936337060293
 20
4.384986701049884
 30
0.7948402359836915
  0
POINT
  5
3A3
330
17
100
AcDbEntity
  8
0
100
AcDbPoint
 10
1.2697165650360354
 20
0.897339168802106
 30
5.734892512039123
  0
POINT
  5
3A4
330
17
100
AcDbEntity
  8
0
100
AcDbPoint
 10
8.451694031311069
 20
9.474988378791902
 30
4.262641758814469
  0
POINT
  5
3A5
330
17
100
AcDbEntity
  8
0
100
AcDbPoint
 10
7.419029746032808
 20
0.6259473423041384
 30
8.431511595226201
  0
POINT
  5
3A6
330
17
100
AcDbEntity
  8
0
100
AcDbPoint
 10
7.096230160166889
 20
2.125328885944724
 30
7.9042953261418
  0
POINT
  5
3A7
330
17
100
AcDbEntity
  8
0
100
AcDbPoint
 10
6.055245669641829
 20
3.745758940074068
 30
7.614318036415422
  0
POINT
  5
3A8
330
17
100
AcDbEntity
  8
0
100
AcDbPoint
 10
7.265428116588765
 20
8.267250764875334
 30
2.208578264760166
  0
POINT
  5
3A9
330
17
100
AcDbEntity
  8
0
100
AcDbPoint
 10
2.1189988137729046
 20
6.703856604945474
 30
9.654726439655075
  0
POINT
  5
3AA
330
17
100
AcDbEntity
  8
0
100
AcDbPoint
 10
2.5490362975284664
 20
9.387853491281103
 30
0.9155220724044477
  0
POINT
  5
3AB
330
17
100
AcDbEntity
  8
0
100
AcDbPoint
 10
3.303610865222577
 20
0.055348711087109814
 30
0.1236337913710095
  0
POINT
  5
3AC
330
17
100
AcDbEntity
  8
0
100
AcDbPoint
 10
5.768588613362999
 20
9.89312258687334
 30
6.202987292357333
  0
POINT
  5
3AD
330
17
100
AcDbEntity
  8
0
100
AcDbPoint
 10
3.027893586102308
 20
3.990578064491601
 30
4.847002415686066
  0
POINT
  5
3AE
330
17
100
AcDbEntity
  8
0
100
AcDbPoint
 10
9.93228811653341
 20
9.65992560700238
 30
0.6984411407659863
  0
POINT
  5
3AF
330
17
100
AcDbEntity
  8
0
100
AcDbPoint
 10
1.120341052052034
 20
9.42918178508827
 30
9.128715822951262
  0
POINT
  5
3B0
330
17
100
AcDbEntity
  8
0
100
AcDbPoint
 10
3.905029176539123
 20
9.428327896188643
 30
7.814680650880026
  0
POINT
  5
3B1
330
17
100
AcDbEntity
  8
0
100
AcDbPoint
 10
5.873497655616471
 20
6.5107020472693975
 30
5.386187458010631
  0
POINT
  5
3B2
330
17
100
AcDbEntity
  8
0
100
AcDbPoint
 10
8.964266002041407
 20
1.724304534168658
 30
2.9669127602911747
  0
POINT
  5
3B3
330
17
100
AcDbEntity
  8
0
100
AcDbPoint
 10
2.628987218462294
 20
6.034411836193511
 30
8.368429727099677
  0
POINT
  5
3B4
330
17
100
AcDbEntity
  8
0
100
AcDbPoint
 10
3.8176521782703476
 20
0.9751563253732254
 30
7.208702088872635
  0
POINT
  5
3B5
330
17
100
AcDbEntity
  8
0
100
AcDbPoint
 10
2.265268883951632
 20
7.419080472870463
 30
7.159425547063856
  0
POINT
  5
3B6
330
17
100
AcDbEntity
  8
0
100
AcDbPoint
 10
8.728833499970465
 20
4.131766280835823
 30
5.18595442091157
  0
POINT
  5
3B7
330
17
100
AcDbEntity
  8
0
100
AcDbPoint
 10
4.000196208045315
 20
2.513437722087506
 30
3.2350309196103346
  0
POINT
  5
3B8
330
17
100
AcDbEntity
  8
0
100
AcDbPoint
 10
3.6483905781909565
 20
7.518058111654227
 30
5.913356064248509
  0
POINT
  5
3B9
330
17
100
AcDbEntity
  8
0
100
AcDbPoint
 10
5.531737548671249
 20
9.185193054254189
 30
4.9379160533526445
  0
POINT
  5
3BA
330
17
100
AcDbEntity
  8
0
100
AcDbPoint
 10
7.690297967511322
 20
1.3042414616539444
 30
5.603835179228634
  0
POINT
  5
3BB
330
17
100
AcDbEntity
  8
0
100
AcDbPoint
 10
5.271654476743882
 20
0.4329721598306313
 30
0.8400774172524139
  0
POINT
  5
3BC
330
17
100
AcDbEntity
  8
0
100
AcDbPoint
 10
8.165329783401141
 20
5.935774121482612
 30
5.47386357311884
  0
POINT
  5
3BD
330
17
100
AcDbEntity
  8
0
100
AcDbPoint
 10
0.8371829237717676
 20
4.214320134162701
 30
5.793520970531731
  0
POINT
  5
3BE
330
17
100
AcDbEntity
  8
0
100
AcDbPoint
 10
3.2324669178125087
 20
6.3596354967132465
 30
4.407924416503876
  0
POINT
  5
3BF
330
17
100
AcDbEntity
  8
0
100
AcDbPoint
 10
5.0358334598666215
 20
3.6526778216338207
 30
1.0293062890324978
  0
POINT
  5
3C0
330
17
100
AcDbEntity
  8
0
100
AcDbPoint
 10
7.300054056882612
 20
4.734375345185818
 30
7.9507132635624025
  0
POINT
  5
3C1
330
17
100
AcDbEntity
  8
0
100
AcDbPoint
 10
7.852217579621561
 20
1.9001285802491397
 30
3.8540949424978397
  0
POINT
  5
3C2
330
17
100
AcDbEntity
  8
0
100
AcDbPoint
 10
1.9788189041524595
 20
4.9762718530262955
 30
9.463242095547551
  0
POINT
  5
3C3
330
17
100
AcDbEntity
  8
0
100
AcDbPoint
 10
6.517833738756542
 20
5.200950801026519
 30
1.6310053116663759
  0
POINT
  5
3C4
330
17
100
AcDbEntity
  8
0
100
AcDbPoint
 10
1.067010881051037
 20
4.958800397074584
 30
7.420439273134126
  0
POINT
  5
3C5
330
17
100
AcDbEntity
  8
0
100
AcDbPoint
 10
3.473154528335275
 20
5.017068567447765
 30
1.2290860278424554
  0
POINT
  5
3C6
330
17
100
AcDbEntity
  8
0
100
AcDbPoint
 10
8.58049788960734
 20
4.350397379281179
 30
7.986108584279234
  0
POINT
  5
3C7
330
17
100
AcDbEntity
  8
0
100
AcDbPoint
 10
3.6172638620021225
 20
1.7229553059968616
 30
9.815850154836962
  0
POINT
  5
3C8
330
17
100
AcDbEntity
  8
0
100
AcDbPoint
 10
9.587620709045389
 20
9.146987251072437
 30
5.499291628785727
  0
POINT
  5
3C9
330
17
100
AcDbEntity
  8
0
100
AcDbPoint
 10
3.733898569834182
 20
2.046125238850387
 30
6.145876479881018
  0
POINT
  5
3CA
330
17
100
AcDbEntity
  8
0
100
AcDbPoint
 10
1.7937329019846804
 20
2.0618383574034227
 30
8.681387010445928
  0
POINT
  5
3CB
330
17
100
AcDbEntity
  8
0
100
AcDbPoint
 10
2.3555723798569685
 20
2.751660686364602
 30
9.325044657092118
  0
POINT
  5
3CC
330
17
100
AcDbEntity
  8
0
100
AcDbPoint
 10
1.3694590605170598
 20
5.966872444995066
 30
9.68826793426148
  0
POINT
  5
3CD
330
17
100
AcDbEntity
  8
0
100
AcDbPoint
 10
3.0775613361226464
 20
9.41079390114232
 30
4.749900657125262
  0
POINT
  5
3CE
330
17
100
AcDbEntity
  8
0
100
AcDbPoint
 10
5.872246510357275
 20
4.711994484682236
 30
7.908433929020868
  0
POINT
  5
3CF
330
17
100
AcDbEntity
  8
0
100
AcDbPoint
 10
7.600818859718287
 20
6.763208371855774
 30
6.094090229426342
  0
POINT
  5
3D0
330
17
100
AcDbEntity
  8
0
100
AcDbPoint
 10
4.806912256907784
 20
5.8206208244631386
 30
2.8614090420576432
  0
POINT
  5
3D1
330
17
100
AcDbEntity
  8
0
100
AcDbPoint
 10
2.921480275533547
 20
2.408717310512695
 30
5.7534027148541504
  0
POINT
  5
3D2
330
17
100
AcDbEntity
  8
0
100
AcDbPoint
 10
7.282320741578508
 20
9.522672426725986
 30
0.8618686441691026
  0
POINT
  5
3D3
330
17
100
AcDbEntity
  8
0
100
AcDbPoint
 10
8.53331594489111
 20
5.326080970632081
 30
4.052752415494857
  0
POINT
  5
3D4
330
17
100
AcDbEntity
  8
0
100
AcDbPoint
 10
3.334496863982359
 20
8.234830540840845
 30
1.7903165583195724
  0
POINT
  5
3D5
330
17
100
AcDbEntity
  8
0
100
AcDbPoint
 10
5.360501970619201
 20
1.1129111123137736
 30
9.903225597848358
  0
POINT
  5
3D6
330
17
100
AcDbEntity
  8
0
100
AcDbPoint
 10
9.152442151792338
 20
0.028519498621140116
 30
3.724335403356247
  0
POINT
  5
3D7
330
17
100
AcDbEntity
  8
0
100
AcDbPoint
 10
3.189852502136512
 20
3.4213933563205137
 30
6.392843677967292
  0
POINT
  5
3D8
330
17
100
AcDbEntity
  8
0
100
AcDbPoint
 10
1.051761732214136
 20
8.878021183536262
 30
2.5915410055658117
  0
POINT
  5
3D9
330
17
100
AcDbEntity
  8
0
100
AcDbPoint
 10
4.3523868490724755
 20
7.61212009670642
 30
9.58523066504791
  0
POINT
  5
3DA
330
17
100
AcDbEntity
  8
0
100
AcDbPoint
 10
2.015365619015257
 20
8.387623718603416
 30
5.712856117831718
  0
POINT
  5
3DB
330
17
100
AcDbEntity
  8
0
100
AcDbPoint
 10
0.4038247616579371
 20
1.2032599890339168
 30
8.97166444047115
  0
POINT
  5
3DC
330
17
100
AcDbEntity
  8
0
100
AcDbPoint
 10
0.7537054960215583
 20
4.287489014687768
 30
9.581364529555447
  0
POINT
  5
3DD
330
17
100
AcDbEntity
  8
0
100
AcDbPoint
 10
4.38499733949873
 20
2.756227584432991
 30
6.455196533879858
  0
POINT
  5
3DE
330
17
100
AcDbEntity
  8
0
100
AcDbPoint
 10
1.9560545575741228
 20
4.244695816985654
 30
8.591954827530309
  0
POINT
  5
3DF
330
17
100
AcDbEntity
  8
0
100
AcDbPoint
 10
9.136755864055603
 20
1.8397467395879141
 30
8.521334620497537
  0
POINT
  5
3E0
330
17
100
AcDbEntity
  8
0
100
AcDbPoint
 10
4.742778841597596
 20
1.903203507436887
 30
2.9491485304446408
  0
POINT
  5
3E1
330
17
100
AcDbEntity
  8
0
100
AcDbPoint
 10
6.382014333494803
 20
1.1150854658106024
 30
3.1875854511144497
  0
POINT
  5
3E2
330
17
100
AcDbEntity
  8
0
100
AcDbPoint
 10
4.868111867229188
 20
7.955135934712424
 30
9.429757205980922
  0
POINT
  5
3E3
330
17
100
AcDbEntity
  8
0
100
AcDbPoint
 10
6.893664925779452
 20
7.370043414826063
 30
7.133496997196534
  0
POINT
  5
3E4
330
17
100
AcDbEntity
  8
0
100
AcDbPoint
 10
0.10492902341105226
 20
9.254299829992805
 30
2.8938263976554657
  0
POINT
  5
3E5
330
17
100
AcDbEntity
  8
0
100
AcDbPoint
 10
7.1077037028658285
 20
7.758460872788344
 30
6.367046206831125
  0
POINT
  5
3E6
330
17
100
AcDbEntity
  8
0
100
AcDbPoint
 10
6.738878345012428
 20
1.4328214769448067
 30
1.8292391571568956
  0
POINT
  5
3E7
330
17
100
AcDbEntity
  8
0
100
AcDbPoint
 10
6.894110444946799
 20
5.886403426707799
 30
1.4299783723775317
  0
POINT
  5
3E8
330
17
100
AcDbEntity
  8
0
100
AcDbPoint
 10
3.0210304950397573
 20
8.386671794601853
 30
3.382476193081084
  0
POINT
  5
3E9
330
17
100
AcDbEntity
  8
0
100
AcDbPoint
 10
7.3960388071938175
 20
1.3270418933013373
 30
9.281508759546584
  0
POINT
  5
3EA
330
17
100
AcDbEntity
  8
0
100
AcDbPoint
 10
1.3615462955592716
 20
1.1777211314330138
 30
1.7762833581781334
  0
POINT
  5
3EB
330
17
100
AcDbEntity
  8
0
100
AcDbPoint
 10
5.014142346343915
 20
3.02116525790444
 30
1.3844528306659243
  0
POINT
  5
3EC
330
17
100
AcDbEntity
  8
0
100
AcDbPoint
 10
7.550451342584889
 20
8.04341364900223
 30
6.7447789270116365
  0
POINT
  5
3ED
330
17
100
AcDbEntity
  8
0
100
AcDbPoint
 10
6.58142582840533
 20
7.809148730475236
 30
3.0329520110801402
  0
POINT
  5
3EE
330
17
100
AcDbEntity
  8
0
100
AcDbPoint
 10
1.053396811256908
 20
7.214847456306812
 30
5.356212891787183
  0
POINT
  5
3EF
330
17
100
AcDbEntity
  8
0
100
AcDbPoint
 10
3.6655054978124135
 20
1.4569537640776498
 30
9.686662651954862
  0
POINT
  5
3F0
330
17
100
AcDbEntity
  8
0
100
AcDbPoint
 10
7.124339221641361
 20
7.805407347069329
 30
0.5215971926084695
  0
POINT
  5
3F1
330
17
100
AcDbEntity
  8
0
100
AcDbPoint
 10
7.347653265420289
 20
5.5695120786095655
 30
7.044327434867155
  0
POINT
  5
3F2
330
17
100
AcDbEntity
  8
0
100
AcDbPoint
 10
0.822029538413247
 20
7.773039895240958
 30
6.5386448666482275
  0
POINT
  5
3F3
330
17
100
AcDbEntity
  8
0
100
AcDbPoint
 10
1.0028552789903733
 20
8.377677682876092
 30
1.3222989562628296
  0
POINT
  5
3F4
330
17
100
AcDbEntity
  8
0
100
AcDbPoint
 10
1.577967611154063
 20
2.2744430341985433
 30
4.407878269563604
  0
POINT
  5
3F5
330
17
100
AcDbEntity
  8
0
100
AcDbPoint
 10
6.574821447355658
 20
6.443548067718061
 30
4.621601132190954
  0
POINT
  5
3F6
330
17
100
AcDbEntity
  8
0
100
AcDbPoint
 10
7.925011174397159
 20
5.453700572194321
 30
2.4058942289853533
  0
POINT
  5
3F7
330
17
100
AcDbEntity
  8
0
100
AcDbPoint
 10
5.985876394361984
 20
0.2615228864860586
 30
2.7900386536481747
  0
POINT
  5
3F8
330
17
100
AcDbEntity
  8
0
100
AcDbPoint
 10
6.2620294734908475
 20
8.935804411411697
 30
7.121447081273359
  0
POINT
  5
3F9
330
17
100
AcDbEntity
  8
0
100
AcDbPoint
 10
5.866261227344641
 20
3.9846836935658025
 30
5.692029968569125
  0
POINT
  5
3FA
330
17
100
AcDbEntity
  8
0
100
AcDbPoint
 10
8.530787001317591
 20
0.6074096646496363
 30
2.267173767423092
  0
POINT
  5
3FB
330
17
100
AcDbEntity
  8
0
100
AcDbPoint
 10
5.222821021606809
 20
2.65466646994857
 30
6.546101897357107
  0
POINT
  5
3FC
330
17
100
AcDbEntity
  8
0
100
AcDbPoint
 10
5.244740021600295
 20
9.622237400774553
 30
7.113540985047637
  0
POINT
  5
3FD
330
17
100
AcDbEntity
  8
0
100
AcDbPoint
 10
4.973679450821912
 20
1.45692953292767
 30
2.0175693976706577
  0
POINT
  5
3FE
330
17
100
AcDbEntity
  8
0
100
AcDbPoint
 10
9.07900417384497
 20
5.556963923123318
 30
3.1036879840276663
  0
POINT
  5
3FF
330
17
100
AcDbEntity
  8
0
100
AcDbPoint
 10
2.2935471970610566
 20
8.771530628284573
 30
6.393541144220989
  0
POINT
  5
400
330
17
100
AcDbEntity
  8
0
100
AcDbPoint
 10
3.3039171020871407
 20
9.77160582546401
 30
1.046666217644785
  0
POINT
  5
401
330
17
100
AcDbEntity
  8
0
100
AcDbPoint
 10
6.778388230686389
 20
6.243667336187157
 30
8.21947833001465
  0
POINT
  5
402
330
17
100
AcDbEntity
  8
0
100
AcDbPoint
 10
1.3400170036059544
 20
6.963281696444005
 30
6.556940113205197
  0
POINT
  5
403
330
17
100
AcDbEntity
  8
0
100
AcDbPoint
 10
2.462601639134422
 20
1.6536653437655313
 30
1.3318753191760302
  0
POINT
  5
404
330
17
100
AcDbEntity
  8
0
100
AcDbPoint
 10
4.446004963845775
 20
9.497809855916358
 30
5.199359747957091
  0
POINT
  5
405
330
17
100
AcDbEntity
  8
0
100
AcDbPoint
 10
1.1197963113164822
 20
7.519180670941465
 30
7.532072242259113
  0
POINT
  5
406
330
17
100
AcDbEntity
  8
0
100
AcDbPoint
 10
2.34336215248075
 20
6.960616084376187
 30
1.9007188117336948
  0
POINT
  5
407
330
17
100
AcDbEntity
  8
0
100
AcDbPoint
 10
9.186819297534099
 20
9.434174193841946
 30
3.1283857804196846
  0
POINT
  5
408
330
17
100
AcDbEntity
  8
0
100
AcDbPoint
 10
9.824355709632972
 20
9.748033203680528
 30
1.3788960389826943
  0
POINT
  5
409
330
17
100
AcDbEntity
  8
0
100
AcDbPoint
 10
8.55451382456753
 20
8.788512174239823
 30
4.915388911869677
  0
POINT
  5
40A
330
17
100
AcDbEntity
  8
0
100
AcDbPoint
 10
8.879189470678407
 20
5.9701716619779965
 30
5.235210269748088
  0
POINT
  5
40B
330
17
100
AcDbEntity
  8
0
100
AcDbPoint
 10
9.104549430840475
 20
6.814813078062139
 30
6.525417907205227
  0
POINT
  5
40C
330
17
100
AcDbEntity
  8
0
100
AcDbPoint
 10
7.917730902682367
 20
2.2124866038739
 30
1.502342783149887
  0
POINT
  5
40D
330
17
100
AcDbEntity
  8
0
100
AcDbPoint
 10
6.539717315599194
 20
6.187208118485701
 30
4.971861797924988
  0
POINT
  5
40E
330
17
100
AcDbEntity
  8
0
100
AcDbPoint
 10
3.0473887801249724
 20
5.4357626009537805
 30
2.0304854877762435
  0
POINT
  5
40F
330
17
100
AcDbEntity
  8
0
100
AcDbPoint
 10
9.52675413291623
 20
0.37744708802562976
 30
9.640906334718682
  0
POINT
  5
410
330
17
100
AcDbEntity
  8
0
100
AcDbPoint
 10
7.673329474870383
 20
4.002309950859988
 30
4.304303515076126
  0
POINT
  5
411
330
17
100
AcDbEntity
  8
0
100
AcDbPoint
 10
0.3323965192840872
 20
1.0681147139514469
 30
5.152714422134039
  0
POINT
  5
412
330
17
100
AcDbEntity
  8
0
100
AcDbPoint
 10
3.0352832592923775
 20
3.9131509113490237
 30
5.6966207210806905
  0
POINT
  5
413
330
17
100
AcDbEntity
  8
0
100
AcDbPoint
 10
9.765296941353652
 20
3.50137613554526
 30
0.7658517395324604
  0
POINT
  5
414
330
17
100
AcDbEntity
  8
0
100
AcDbPoint
 10
4.456992363544692
 20
1.4939510052059857
 30
5.339220304710769
  0
POINT
  5
415
330
17
100
AcDbEntity
  8
0
100
AcDbPoint
 10
0.6550993253065196
 20
1.7171203481330832
 30
8.111459063494973
  0
POINT
  5
416
330
17
100
AcDbEntity
  8
0
100
AcDbPoint
 10
7.158926573389496
 20
2.807251441429679
 30
5.610097575584857
  0
ENDSEC
  0
SECTION
  2
OBJECTS
  0
DICTIONARY
  5
A
330
0
100
AcDbDictionary
281
1
  3
ACAD_COLOR
350
B
  3
ACAD_GROUP
350
C
  3
ACAD_LAYOUT
350
D
  3
ACAD_MATERIAL
350
E
  3
ACAD_MLEADERSTYLE
350
F
  3
ACAD_MLINESTYLE
350
10
  3
ACAD_PLOTSETTINGS
350
11
  3
ACAD_PLOTSTYLENAME
350
12
  3
ACAD_SCALELIST
350
14
  3
ACAD_TABLESTYLE
350
15
  3
ACAD_VISUALSTYLE
350
16
  3
EZDXF_META
350
2D
  0
DICTIONARY
  5
B
330
A
100
AcDbDictionary
281
1
  0
DICTIONARY
  5
C
330
A
100
AcDbDictionary
281
1
  0
DICTIONARY
  5
D
330
A
100
AcDbDictionary
281
1
  3
Model
350
1A
  3
Layout1
350
1E
  0
DICTIONARY
  5
E
330
A
100
AcDbDictionary
281
1
  3
ByBlock
350
1F
  3
ByLayer
350
20
  3
Global
350
21
  0
DICTIONARY
  5
F
330
A
100
AcDbDictionary
281
1
  3
Standard
350
2C
  0
DICTIONARY
  5
10
330
A
100
AcDbDictionary
281
1
  3
Standard
350
22
  0
DICTIONARY
  5
11
330
A
100
AcDbDictionary
281
1
  0
ACDBDICTIONARYWDFLT
  5
12
330
A
100
AcDbDictionary
281
1
  3
Normal
350
13
100
AcDbDictionaryWithDefault
340
13
  0
ACDBPLACEHOLDER
  5
13
330
12
  0
DICTIONARY
  5
14
330
A
100
AcDbDictionary
281
1
  0
DICTIONARY
  5
15
330
A
100
AcDbDictionary
281
1
  0
DICTIONARY
  5
16
330
A
100
AcDbDictionary
281
1
  0
LAYOUT
  5
1A
330
D
100
AcDbPlotSettings
  1

  4
A3
  6

 40
7.5
 41
20.0
 42
7.5
 43
20.0
 44
420.0
 45
297.0
 46
0.0
 47
0.0
 48
0.0
 49
0.0
140
0.0
141
0.0
142
1.0
143
1.0
 70
1024
 72
1
 73
0
 74
5
  7

 75
16
 76
0
 77
2
 78
300
147
1.0
148
0.0
149
0.0
100
AcDbLayout
  1
Model
 70
1
 71
0
 10
0.0
 20
0.0
 11
420.0
 21
297.0
 12
0.0
 22
0.0
 32
0.0
 14
1e+20
 24
1e+20
 34
1e+20
 15
-1e+20
 25
-1e+20
 35
-1e+20
146
0.0
 13
0.0
 23
0.0
 33
0.0
 16
1.0
 26
0.0
 36
0.0
 17
0.0
 27
1.0
 37
0.0
 76
1
330
17
  0
LAYOUT
  5
1E
330
D
100
AcDbPlotSettings
  1

  4
A3
  6

 40
7.5
 41
20.0
 42
7.5
 43
20.0
 44
420.0
 45
297.0
 46
0.0
 47
0.0
 48
0.0
 49
0.0
140
0.0
141
0.0
142
1.0
143
1.0
 70
0
 72
1
 73
0
 74
5
  7

 75
16
 76
0
 77
2
 78
300
147
1.0
148
0.0
149
0.0
100
AcDbLayout
  1
Layout1
 70
1
 71
1
 10
0.0
 20
0.0
 11
420.0
 21
297.0
 12
0.0
 22
0.0
 32
0.0
 14
1e+20
 24
1e+20
 34
1e+20
 15
-1e+20
 25
-1e+20
 35
-1e+20
146
0.0
 13
0.0
 23
0.0
 33
0.0
 16
1.0
 26
0.0
 36
0.0
 17
0.0
 27
1.0
 37
0.0
 76
1
330
1B
  0
MATERIAL
  5
1F
102
{ACAD_REACTORS
330
E
102
}
330
E
100
AcDbMaterial
  1
ByBlock
  2

 70
0
 40
1.0
 71
1
 41
1.0
 91
-1023410177
 42
1.0
 72
1
  3

 73
1
 74
1
 75
1
 44
0.5
 73
0
 45
1.0
 46
1.0
 77
1
  4

 78
1
 79
1
170
1
 48
1.0
171
1
  6

172
1
173
1
174
1
140
1.0
141
1.0
175
1
  7

176
1
177
1
178
1
143
1.0
179
1
  8

270
1
271
1
272
1
145
1.0
146
1.0
273
1
  9

274
1
275
1
276
1
 42
1.0
 72
1
  3

 73
1
 74
1
 75
1
 94
63
  0
MATERIAL
  5
20
102
{ACAD_REACTORS
330
E
102
}
330
E
100
AcDbMaterial
  1
ByLayer
  2

 70
0
 40
1.0
 71
1
 41
1.0
 91
-1023410177
 42
1.0
 72
1
  3

 73
1
 74
1
 75
1
 44
0.5
 73
0
 45
1.0
 46
1.0
 77
1
  4

 78
1
 79
1
170
1
 48
1.0
171
1
  6

172
1
173
1
174
1
140
1.0
141
1.0
175
1
  7

176
1
177
1
178
1
143
1.0
179
1
  8

270
1
271
1
272
1
145
1.0
146
1.0
273
1
  9

274
1
275
1
276
1
 42
1.0
 72
1
  3

 73
1
 74
1
 75
1
 94
63
  0
MATERIAL
  5
21
102
{ACAD_REACTORS
330
E
102
}
330
E
100
AcDbMaterial
  1
Global
  2

 70
0
 40
1.0
 71
1
 41
1.0
 91
-1023410177
 42
1.0
 72
1
  3

 73
1
 74
1
 75
1
 44
0.5
 73
0
 45
1.0
 46
1.0
 77
1
  4

 78
1
 79
1
170
1
 48
1.0
171
1
  6

172
1
173
1
174
1
140
1.0
141
1.0
175
1
  7

176
1
177
1
178
1
143
1.0
179
1
  8

270
1
271
1
272
1
145
1.0
146
1.0
273
1
  9

274
1
275
1
276
1
 42
1.0
 72
1
  3

 73
1
 74
1
 75
1
 94
63
  0
MLINESTYLE
  5
22
102
{ACAD_REACTORS
330
10
102
}
330
10
100
AcDbMlineStyle
  2
Standard
 70
0
  3

 62
256
 51
90.0
 52
90.0
 71
2
 49
0.5
 62
256
  6
BYLAYER
 49
-0.5
 62
256
  6
BYLAYER
  0
MLEADERSTYLE
  5
2C
102
{ACAD_REACTORS
330
F
102
}
330
F
100
AcDbMLeaderStyle
179
2
170
2
171
1
172
0
 90
2
 40
0.0
 41
0.0
173
1
 91
-1056964608
 92
-2
290
1
 42
2.0
291
1
 43
8.0
  3
Standard
 44
4.0
300

342
29
174
1
175
1
176
0
178
1
 93
-1056964608
 45
4.0
292
0
297
0
 46
4.0
 94
-1056964608
 47
1.0
 49
1.0
140
1.0
294
1
141
0.0
177
0
142
1.0
295
0
296
0
143
3.75
271
0
272
9
273
9
  0
DICTIONARY
  5
2D
330
A
100
AcDbDictionary
280
1
281
1
  3
CREATED_BY_EZDXF
350
2E
  3
WRITTEN_BY_EZDXF
350
419
  0
DICTIONARYVAR
  5
2E
330
2D
100
DictionaryVariables
280
0
  1
1.4.3 @ 2026-04-27T23:28:35.265685+00:00
  0
DICTIONARYVAR
  5
419
330
2D
100
DictionaryVariables
280
0
  1
1.4.3 @ 2026-04-27T23:28:35.296141+00:00
  0
ENDSEC
  0
EOF
