  0
SECTION
  2
HEADER
  9
$ACADVER
  1
AC1024
  9
$ACADMAINTVER
 70
6
  9
$DWGCODEPAGE
  3
ANSI_1252
  9
$LASTSAVEDBY
  1
ezdxf
  9
$INSBASE
 10
0.0
 20
0.0
 30
0.0
  9
$EXTMIN
 10
1e+20
 20
1e+20
 30
1e+20
  9
$EXTMAX
 10
-1e+20
 20
-1e+20
 30
-1e+20
  9
$LIMMIN
 10
0.0
 20
0.0
  9
$LIMMAX
 10
420.0
 20
297.0
  9
$ORTHOMODE
 70
0
  9
$REGENMODE
 70
1
  9
$FILLMODE
 70
1
  9
$QTEXTMODE
 70
0
  9
$MIRRTEXT
 70
1
  9
$LTSCALE
 40
1.0
  9
$ATTMODE
 70
1
  9
$TEXTSIZE
 40
2.5
  9
$TRACEWID
 40
1.0
  9
$TEXTSTYLE
  7
Standard
  9
$CLAYER
  8
0
  9
$CELTYPE
  6
ByLayer
  9
$CECOLOR
 62
256
  9
$CELTSCALE
 40
1.0
  9
$DISPSILH
 70
0
  9
$DIMSCALE
 40
1.0
  9
$DIMASZ
 40
2.5
  9
$DIMEXO
 40
0.625
  9
$DIMDLI
 40
3.75
  9
$DIMRND
 40
0.0
  9
$DIMDLE
 40
0.0
  9
$DIMEXE
 40
1.25
  9
$DIMTP
 40
0.0
  9
$DIMTM
 40
0.0
  9
$DIMTXT
 40
2.5
  9
$DIMCEN
 40
2.5
  9
$DIMTSZ
 40
0.0
  9
$DIMTOL
 70
0
  9
$DIMLIM
 70
0
  9
$DIMTIH
 70
0
  9
$DIMTOH
 70
0
  9
$DIMSE1
 70
0
  9
$DIMSE2
 70
0
  9
$DIMTAD
 70
1
  9
$DIMZIN
 70
8
  9
$DIMBLK
  1

  9
$DIMASO
 70
1
  9
$DIMSHO
 70
1
  9
$DIMPOST
  1

  9
$DIMAPOST
  1

  9
$DIMALT
 70
0
  9
$DIMALTD
 70
3
  9
$DIMALTF
 40
0.03937007874
  9
$DIMLFAC
 40
1.0
  9
$DIMTOFL
 70
1
  9
$DIMTVP
 40
0.0
  9
$DIMTIX
 70
0
  9
$DIMSOXD
 70
0
  9
$DIMSAH
 70
0
  9
$DIMBLK1
  1

  9
$DIMBLK2
  1

  9
$DIMSTYLE
  2
ISO-25
  9
$DIMCLRD
 70
0
  9
$DIMCLRE
 70
0
  9
$DIMCLRT
 70
0
  9
$DIMTFAC
 40
1.0
  9
$DIMGAP
 40
0.625
  9
$DIMJUST
 70
0
  9
$DIMSD1
 70
0
  9
$DIMSD2
 70
0
  9
$DIMTOLJ
 70
0
  9
$DIMTZIN
 70
8
  9
$DIMALTZ
 70
0
  9
$DIMALTTZ
 70
0
  9
$DIMUPT
 70
0
  9
$DIMDEC
 70
2
  9
$DIMTDEC
 70
2
  9
$DIMALTU
 70
2
  9
$DIMALTTD
 70
3
  9
$DIMTXSTY
  7
Standard
  9
$DIMAUNIT
 70
0
  9
$DIMADEC
 70
0
  9
$DIMALTRND
 40
0.0
  9
$DIMAZIN
 70
0
  9
$DIMDSEP
 70
44
  9
$DIMATFIT
 70
3
  9
$DIMFRAC
 70
0
  9
$DIMLDRBLK
  1

  9
$DIMLUNIT
 70
2
  9
$DIMLWD
 70
-2
  9
$DIMLWE
 70
-2
  9
$DIMTMOVE
 70
0
  9
$DIMFXL
 40
1.0
  9
$DIMFXLON
 70
0
  9
$DIMJOGANG
 40
0.785398163397
  9
$DIMTFILL
 70
0
  9
$DIMTFILLCLR
 70
0
  9
$DIMARCSYM
 70
0
  9
$DIMLTYPE
  6

  9
$DIMLTEX1
  6

  9
$DIMLTEX2
  6

  9
$DIMTXTDIRECTION
 70
0
  9
$LUNITS
 70
2
  9
$LUPREC
 70
4
  9
$SKETCHINC
 40
1.0
  9
$FILLETRAD
 40
10.0
  9
$AUNITS
 70
0
  9
$AUPREC
 70
2
  9
$MENU
  1
.
  9
$ELEVATION
 40
0.0
  9
$PELEVATION
 40
0.0
  9
$THICKNESS
 40
0.0
  9
$LIMCHECK
 70
0
  9
$CHAMFERA
 40
0.0
  9
$CHAMFERB
 40
0.0
  9
$CHAMFERC
 40
0.0
  9
$CHAMFERD
 40
0.0
  9
$SKPOLY
 70
0
  9
$TDCREATE
 40
2461158.811516204
  9
$TDUCREATE
 40
2458532.153996898
  9
$TDUPDATE
 40
2461158.811516204
  9
$TDUUPDATE
 40
2458532.1544311
  9
$TDINDWG
 40
0.0
  9
$TDUSRTIMER
 40
0.0
  9
$USRTIMER
 70
1
  9
$ANGBASE
 50
0.0
  9
$ANGDIR
 70
0
  9
$PDMODE
 70
0
  9
$PDSIZE
 40
0.0
  9
$PLINEWID
 40
0.0
  9
$SPLFRAME
 70
0
  9
$SPLINETYPE
 70
6
  9
$SPLINESEGS
 70
8
  9
$HANDSEED
  5
294
  9
$SURFTAB1
 70
6
  9
$SURFTAB2
 70
6
  9
$SURFTYPE
 70
6
  9
$SURFU
 70
6
  9
$SURFV
 70
6
  9
$UCSBASE
  2

  9
$UCSNAME
  2

  9
$UCSORG
 10
0.0
 20
0.0
 30
0.0
  9
$UCSXDIR
 10
1.0
 20
0.0
 30
0.0
  9
$UCSYDIR
 10
0.0
 20
1.0
 30
0.0
  9
$UCSORTHOREF
  2

  9
$UCSORTHOVIEW
 70
0
  9
$UCSORGTOP
 10
0.0
 20
0.0
 30
0.0
  9
$UCSORGBOTTOM
 10
0.0
 20
0.0
 30
0.0
  9
$UCSORGLEFT
 10
0.0
 20
0.0
 30
0.0
  9
$UCSORGRIGHT
 10
0.0
 20
0.0
 30
0.0
  9
$UCSORGFRONT
 10
0.0
 20
0.0
 30
0.0
  9
$UCSORGBACK
 10
0.0
 20
0.0
 30
0.0
  9
$PUCSBASE
  2

  9
$PUCSNAME
  2

  9
$PUCSORG
 10
0.0
 20
0.0
 30
0.0
  9
$PUCSXDIR
 10
1.0
 20
0.0
 30
0.0
  9
$PUCSYDIR
 10
0.0
 20
1.0
 30
0.0
  9
$PUCSORTHOREF
  2

  9
$PUCSORTHOVIEW
 70
0
  9
$PUCSORGTOP
 10
0.0
 20
0.0
 30
0.0
  9
$PUCSORGBOTTOM
 10
0.0
 20
0.0
 30
0.0
  9
$PUCSORGLEFT
 10
0.0
 20
0.0
 30
0.0
  9
$PUCSORGRIGHT
 10
0.0
 20
0.0
 30
0.0
  9
$PUCSORGFRONT
 10
0.0
 20
0.0
 30
0.0
  9
$PUCSORGBACK
 10
0.0
 20
0.0
 30
0.0
  9
$USERI1
 70
0
  9
$USERI2
 70
0
  9
$USERI3
 70
0
  9
$USERI4
 70
0
  9
$USERI5
 70
0
  9
$USERR1
 40
0.0
  9
$USERR2
 40
0.0
  9
$USERR3
 40
0.0
  9
$USERR4
 40
0.0
  9
$USERR5
 40
0.0
  9
$WORLDVIEW
 70
1
  9
$SHADEDGE
 70
3
  9
$SHADEDIF
 70
70
  9
$TILEMODE
 70
1
  9
$MAXACTVP
 70
64
  9
$PINSBASE
 10
0.0
 20
0.0
 30
0.0
  9
$PLIMCHECK
 70
0
  9
$PEXTMIN
 10
1e+20
 20
1e+20
 30
1e+20
  9
$PEXTMAX
 10
-1e+20
 20
-1e+20
 30
-1e+20
  9
$PLIMMIN
 10
0.0
 20
0.0
  9
$PLIMMAX
 10
420.0
 20
297.0
  9
$UNITMODE
 70
0
  9
$VISRETAIN
 70
1
  9
$PLINEGEN
 70
0
  9
$PSLTSCALE
 70
1
  9
$TREEDEPTH
 70
3020
  9
$CMLSTYLE
  2
Standard
  9
$CMLJUST
 70
0
  9
$CMLSCALE
 40
20.0
  9
$PROXYGRAPHICS
 70
1
  9
$MEASUREMENT
 70
1
  9
$CELWEIGHT
370
-1
  9
$ENDCAPS
280
0
  9
$JOINSTYLE
280
0
  9
$LWDISPLAY
290
0
  9
$INSUNITS
 70
6
  9
$HYPERLINKBASE
  1

  9
$STYLESHEET
  1

  9
$XEDIT
290
1
  9
$CEPSNTYPE
380
0
  9
$PSTYLEMODE
290
1
  9
$FINGERPRINTGUID
  2
{960B9C96-FD4A-4592-83F2-D27C189A4DF5}
  9
$VERSIONGUID
  2
{20D04E34-CF8A-4B49-BFB9-C2ACCA017902}
  9
$EXTNAMES
290
1
  9
$PSVPSCALE
 40
0.0
  9
$OLESTARTUP
290
0
  9
$SORTENTS
280
127
  9
$INDEXCTL
280
0
  9
$HIDETEXT
280
1
  9
$XCLIPFRAME
280
1
  9
$HALOGAP
280
0
  9
$OBSCOLOR
 70
257
  9
$OBSLTYPE
280
0
  9
$INTERSECTIONDISPLAY
280
0
  9
$INTERSECTIONCOLOR
 70
257
  9
$DIMASSOC
280
2
  9
$PROJECTNAME
  1

  9
$CAMERADISPLAY
290
0
  9
$LENSLENGTH
 40
50.0
  9
$CAMERAHEIGHT
 40
0.0
  9
$STEPSPERSEC
 40
24.0
  9
$STEPSIZE
 40
100.0
  9
$3DDWFPREC
 40
2.0
  9
$PSOLWIDTH
 40
0.005
  9
$PSOLHEIGHT
 40
0.08
  9
$LOFTANG1
 40
1.570796326795
  9
$LOFTANG2
 40
1.570796326795
  9
$LOFTMAG1
 40
0.0
  9
$LOFTMAG2
 40
0.0
  9
$LOFTPARAM
 70
7
  9
$LOFTNORMALS
280
1
  9
$LATITUDE
 40
37.795
  9
$LONGITUDE
 40
-122.394
  9
$NORTHDIRECTION
 40
0.0
  9
$TIMEZONE
 70
-8000
  9
$LIGHTGLYPHDISPLAY
280
1
  9
$TILEMODELIGHTSYNCH
280
1
  9
$CMATERIAL
347
20
  9
$SOLIDHIST
280
0
  9
$SHOWHIST
280
1
  9
$DWFFRAME
280
2
  9
$DGNFRAME
280
2
  9
$REALWORLDSCALE
290
1
  9
$INTERFERECOLOR
 62
256
  9
$CSHADOW
280
0
  9
$SHADOWPLANELOCATION
 40
0.0
  0
ENDSEC
  0
SECTION
  2
CLASSES
  0
CLASS
  1
ACDBDICTIONARYWDFLT
  2
AcDbDictionaryWithDefault
  3
ObjectDBX Classes
 90
0
 91
0
280
0
281
0
  0
CLASS
  1
SUN
  2
AcDbSun
  3
SCENEOE
 90
1153
 91
0
280
0
281
0
  0
CLASS
  1
VISUALSTYLE
  2
AcDbVisualStyle
  3
ObjectDBX Classes
 90
4095
 91
0
280
0
281
0
  0
CLASS
  1
MATERIAL
  2
AcDbMaterial
  3
ObjectDBX Classes
 90
1153
 91
0
280
0
281
0
  0
CLASS
  1
SCALE
  2
AcDbScale
  3
ObjectDBX Classes
 90
1153
 91
0
280
0
281
0
  0
CLASS
  1
TABLESTYLE
  2
AcDbTableStyle
  3
ObjectDBX Classes
 90
4095
 91
0
280
0
281
0
  0
CLASS
  1
MLEADERSTYLE
  2
AcDbMLeaderStyle
  3
ACDB_MLEADERSTYLE_CLASS
 90
4095
 91
0
280
0
281
0
  0
CLASS
  1
DICTIONARYVAR
  2
AcDbDictionaryVar
  3
ObjectDBX Classes
 90
0
 91
0
280
0
281
0
  0
CLASS
  1
CELLSTYLEMAP
  2
AcDbCellStyleMap
  3
ObjectDBX Classes
 90
1152
 91
0
280
0
281
0
  0
CLASS
  1
MENTALRAYRENDERSETTINGS
  2
AcDbMentalRayRenderSettings
  3
SCENEOE
 90
1024
 91
0
280
0
281
0
  0
CLASS
  1
ACDBDETAILVIEWSTYLE
  2
AcDbDetailViewStyle
  3
ObjectDBX Classes
 90
1025
 91
0
280
0
281
0
  0
CLASS
  1
ACDBSECTIONVIEWSTYLE
  2
AcDbSectionViewStyle
  3
ObjectDBX Classes
 90
1025
 91
0
280
0
281
0
  0
CLASS
  1
RASTERVARIABLES
  2
AcDbRasterVariables
  3
ISM
 90
0
 91
0
280
0
281
0
  0
CLASS
  1
LAYOUT
  2
AcDbLayout
  3
ObjectDBX Classes
 90
0
 91
0
280
0
281
0
  0
CLASS
  1
ACDBPLACEHOLDER
  2
AcDbPlaceHolder
  3
ObjectDBX Classes
 90
0
 91
0
280
0
281
0
  0
ENDSEC
  0
SECTION
  2
TABLES
  0
TABLE
  2
VPORT
  5
8
330
0
100
AcDbSymbolTable
 70
1
  0
VPORT
  5
23
330
8
100
AcDbSymbolTableRecord
100
AcDbViewportTableRecord
  2
*Active
 70
0
 10
0.0
 20
0.0
 11
1.0
 21
1.0
 12
0.0
 22
0.0
 13
0.0
 23
0.0
 14
0.5
 24
0.5
 15
0.5
 25
0.5
 16
0.0
 26
0.0
 36
1.0
 17
0.0
 27
0.0
 37
0.0
 40
1000.0
 41
1.34
 42
50.0
 43
0.0
 44
0.0
 50
0.0
 51
0.0
 71
0
 72
1000
 73
1
 74
3
 75
0
 76
0
 77
0
 78
0
281
0
 65
0
146
0.0
  0
ENDTAB
  0
TABLE
  2
LTYPE
  5
2
330
0
100
AcDbSymbolTable
 70
3
  0
LTYPE
  5
24
330
2
100
AcDbSymbolTableRecord
100
AcDbLinetypeTableRecord
  2
ByBlock
 70
0
  3

 72
65
 73
0
 40
0.0
  0
LTYPE
  5
25
330
2
100
AcDbSymbolTableRecord
100
AcDbLinetypeTableRecord
  2
ByLayer
 70
0
  3

 72
65
 73
0
 40
0.0
  0
LTYPE
  5
26
330
2
100
AcDbSymbolTableRecord
100
AcDbLinetypeTableRecord
  2
Continuous
 70
0
  3

 72
65
 73
0
 40
0.0
  0
ENDTAB
  0
TABLE
  2
LAYER
  5
1
330
0
100
AcDbSymbolTable
 70
2
  0
LAYER
  5
27
330
1
100
AcDbSymbolTableRecord
100
AcDbLayerTableRecord
  2
0
 70
0
 62
7
  6
Continuous
370
-3
390
13
347
21
  0
LAYER
  5
28
330
1
100
AcDbSymbolTableRecord
100
AcDbLayerTableRecord
  2
Defpoints
 70
0
 62
7
  6
Continuous
290
0
370
-3
390
13
347
21
  0
ENDTAB
  0
TABLE
  2
STYLE
  5
5
330
0
100
AcDbSymbolTable
 70
1
  0
STYLE
  5
29
330
5
100
AcDbSymbolTableRecord
100
AcDbTextStyleTableRecord
  2
Standard
 70
0
 40
0.0
 41
1.0
 50
0.0
 71
0
 42
2.5
  3
txt
  4

  0
ENDTAB
  0
TABLE
  2
VIEW
  5
7
330
0
100
AcDbSymbolTable
 70
0
  0
ENDTAB
  0
TABLE
  2
UCS
  5
6
330
0
100
AcDbSymbolTable
 70
0
  0
ENDTAB
  0
TABLE
  2
APPID
  5
3
330
0
100
AcDbSymbolTable
 70
3
  0
APPID
  5
2A
330
3
100
AcDbSymbolTableRecord
100
AcDbRegAppTableRecord
  2
ACAD
 70
0
  0
APPID
  5
291
330
3
100
AcDbSymbolTableRecord
100
AcDbRegAppTableRecord
  2
HATCHBACKGROUNDCOLOR
 70
0
  0
APPID
  5
292
330
3
100
AcDbSymbolTableRecord
100
AcDbRegAppTableRecord
  2
EZDXF
 70
0
  0
ENDTAB
  0
TABLE
  2
DIMSTYLE
  5
4
330
0
100
AcDbSymbolTable
 70
1
100
AcDbDimStyleTable
  0
DIMSTYLE
105
2B
330
4
100
AcDbSymbolTableRecord
100
AcDbDimStyleTableRecord
  2
Standard
 70
0
 40
1.0
 41
2.5
 42
0.625
 43
3.75
 44
1.25
 45
0.0
 46
0.0
 47
0.0
 48
0.0
 49
2.5
140
2.5
141
2.5
142
0.0
143
0.03937007874
144
1.0
145
0.0
146
1.0
147
0.625
148
0.0
 69
0
 70
0
 71
0
 72
0
 73
0
 74
0
 75
0
 76
0
 77
1
 78
8
 79
3
170
0
171
3
172
1
173
0
174
0
175
0
176
0
177
0
178
0
179
2
271
2
272
2
273
2
274
3
275
0
276
0
277
2
278
44
279
0
280
0
281
0
282
0
283
0
284
8
285
0
286
0
288
0
289
3
290
0
371
-2
372
-2
  0
ENDTAB
  0
TABLE
  2
BLOCK_RECORD
  5
9
330
0
100
AcDbSymbolTable
 70
2
  0
BLOCK_RECORD
  5
17
330
9
100
AcDbSymbolTableRecord
100
AcDbBlockTableRecord
  2
*Model_Space
340
1A
 70
0
280
1
281
0
  0
BLOCK_RECORD
  5
1B
330
9
100
AcDbSymbolTableRecord
100
AcDbBlockTableRecord
  2
*Paper_Space
340
1E
 70
0
280
1
281
0
  0
ENDTAB
  0
ENDSEC
  0
SECTION
  2
BLOCKS
  0
BLOCK
  5
18
330
17
100
AcDbEntity
  8
0
100
AcDbBlockBegin
  2
*Model_Space
 70
0
 10
0.0
 20
0.0
 30
0.0
  3
*Model_Space
  1

  0
ENDBLK
  5
19
330
17
100
AcDbEntity
  8
0
100
AcDbBlockEnd
  0
BLOCK
  5
1C
330
1B
100
AcDbEntity
  8
0
100
AcDbBlockBegin
  2
*Paper_Space
 70
0
 10
0.0
 20
0.0
 30
0.0
  3
*Paper_Space
  1

  0
ENDBLK
  5
1D
330
1B
100
AcDbEntity
  8
0
100
AcDbBlockEnd
  0
ENDSEC
  0
SECTION
  2
ENTITIES
  0
POLYLINE
  5
2F
330
17
100
AcDbEntity
  8
0
100
AcDbPolyFaceMesh
 66
1
 10
0.0
 20
0.0
 30
0.0
 70
64
 71
114
 72
128
  0
VERTEX
  5
31
330
17
100
AcDbEntity
  8
0
100
AcDbVertex
100
AcDbPolyFaceMeshVertex
 10
0.0
 20
0.0
 30
-10.0
 70
192
  0
VERTEX
  5
32
330
17
100
AcDbEntity
  8
0
100
AcDbVertex
100
AcDbPolyFaceMeshVertex
 10
3.535533905932738
 20
1.4644660940672627
 30
-9.238795325112868
 70
192
  0
VERTEX
  5
33
330
17
100
AcDbEntity
  8
0
100
AcDbVertex
100
AcDbPolyFaceMeshVertex
 10
3.8268343236508984
 20
0.0
 30
-9.238795325112868
 70
192
  0
VERTEX
  5
36
330
17
100
AcDbEntity
  8
0
100
AcDbVertex
100
AcDbPolyFaceMeshVertex
 10
2.7059805007309854
 20
2.705980500730985
 30
-9.238795325112868
 70
192
  0
VERTEX
  5
3A
330
17
100
AcDbEntity
  8
0
100
AcDbVertex
100
AcDbPolyFaceMeshVertex
 10
1.464466094067263
 20
3.535533905932738
 30
-9.238795325112868
 70
192
  0
VERTEX
  5
3E
330
17
100
AcDbEntity
  8
0
100
AcDbVertex
100
AcDbPolyFaceMeshVertex
 10
2.3432602026631494e-16
 20
3.8268343236508984
 30
-9.238795325112868
 70
192
  0
VERTEX
  5
42
330
17
100
AcDbEntity
  8
0
100
AcDbVertex
100
AcDbPolyFaceMeshVertex
 10
-1.4644660940672625
 20
3.535533905932738
 30
-9.238795325112868
 70
192
  0
VERTEX
  5
46
330
17
100
AcDbEntity
  8
0
100
AcDbVertex
100
AcDbPolyFaceMeshVertex
 10
-2.705980500730985
 20
2.7059805007309854
 30
-9.238795325112868
 70
192
  0
VERTEX
  5
4A
330
17
100
AcDbEntity
  8
0
100
AcDbVertex
100
AcDbPolyFaceMeshVertex
 10
-3.535533905932738
 20
1.464466094067263
 30
-9.238795325112868
 70
192
  0
VERTEX
  5
4E
330
17
100
AcDbEntity
  8
0
100
AcDbVertex
100
AcDbPolyFaceMeshVertex
 10
-3.8268343236508984
 20
4.686520405326299e-16
 30
-9.238795325112868
 70
192
  0
VERTEX
  5
52
330
17
100
AcDbEntity
  8
0
100
AcDbVertex
100
AcDbPolyFaceMeshVertex
 10
-3.5355339059327386
 20
-1.4644660940672622
 30
-9.238795325112868
 70
192
  0
VERTEX
  5
56
330
17
100
AcDbEntity
  8
0
100
AcDbVertex
100
AcDbPolyFaceMeshVertex
 10
-2.705980500730986
 20
-2.7059805007309845
 30
-9.238795325112868
 70
192
  0
VERTEX
  5
5A
330
17
100
AcDbEntity
  8
0
100
AcDbVertex
100
AcDbPolyFaceMeshVertex
 10
-1.4644660940672647
 20
-3.5355339059327373
 30
-9.238795325112868
 70
192
  0
VERTEX
  5
5E
330
17
100
AcDbEntity
  8
0
100
AcDbVertex
100
AcDbPolyFaceMeshVertex
 10
-7.029780607989448e-16
 20
-3.8268343236508984
 30
-9.238795325112868
 70
192
  0
VERTEX
  5
62
330
17
100
AcDbEntity
  8
0
100
AcDbVertex
100
AcDbPolyFaceMeshVertex
 10
1.4644660940672636
 20
-3.5355339059327378
 30
-9.238795325112868
 70
192
  0
VERTEX
  5
66
330
17
100
AcDbEntity
  8
0
100
AcDbVertex
100
AcDbPolyFaceMeshVertex
 10
2.7059805007309845
 20
-2.705980500730986
 30
-9.238795325112868
 70
192
  0
VERTEX
  5
6A
330
17
100
AcDbEntity
  8
0
100
AcDbVertex
100
AcDbPolyFaceMeshVertex
 10
3.5355339059327373
 20
-1.464466094067265
 30
-9.238795325112868
 70
192
  0
VERTEX
  5
73
330
17
100
AcDbEntity
  8
0
100
AcDbVertex
100
AcDbPolyFaceMeshVertex
 10
6.532814824381883
 20
2.705980500730985
 30
-7.071067811865475
 70
192
  0
VERTEX
  5
74
330
17
100
AcDbEntity
  8
0
100
AcDbVertex
100
AcDbPolyFaceMeshVertex
 10
7.0710678118654755
 20
0.0
 30
-7.071067811865475
 70
192
  0
VERTEX
  5
78
330
17
100
AcDbEntity
  8
0
100
AcDbVertex
100
AcDbPolyFaceMeshVertex
 10
5.000000000000001
 20
5.0
 30
-7.071067811865475
 70
192
  0
VERTEX
  5
7D
330
17
100
AcDbEntity
  8
0
100
AcDbVertex
100
AcDbPolyFaceMeshVertex
 10
2.7059805007309854
 20
6.532814824381883
 30
-7.071067811865475
 70
192
  0
VERTEX
  5
82
330
17
100
AcDbEntity
  8
0
100
AcDbVertex
100
AcDbPolyFaceMeshVertex
 10
4.3297802811774667e-16
 20
7.0710678118654755
 30
-7.071067811865475
 70
192
  0
VERTEX
  5
87
330
17
100
AcDbEntity
  8
0
100
AcDbVertex
100
AcDbPolyFaceMeshVertex
 10
-2.7059805007309845
 20
6.532814824381883
 30
-7.071067811865475
 70
192
  0
VERTEX
  5
8C
330
17
100
AcDbEntity
  8
0
100
AcDbVertex
100
AcDbPolyFaceMeshVertex
 10
-5.0
 20
5.000000000000001
 30
-7.071067811865475
 70
192
  0
VERTEX
  5
91
330
17
100
AcDbEntity
  8
0
100
AcDbVertex
100
AcDbPolyFaceMeshVertex
 10
-6.532814824381883
 20
2.7059805007309854
 30
-7.071067811865475
 70
192
  0
VERTEX
  5
96
330
17
100
AcDbEntity
  8
0
100
AcDbVertex
100
AcDbPolyFaceMeshVertex
 10
-7.0710678118654755
 20
8.659560562354933e-16
 30
-7.071067811865475
 70
192
  0
VERTEX
  5
9B
330
17
100
AcDbEntity
  8
0
100
AcDbVertex
100
AcDbPolyFaceMeshVertex
 10
-6.532814824381884
 20
-2.7059805007309845
 30
-7.071067811865475
 70
192
  0
VERTEX
  5
A0
330
17
100
AcDbEntity
  8
0
100
AcDbVertex
100
AcDbPolyFaceMeshVertex
 10
-5.000000000000001
 20
-4.999999999999999
 30
-7.071067811865475
 70
192
  0
VERTEX
  5
A5
330
17
100
AcDbEntity
  8
0
100
AcDbVertex
100
AcDbPolyFaceMeshVertex
 10
-2.705980500730989
 20
-6.532814824381881
 30
-7.071067811865475
 70
192
  0
VERTEX
  5
AA
330
17
100
AcDbEntity
  8
0
100
AcDbVertex
100
AcDbPolyFaceMeshVertex
 10
-1.29893408435324e-15
 20
-7.0710678118654755
 30
-7.071067811865475
 70
192
  0
VERTEX
  5
AF
330
17
100
AcDbEntity
  8
0
100
AcDbVertex
100
AcDbPolyFaceMeshVertex
 10
2.7059805007309867
 20
-6.532814824381882
 30
-7.071067811865475
 70
192
  0
VERTEX
  5
B4
330
17
100
AcDbEntity
  8
0
100
AcDbVertex
100
AcDbPolyFaceMeshVertex
 10
4.999999999999999
 20
-5.000000000000001
 30
-7.071067811865475
 70
192
  0
VERTEX
  5
B9
330
17
100
AcDbEntity
  8
0
100
AcDbVertex
100
AcDbPolyFaceMeshVertex
 10
6.532814824381881
 20
-2.7059805007309894
 30
-7.071067811865475
 70
192
  0
VERTEX
  5
C3
330
17
100
AcDbEntity
  8
0
100
AcDbVertex
100
AcDbPolyFaceMeshVertex
 10
8.535533905932738
 20
3.5355339059327378
 30
-3.826834323650898
 70
192
  0
VERTEX
  5
C4
330
17
100
AcDbEntity
  8
0
100
AcDbVertex
100
AcDbPolyFaceMeshVertex
 10
9.238795325112868
 20
0.0
 30
-3.826834323650898
 70
192
  0
VERTEX
  5
C8
330
17
100
AcDbEntity
  8
0
100
AcDbVertex
100
AcDbPolyFaceMeshVertex
 10
6.532814824381883
 20
6.532814824381882
 30
-3.826834323650898
 70
192
  0
VERTEX
  5
CD
330
17
100
AcDbEntity
  8
0
100
AcDbVertex
100
AcDbPolyFaceMeshVertex
 10
3.535533905932738
 20
8.535533905932738
 30
-3.826834323650898
 70
192
  0
VERTEX
  5
D2
330
17
100
AcDbEntity
  8
0
100
AcDbVertex
100
AcDbPolyFaceMeshVertex
 10
5.657130561438502e-16
 20
9.238795325112868
 30
-3.826834323650898
 70
192
  0
VERTEX
  5
D7
330
17
100
AcDbEntity
  8
0
100
AcDbVertex
100
AcDbPolyFaceMeshVertex
 10
-3.5355339059327373
 20
8.535533905932738
 30
-3.826834323650898
 70
192
  0
VERTEX
  5
DC
330
17
100
AcDbEntity
  8
0
100
AcDbVertex
100
AcDbPolyFaceMeshVertex
 10
-6.532814824381882
 20
6.532814824381883
 30
-3.826834323650898
 70
192
  0
VERTEX
  5
E1
330
17
100
AcDbEntity
  8
0
100
AcDbVertex
100
AcDbPolyFaceMeshVertex
 10
-8.535533905932738
 20
3.535533905932738
 30
-3.826834323650898
 70
192
  0
VERTEX
  5
E6
330
17
100
AcDbEntity
  8
0
100
AcDbVertex
100
AcDbPolyFaceMeshVertex
 10
-9.238795325112868
 20
1.1314261122877004e-15
 30
-3.826834323650898
 70
192
  0
VERTEX
  5
EB
330
17
100
AcDbEntity
  8
0
100
AcDbVertex
100
AcDbPolyFaceMeshVertex
 10
-8.53553390593274
 20
-3.535533905932737
 30
-3.826834323650898
 70
192
  0
VERTEX
  5
F0
330
17
100
AcDbEntity
  8
0
100
AcDbVertex
100
AcDbPolyFaceMeshVertex
 10
-6.532814824381885
 20
-6.532814824381881
 30
-3.826834323650898
 70
192
  0
VERTEX
  5
F5
330
17
100
AcDbEntity
  8
0
100
AcDbVertex
100
AcDbPolyFaceMeshVertex
 10
-3.535533905932743
 20
-8.535533905932736
 30
-3.826834323650898
 70
192
  0
VERTEX
  5
FA
330
17
100
AcDbEntity
  8
0
100
AcDbVertex
100
AcDbPolyFaceMeshVertex
 10
-1.6971391684315504e-15
 20
-9.238795325112868
 30
-3.826834323650898
 70
192
  0
VERTEX
  5
FF
330
17
100
AcDbEntity
  8
0
100
AcDbVertex
100
AcDbPolyFaceMeshVertex
 10
3.53553390593274
 20
-8.535533905932736
 30
-3.826834323650898
 70
192
  0
VERTEX
  5
104
330
17
100
AcDbEntity
  8
0
100
AcDbVertex
100
AcDbPolyFaceMeshVertex
 10
6.532814824381881
 20
-6.532814824381885
 30
-3.826834323650898
 70
192
  0
VERTEX
  5
109
330
17
100
AcDbEntity
  8
0
100
AcDbVertex
100
AcDbPolyFaceMeshVertex
 10
8.535533905932736
 20
-3.5355339059327435
 30
-3.826834323650898
 70
192
  0
VERTEX
  5
113
330
17
100
AcDbEntity
  8
0
100
AcDbVertex
100
AcDbPolyFaceMeshVertex
 10
9.238795325112868
 20
3.826834323650898
 30
0.0
 70
192
  0
VERTEX
  5
114
330
17
100
AcDbEntity
  8
0
100
AcDbVertex
100
AcDbPolyFaceMeshVertex
 10
10.0
 20
0.0
 30
0.0
 70
192
  0
VERTEX
  5
118
330
17
100
AcDbEntity
  8
0
100
AcDbVertex
100
AcDbPolyFaceMeshVertex
 10
7.0710678118654755
 20
7.071067811865475
 30
0.0
 70
192
  0
VERTEX
  5
11D
330
17
100
AcDbEntity
  8
0
100
AcDbVertex
100
AcDbPolyFaceMeshVertex
 10
3.8268343236508984
 20
9.238795325112868
 30
0.0
 70
192
  0
VERTEX
  5
122
330
17
100
AcDbEntity
  8
0
100
AcDbVertex
100
AcDbPolyFaceMeshVertex
 10
6.123233995736766e-16
 20
10.0
 30
0.0
 70
192
  0
VERTEX
  5
127
330
17
100
AcDbEntity
  8
0
100
AcDbVertex
100
AcDbPolyFaceMeshVertex
 10
-3.826834323650897
 20
9.238795325112868
 30
0.0
 70
192
  0
VERTEX
  5
12C
330
17
100
AcDbEntity
  8
0
100
AcDbVertex
100
AcDbPolyFaceMeshVertex
 10
-7.071067811865475
 20
7.0710678118654755
 30
0.0
 70
192
  0
VERTEX
  5
131
330
17
100
AcDbEntity
  8
0
100
AcDbVertex
100
AcDbPolyFaceMeshVertex
 10
-9.238795325112868
 20
3.8268343236508984
 30
0.0
 70
192
  0
VERTEX
  5
136
330
17
100
AcDbEntity
  8
0
100
AcDbVertex
100
AcDbPolyFaceMeshVertex
 10
-10.0
 20
1.2246467991473533e-15
 30
0.0
 70
192
  0
VERTEX
  5
13B
330
17
100
AcDbEntity
  8
0
100
AcDbVertex
100
AcDbPolyFaceMeshVertex
 10
-9.238795325112868
 20
-3.8268343236508966
 30
0.0
 70
192
  0
VERTEX
  5
140
330
17
100
AcDbEntity
  8
0
100
AcDbVertex
100
AcDbPolyFaceMeshVertex
 10
-7.071067811865477
 20
-7.071067811865474
 30
0.0
 70
192
  0
VERTEX
  5
145
330
17
100
AcDbEntity
  8
0
100
AcDbVertex
100
AcDbPolyFaceMeshVertex
 10
-3.8268343236509033
 20
-9.238795325112864
 30
0.0
 70
192
  0
VERTEX
  5
14A
330
17
100
AcDbEntity
  8
0
100
AcDbVertex
100
AcDbPolyFaceMeshVertex
 10
-1.8369701987210296e-15
 20
-10.0
 30
0.0
 70
192
  0
VERTEX
  5
14F
330
17
100
AcDbEntity
  8
0
100
AcDbVertex
100
AcDbPolyFaceMeshVertex
 10
3.8268343236509
 20
-9.238795325112866
 30
0.0
 70
192
  0
VERTEX
  5
154
330
17
100
AcDbEntity
  8
0
100
AcDbVertex
100
AcDbPolyFaceMeshVertex
 10
7.071067811865474
 20
-7.071067811865477
 30
0.0
 70
192
  0
VERTEX
  5
159
330
17
100
AcDbEntity
  8
0
100
AcDbVertex
100
AcDbPolyFaceMeshVertex
 10
9.238795325112864
 20
-3.826834323650904
 30
0.0
 70
192
  0
VERTEX
  5
163
330
17
100
AcDbEntity
  8
0
100
AcDbVertex
100
AcDbPolyFaceMeshVertex
 10
8.535533905932738
 20
3.5355339059327378
 30
3.826834323650898
 70
192
  0
VERTEX
  5
164
330
17
100
AcDbEntity
  8
0
100
AcDbVertex
100
AcDbPolyFaceMeshVertex
 10
9.238795325112868
 20
0.0
 30
3.826834323650898
 70
192
  0
VERTEX
  5
168
330
17
100
AcDbEntity
  8
0
100
AcDbVertex
100
AcDbPolyFaceMeshVertex
 10
6.532814824381883
 20
6.532814824381882
 30
3.826834323650898
 70
192
  0
VERTEX
  5
16D
330
17
100
AcDbEntity
  8
0
100
AcDbVertex
100
AcDbPolyFaceMeshVertex
 10
3.535533905932738
 20
8.535533905932738
 30
3.826834323650898
 70
192
  0
VERTEX
  5
172
330
17
100
AcDbEntity
  8
0
100
AcDbVertex
100
AcDbPolyFaceMeshVertex
 10
5.657130561438502e-16
 20
9.238795325112868
 30
3.826834323650898
 70
192
  0
VERTEX
  5
177
330
17
100
AcDbEntity
  8
0
100
AcDbVertex
100
AcDbPolyFaceMeshVertex
 10
-3.5355339059327373
 20
8.535533905932738
 30
3.826834323650898
 70
192
  0
VERTEX
  5
17C
330
17
100
AcDbEntity
  8
0
100
AcDbVertex
100
AcDbPolyFaceMeshVertex
 10
-6.532814824381882
 20
6.532814824381883
 30
3.826834323650898
 70
192
  0
VERTEX
  5
181
330
17
100
AcDbEntity
  8
0
100
AcDbVertex
100
AcDbPolyFaceMeshVertex
 10
-8.535533905932738
 20
3.535533905932738
 30
3.826834323650898
 70
192
  0
VERTEX
  5
186
330
17
100
AcDbEntity
  8
0
100
AcDbVertex
100
AcDbPolyFaceMeshVertex
 10
-9.238795325112868
 20
1.1314261122877004e-15
 30
3.826834323650898
 70
192
  0
VERTEX
  5
18B
330
17
100
AcDbEntity
  8
0
100
AcDbVertex
100
AcDbPolyFaceMeshVertex
 10
-8.53553390593274
 20
-3.535533905932737
 30
3.826834323650898
 70
192
  0
VERTEX
  5
190
330
17
100
AcDbEntity
  8
0
100
AcDbVertex
100
AcDbPolyFaceMeshVertex
 10
-6.532814824381885
 20
-6.532814824381881
 30
3.826834323650898
 70
192
  0
VERTEX
  5
195
330
17
100
AcDbEntity
  8
0
100
AcDbVertex
100
AcDbPolyFaceMeshVertex
 10
-3.535533905932743
 20
-8.535533905932736
 30
3.826834323650898
 70
192
  0
VERTEX
  5
19A
330
17
100
AcDbEntity
  8
0
100
AcDbVertex
100
AcDbPolyFaceMeshVertex
 10
-1.6971391684315504e-15
 20
-9.238795325112868
 30
3.826834323650898
 70
192
  0
VERTEX
  5
19F
330
17
100
AcDbEntity
  8
0
100
AcDbVertex
100
AcDbPolyFaceMeshVertex
 10
3.53553390593274
 20
-8.535533905932736
 30
3.826834323650898
 70
192
  0
VERTEX
  5
1A4
330
17
100
AcDbEntity
  8
0
100
AcDbVertex
100
AcDbPolyFaceMeshVertex
 10
6.532814824381881
 20
-6.532814824381885
 30
3.826834323650898
 70
192
  0
VERTEX
  5
1A9
330
17
100
AcDbEntity
  8
0
100
AcDbVertex
100
AcDbPolyFaceMeshVertex
 10
8.535533905932736
 20
-3.5355339059327435
 30
3.826834323650898
 70
192
  0
VERTEX
  5
1B3
330
17
100
AcDbEntity
  8
0
100
AcDbVertex
100
AcDbPolyFaceMeshVertex
 10
6.532814824381883
 20
2.705980500730985
 30
7.071067811865475
 70
192
  0
VERTEX
  5
1B4
330
17
100
AcDbEntity
  8
0
100
AcDbVertex
100
AcDbPolyFaceMeshVertex
 10
7.0710678118654755
 20
0.0
 30
7.071067811865475
 70
192
  0
VERTEX
  5
1B8
330
17
100
AcDbEntity
  8
0
100
AcDbVertex
100
AcDbPolyFaceMeshVertex
 10
5.000000000000001
 20
5.0
 30
7.071067811865475
 70
192
  0
VERTEX
  5
1BD
330
17
100
AcDbEntity
  8
0
100
AcDbVertex
100
AcDbPolyFaceMeshVertex
 10
2.7059805007309854
 20
6.532814824381883
 30
7.071067811865475
 70
192
  0
VERTEX
  5
1C2
330
17
100
AcDbEntity
  8
0
100
AcDbVertex
100
AcDbPolyFaceMeshVertex
 10
4.3297802811774667e-16
 20
7.0710678118654755
 30
7.071067811865475
 70
192
  0
VERTEX
  5
1C7
330
17
100
AcDbEntity
  8
0
100
AcDbVertex
100
AcDbPolyFaceMeshVertex
 10
-2.7059805007309845
 20
6.532814824381883
 30
7.071067811865475
 70
192
  0
VERTEX
  5
1CC
330
17
100
AcDbEntity
  8
0
100
AcDbVertex
100
AcDbPolyFaceMeshVertex
 10
-5.0
 20
5.000000000000001
 30
7.071067811865475
 70
192
  0
VERTEX
  5
1D1
330
17
100
AcDbEntity
  8
0
100
AcDbVertex
100
AcDbPolyFaceMeshVertex
 10
-6.532814824381883
 20
2.7059805007309854
 30
7.071067811865475
 70
192
  0
VERTEX
  5
1D6
330
17
100
AcDbEntity
  8
0
100
AcDbVertex
100
AcDbPolyFaceMeshVertex
 10
-7.0710678118654755
 20
8.659560562354933e-16
 30
7.071067811865475
 70
192
  0
VERTEX
  5
1DB
330
17
100
AcDbEntity
  8
0
100
AcDbVertex
100
AcDbPolyFaceMeshVertex
 10
-6.532814824381884
 20
-2.7059805007309845
 30
7.071067811865475
 70
192
  0
VERTEX
  5
1E0
330
17
100
AcDbEntity
  8
0
100
AcDbVertex
100
AcDbPolyFaceMeshVertex
 10
-5.000000000000001
 20
-4.999999999999999
 30
7.071067811865475
 70
192
  0
VERTEX
  5
1E5
330
17
100
AcDbEntity
  8
0
100
AcDbVertex
100
AcDbPolyFaceMeshVertex
 10
-2.705980500730989
 20
-6.532814824381881
 30
7.071067811865475
 70
192
  0
VERTEX
  5
1EA
330
17
100
AcDbEntity
  8
0
100
AcDbVertex
100
AcDbPolyFaceMeshVertex
 10
-1.29893408435324e-15
 20
-7.0710678118654755
 30
7.071067811865475
 70
192
  0
VERTEX
  5
1EF
330
17
100
AcDbEntity
  8
0
100
AcDbVertex
100
AcDbPolyFaceMeshVertex
 10
2.7059805007309867
 20
-6.532814824381882
 30
7.071067811865475
 70
192
  0
VERTEX
  5
1F4
330
17
100
AcDbEntity
  8
0
100
AcDbVertex
100
AcDbPolyFaceMeshVertex
 10
4.999999999999999
 20
-5.000000000000001
 30
7.071067811865475
 70
192
  0
VERTEX
  5
1F9
330
17
100
AcDbEntity
  8
0
100
AcDbVertex
100
AcDbPolyFaceMeshVertex
 10
6.532814824381881
 20
-2.7059805007309894
 30
7.071067811865475
 70
192
  0
VERTEX
  5
203
330
17
100
AcDbEntity
  8
0
100
AcDbVertex
100
AcDbPolyFaceMeshVertex
 10
3.535533905932738
 20
1.4644660940672627
 30
9.238795325112868
 70
192
  0
VERTEX
  5
204
330
17
100
AcDbEntity
  8
0
100
AcDbVertex
100
AcDbPolyFaceMeshVertex
 10
3.8268343236508984
 20
0.0
 30
9.238795325112868
 70
192
  0
VERTEX
  5
208
330
17
100
AcDbEntity
  8
0
100
AcDbVertex
100
AcDbPolyFaceMeshVertex
 10
2.7059805007309854
 20
2.705980500730985
 30
9.238795325112868
 70
192
  0
VERTEX
  5
20D
330
17
100
AcDbEntity
  8
0
100
AcDbVertex
100
AcDbPolyFaceMeshVertex
 10
1.464466094067263
 20
3.535533905932738
 30
9.238795325112868
 70
192
  0
VERTEX
  5
212
330
17
100
AcDbEntity
  8
0
100
AcDbVertex
100
AcDbPolyFaceMeshVertex
 10
2.3432602026631494e-16
 20
3.8268343236508984
 30
9.238795325112868
 70
192
  0
VERTEX
  5
217
330
17
100
AcDbEntity
  8
0
100
AcDbVertex
100
AcDbPolyFaceMeshVertex
 10
-1.4644660940672625
 20
3.535533905932738
 30
9.238795325112868
 70
192
  0
VERTEX
  5
21C
330
17
100
AcDbEntity
  8
0
100
AcDbVertex
100
AcDbPolyFaceMeshVertex
 10
-2.705980500730985
 20
2.7059805007309854
 30
9.238795325112868
 70
192
  0
VERTEX
  5
221
330
17
100
AcDbEntity
  8
0
100
AcDbVertex
100
AcDbPolyFaceMeshVertex
 10
-3.535533905932738
 20
1.464466094067263
 30
9.238795325112868
 70
192
  0
VERTEX
  5
226
330
17
100
AcDbEntity
  8
0
100
AcDbVertex
100
AcDbPolyFaceMeshVertex
 10
-3.8268343236508984
 20
4.686520405326299e-16
 30
9.238795325112868
 70
192
  0
VERTEX
  5
22B
330
17
100
AcDbEntity
  8
0
100
AcDbVertex
100
AcDbPolyFaceMeshVertex
 10
-3.5355339059327386
 20
-1.4644660940672622
 30
9.238795325112868
 70
192
  0
VERTEX
  5
230
330
17
100
AcDbEntity
  8
0
100
AcDbVertex
100
AcDbPolyFaceMeshVertex
 10
-2.705980500730986
 20
-2.7059805007309845
 30
9.238795325112868
 70
192
  0
VERTEX
  5
235
330
17
100
AcDbEntity
  8
0
100
AcDbVertex
100
AcDbPolyFaceMeshVertex
 10
-1.4644660940672647
 20
-3.5355339059327373
 30
9.238795325112868
 70
192
  0
VERTEX
  5
23A
330
17
100
AcDbEntity
  8
0
100
AcDbVertex
100
AcDbPolyFaceMeshVertex
 10
-7.029780607989448e-16
 20
-3.8268343236508984
 30
9.238795325112868
 70
192
  0
VERTEX
  5
23F
330
17
100
AcDbEntity
  8
0
100
AcDbVertex
100
AcDbPolyFaceMeshVertex
 10
1.4644660940672636
 20
-3.5355339059327378
 30
9.238795325112868
 70
192
  0
VERTEX
  5
244
330
17
100
AcDbEntity
  8
0
100
AcDbVertex
100
AcDbPolyFaceMeshVertex
 10
2.7059805007309845
 20
-2.705980500730986
 30
9.238795325112868
 70
192
  0
VERTEX
  5
249
330
17
100
AcDbEntity
  8
0
100
AcDbVertex
100
AcDbPolyFaceMeshVertex
 10
3.5355339059327373
 20
-1.464466094067265
 30
9.238795325112868
 70
192
  0
VERTEX
  5
253
330
17
100
AcDbEntity
  8
0
100
AcDbVertex
100
AcDbPolyFaceMeshVertex
 10
0.0
 20
0.0
 30
10.0
 70
192
  0
VERTEX
  5
34
330
17
100
AcDbEntity
  8
0
100
AcDbFaceRecord
 10
0.0
 20
0.0
 30
0.0
 70
128
 71
1
 72
2
 73
3
  0
VERTEX
  5
38
330
17
100
AcDbEntity
  8
0
100
AcDbFaceRecord
 10
0.0
 20
0.0
 30
0.0
 70
128
 71
1
 72
4
 73
2
  0
VERTEX
  5
3C
330
17
100
AcDbEntity
  8
0
100
AcDbFaceRecord
 10
0.0
 20
0.0
 30
0.0
 70
128
 71
1
 72
5
 73
4
  0
VERTEX
  5
40
330
17
100
AcDbEntity
  8
0
100
AcDbFaceRecord
 10
0.0
 20
0.0
 30
0.0
 70
128
 71
1
 72
6
 73
5
  0
VERTEX
  5
44
330
17
100
AcDbEntity
  8
0
100
AcDbFaceRecord
 10
0.0
 20
0.0
 30
0.0
 70
128
 71
1
 72
7
 73
6
  0
VERTEX
  5
48
330
17
100
AcDbEntity
  8
0
100
AcDbFaceRecord
 10
0.0
 20
0.0
 30
0.0
 70
128
 71
1
 72
8
 73
7
  0
VERTEX
  5
4C
330
17
100
AcDbEntity
  8
0
100
AcDbFaceRecord
 10
0.0
 20
0.0
 30
0.0
 70
128
 71
1
 72
9
 73
8
  0
VERTEX
  5
50
330
17
100
AcDbEntity
  8
0
100
AcDbFaceRecord
 10
0.0
 20
0.0
 30
0.0
 70
128
 71
1
 72
10
 73
9
  0
VERTEX
  5
54
330
17
100
AcDbEntity
  8
0
100
AcDbFaceRecord
 10
0.0
 20
0.0
 30
0.0
 70
128
 71
1
 72
11
 73
10
  0
VERTEX
  5
58
330
17
100
AcDbEntity
  8
0
100
AcDbFaceRecord
 10
0.0
 20
0.0
 30
0.0
 70
128
 71
1
 72
12
 73
11
  0
VERTEX
  5
5C
330
17
100
AcDbEntity
  8
0
100
AcDbFaceRecord
 10
0.0
 20
0.0
 30
0.0
 70
128
 71
1
 72
13
 73
12
  0
VERTEX
  5
60
330
17
100
AcDbEntity
  8
0
100
AcDbFaceRecord
 10
0.0
 20
0.0
 30
0.0
 70
128
 71
1
 72
14
 73
13
  0
VERTEX
  5
64
330
17
100
AcDbEntity
  8
0
100
AcDbFaceRecord
 10
0.0
 20
0.0
 30
0.0
 70
128
 71
1
 72
15
 73
14
  0
VERTEX
  5
68
330
17
100
AcDbEntity
  8
0
100
AcDbFaceRecord
 10
0.0
 20
0.0
 30
0.0
 70
128
 71
1
 72
16
 73
15
  0
VERTEX
  5
6C
330
17
100
AcDbEntity
  8
0
100
AcDbFaceRecord
 10
0.0
 20
0.0
 30
0.0
 70
128
 71
1
 72
17
 73
16
  0
VERTEX
  5
70
330
17
100
AcDbEntity
  8
0
100
AcDbFaceRecord
 10
0.0
 20
0.0
 30
0.0
 70
128
 71
1
 72
3
 73
17
  0
VERTEX
  5
75
330
17
100
AcDbEntity
  8
0
100
AcDbFaceRecord
 10
0.0
 20
0.0
 30
0.0
 70
128
 71
3
 72
2
 73
18
 74
19
  0
VERTEX
  5
7A
330
17
100
AcDbEntity
  8
0
100
AcDbFaceRecord
 10
0.0
 20
0.0
 30
0.0
 70
128
 71
2
 72
4
 73
20
 74
18
  0
VERTEX
  5
7F
330
17
100
AcDbEntity
  8
0
100
AcDbFaceRecord
 10
0.0
 20
0.0
 30
0.0
 70
128
 71
4
 72
5
 73
21
 74
20
  0
VERTEX
  5
84
330
17
100
AcDbEntity
  8
0
100
AcDbFaceRecord
 10
0.0
 20
0.0
 30
0.0
 70
128
 71
5
 72
6
 73
22
 74
21
  0
VERTEX
  5
89
330
17
100
AcDbEntity
  8
0
100
AcDbFaceRecord
 10
0.0
 20
0.0
 30
0.0
 70
128
 71
6
 72
7
 73
23
 74
22
  0
VERTEX
  5
8E
330
17
100
AcDbEntity
  8
0
100
AcDbFaceRecord
 10
0.0
 20
0.0
 30
0.0
 70
128
 71
7
 72
8
 73
24
 74
23
  0
VERTEX
  5
93
330
17
100
AcDbEntity
  8
0
100
AcDbFaceRecord
 10
0.0
 20
0.0
 30
0.0
 70
128
 71
8
 72
9
 73
25
 74
24
  0
VERTEX
  5
98
330
17
100
AcDbEntity
  8
0
100
AcDbFaceRecord
 10
0.0
 20
0.0
 30
0.0
 70
128
 71
9
 72
10
 73
26
 74
25
  0
VERTEX
  5
9D
330
17
100
AcDbEntity
  8
0
100
AcDbFaceRecord
 10
0.0
 20
0.0
 30
0.0
 70
128
 71
10
 72
11
 73
27
 74
26
  0
VERTEX
  5
A2
330
17
100
AcDbEntity
  8
0
100
AcDbFaceRecord
 10
0.0
 20
0.0
 30
0.0
 70
128
 71
11
 72
12
 73
28
 74
27
  0
VERTEX
  5
A7
330
17
100
AcDbEntity
  8
0
100
AcDbFaceRecord
 10
0.0
 20
0.0
 30
0.0
 70
128
 71
12
 72
13
 73
29
 74
28
  0
VERTEX
  5
AC
330
17
100
AcDbEntity
  8
0
100
AcDbFaceRecord
 10
0.0
 20
0.0
 30
0.0
 70
128
 71
13
 72
14
 73
30
 74
29
  0
VERTEX
  5
B1
330
17
100
AcDbEntity
  8
0
100
AcDbFaceRecord
 10
0.0
 20
0.0
 30
0.0
 70
128
 71
14
 72
15
 73
31
 74
30
  0
VERTEX
  5
B6
330
17
100
AcDbEntity
  8
0
100
AcDbFaceRecord
 10
0.0
 20
0.0
 30
0.0
 70
128
 71
15
 72
16
 73
32
 74
31
  0
VERTEX
  5
BB
330
17
100
AcDbEntity
  8
0
100
AcDbFaceRecord
 10
0.0
 20
0.0
 30
0.0
 70
128
 71
16
 72
17
 73
33
 74
32
  0
VERTEX
  5
C0
330
17
100
AcDbEntity
  8
0
100
AcDbFaceRecord
 10
0.0
 20
0.0
 30
0.0
 70
128
 71
17
 72
3
 73
19
 74
33
  0
VERTEX
  5
C5
330
17
100
AcDbEntity
  8
0
100
AcDbFaceRecord
 10
0.0
 20
0.0
 30
0.0
 70
128
 71
19
 72
18
 73
34
 74
35
  0
VERTEX
  5
CA
330
17
100
AcDbEntity
  8
0
100
AcDbFaceRecord
 10
0.0
 20
0.0
 30
0.0
 70
128
 71
18
 72
20
 73
36
 74
34
  0
VERTEX
  5
CF
330
17
100
AcDbEntity
  8
0
100
AcDbFaceRecord
 10
0.0
 20
0.0
 30
0.0
 70
128
 71
20
 72
21
 73
37
 74
36
  0
VERTEX
  5
D4
330
17
100
AcDbEntity
  8
0
100
AcDbFaceRecord
 10
0.0
 20
0.0
 30
0.0
 70
128
 71
21
 72
22
 73
38
 74
37
  0
VERTEX
  5
D9
330
17
100
AcDbEntity
  8
0
100
AcDbFaceRecord
 10
0.0
 20
0.0
 30
0.0
 70
128
 71
22
 72
23
 73
39
 74
38
  0
VERTEX
  5
DE
330
17
100
AcDbEntity
  8
0
100
AcDbFaceRecord
 10
0.0
 20
0.0
 30
0.0
 70
128
 71
23
 72
24
 73
40
 74
39
  0
VERTEX
  5
E3
330
17
100
AcDbEntity
  8
0
100
AcDbFaceRecord
 10
0.0
 20
0.0
 30
0.0
 70
128
 71
24
 72
25
 73
41
 74
40
  0
VERTEX
  5
E8
330
17
100
AcDbEntity
  8
0
100
AcDbFaceRecord
 10
0.0
 20
0.0
 30
0.0
 70
128
 71
25
 72
26
 73
42
 74
41
  0
VERTEX
  5
ED
330
17
100
AcDbEntity
  8
0
100
AcDbFaceRecord
 10
0.0
 20
0.0
 30
0.0
 70
128
 71
26
 72
27
 73
43
 74
42
  0
VERTEX
  5
F2
330
17
100
AcDbEntity
  8
0
100
AcDbFaceRecord
 10
0.0
 20
0.0
 30
0.0
 70
128
 71
27
 72
28
 73
44
 74
43
  0
VERTEX
  5
F7
330
17
100
AcDbEntity
  8
0
100
AcDbFaceRecord
 10
0.0
 20
0.0
 30
0.0
 70
128
 71
28
 72
29
 73
45
 74
44
  0
VERTEX
  5
FC
330
17
100
AcDbEntity
  8
0
100
AcDbFaceRecord
 10
0.0
 20
0.0
 30
0.0
 70
128
 71
29
 72
30
 73
46
 74
45
  0
VERTEX
  5
101
330
17
100
AcDbEntity
  8
0
100
AcDbFaceRecord
 10
0.0
 20
0.0
 30
0.0
 70
128
 71
30
 72
31
 73
47
 74
46
  0
VERTEX
  5
106
330
17
100
AcDbEntity
  8
0
100
AcDbFaceRecord
 10
0.0
 20
0.0
 30
0.0
 70
128
 71
31
 72
32
 73
48
 74
47
  0
VERTEX
  5
10B
330
17
100
AcDbEntity
  8
0
100
AcDbFaceRecord
 10
0.0
 20
0.0
 30
0.0
 70
128
 71
32
 72
33
 73
49
 74
48
  0
VERTEX
  5
110
330
17
100
AcDbEntity
  8
0
100
AcDbFaceRecord
 10
0.0
 20
0.0
 30
0.0
 70
128
 71
33
 72
19
 73
35
 74
49
  0
VERTEX
  5
115
330
17
100
AcDbEntity
  8
0
100
AcDbFaceRecord
 10
0.0
 20
0.0
 30
0.0
 70
128
 71
35
 72
34
 73
50
 74
51
  0
VERTEX
  5
11A
330
17
100
AcDbEntity
  8
0
100
AcDbFaceRecord
 10
0.0
 20
0.0
 30
0.0
 70
128
 71
34
 72
36
 73
52
 74
50
  0
VERTEX
  5
11F
330
17
100
AcDbEntity
  8
0
100
AcDbFaceRecord
 10
0.0
 20
0.0
 30
0.0
 70
128
 71
36
 72
37
 73
53
 74
52
  0
VERTEX
  5
124
330
17
100
AcDbEntity
  8
0
100
AcDbFaceRecord
 10
0.0
 20
0.0
 30
0.0
 70
128
 71
37
 72
38
 73
54
 74
53
  0
VERTEX
  5
129
330
17
100
AcDbEntity
  8
0
100
AcDbFaceRecord
 10
0.0
 20
0.0
 30
0.0
 70
128
 71
38
 72
39
 73
55
 74
54
  0
VERTEX
  5
12E
330
17
100
AcDbEntity
  8
0
100
AcDbFaceRecord
 10
0.0
 20
0.0
 30
0.0
 70
128
 71
39
 72
40
 73
56
 74
55
  0
VERTEX
  5
133
330
17
100
AcDbEntity
  8
0
100
AcDbFaceRecord
 10
0.0
 20
0.0
 30
0.0
 70
128
 71
40
 72
41
 73
57
 74
56
  0
VERTEX
  5
138
330
17
100
AcDbEntity
  8
0
100
AcDbFaceRecord
 10
0.0
 20
0.0
 30
0.0
 70
128
 71
41
 72
42
 73
58
 74
57
  0
VERTEX
  5
13D
330
17
100
AcDbEntity
  8
0
100
AcDbFaceRecord
 10
0.0
 20
0.0
 30
0.0
 70
128
 71
42
 72
43
 73
59
 74
58
  0
VERTEX
  5
142
330
17
100
AcDbEntity
  8
0
100
AcDbFaceRecord
 10
0.0
 20
0.0
 30
0.0
 70
128
 71
43
 72
44
 73
60
 74
59
  0
VERTEX
  5
147
330
17
100
AcDbEntity
  8
0
100
AcDbFaceRecord
 10
0.0
 20
0.0
 30
0.0
 70
128
 71
44
 72
45
 73
61
 74
60
  0
VERTEX
  5
14C
330
17
100
AcDbEntity
  8
0
100
AcDbFaceRecord
 10
0.0
 20
0.0
 30
0.0
 70
128
 71
45
 72
46
 73
62
 74
61
  0
VERTEX
  5
151
330
17
100
AcDbEntity
  8
0
100
AcDbFaceRecord
 10
0.0
 20
0.0
 30
0.0
 70
128
 71
46
 72
47
 73
63
 74
62
  0
VERTEX
  5
156
330
17
100
AcDbEntity
  8
0
100
AcDbFaceRecord
 10
0.0
 20
0.0
 30
0.0
 70
128
 71
47
 72
48
 73
64
 74
63
  0
VERTEX
  5
15B
330
17
100
AcDbEntity
  8
0
100
AcDbFaceRecord
 10
0.0
 20
0.0
 30
0.0
 70
128
 71
48
 72
49
 73
65
 74
64
  0
VERTEX
  5
160
330
17
100
AcDbEntity
  8
0
100
AcDbFaceRecord
 10
0.0
 20
0.0
 30
0.0
 70
128
 71
49
 72
35
 73
51
 74
65
  0
VERTEX
  5
165
330
17
100
AcDbEntity
  8
0
100
AcDbFaceRecord
 10
0.0
 20
0.0
 30
0.0
 70
128
 71
51
 72
50
 73
66
 74
67
  0
VERTEX
  5
16A
330
17
100
AcDbEntity
  8
0
100
AcDbFaceRecord
 10
0.0
 20
0.0
 30
0.0
 70
128
 71
50
 72
52
 73
68
 74
66
  0
VERTEX
  5
16F
330
17
100
AcDbEntity
  8
0
100
AcDbFaceRecord
 10
0.0
 20
0.0
 30
0.0
 70
128
 71
52
 72
53
 73
69
 74
68
  0
VERTEX
  5
174
330
17
100
AcDbEntity
  8
0
100
AcDbFaceRecord
 10
0.0
 20
0.0
 30
0.0
 70
128
 71
53
 72
54
 73
70
 74
69
  0
VERTEX
  5
179
330
17
100
AcDbEntity
  8
0
100
AcDbFaceRecord
 10
0.0
 20
0.0
 30
0.0
 70
128
 71
54
 72
55
 73
71
 74
70
  0
VERTEX
  5
17E
330
17
100
AcDbEntity
  8
0
100
AcDbFaceRecord
 10
0.0
 20
0.0
 30
0.0
 70
128
 71
55
 72
56
 73
72
 74
71
  0
VERTEX
  5
183
330
17
100
AcDbEntity
  8
0
100
AcDbFaceRecord
 10
0.0
 20
0.0
 30
0.0
 70
128
 71
56
 72
57
 73
73
 74
72
  0
VERTEX
  5
188
330
17
100
AcDbEntity
  8
0
100
AcDbFaceRecord
 10
0.0
 20
0.0
 30
0.0
 70
128
 71
57
 72
58
 73
74
 74
73
  0
VERTEX
  5
18D
330
17
100
AcDbEntity
  8
0
100
AcDbFaceRecord
 10
0.0
 20
0.0
 30
0.0
 70
128
 71
58
 72
59
 73
75
 74
74
  0
VERTEX
  5
192
330
17
100
AcDbEntity
  8
0
100
AcDbFaceRecord
 10
0.0
 20
0.0
 30
0.0
 70
128
 71
59
 72
60
 73
76
 74
75
  0
VERTEX
  5
197
330
17
100
AcDbEntity
  8
0
100
AcDbFaceRecord
 10
0.0
 20
0.0
 30
0.0
 70
128
 71
60
 72
61
 73
77
 74
76
  0
VERTEX
  5
19C
330
17
100
AcDbEntity
  8
0
100
AcDbFaceRecord
 10
0.0
 20
0.0
 30
0.0
 70
128
 71
61
 72
62
 73
78
 74
77
  0
VERTEX
  5
1A1
330
17
100
AcDbEntity
  8
0
100
AcDbFaceRecord
 10
0.0
 20
0.0
 30
0.0
 70
128
 71
62
 72
63
 73
79
 74
78
  0
VERTEX
  5
1A6
330
17
100
AcDbEntity
  8
0
100
AcDbFaceRecord
 10
0.0
 20
0.0
 30
0.0
 70
128
 71
63
 72
64
 73
80
 74
79
  0
VERTEX
  5
1AB
330
17
100
AcDbEntity
  8
0
100
AcDbFaceRecord
 10
0.0
 20
0.0
 30
0.0
 70
128
 71
64
 72
65
 73
81
 74
80
  0
VERTEX
  5
1B0
330
17
100
AcDbEntity
  8
0
100
AcDbFaceRecord
 10
0.0
 20
0.0
 30
0.0
 70
128
 71
65
 72
51
 73
67
 74
81
  0
VERTEX
  5
1B5
330
17
100
AcDbEntity
  8
0
100
AcDbFaceRecord
 10
0.0
 20
0.0
 30
0.0
 70
128
 71
67
 72
66
 73
82
 74
83
  0
VERTEX
  5
1BA
330
17
100
AcDbEntity
  8
0
100
AcDbFaceRecord
 10
0.0
 20
0.0
 30
0.0
 70
128
 71
66
 72
68
 73
84
 74
82
  0
VERTEX
  5
1BF
330
17
100
AcDbEntity
  8
0
100
AcDbFaceRecord
 10
0.0
 20
0.0
 30
0.0
 70
128
 71
68
 72
69
 73
85
 74
84
  0
VERTEX
  5
1C4
330
17
100
AcDbEntity
  8
0
100
AcDbFaceRecord
 10
0.0
 20
0.0
 30
0.0
 70
128
 71
69
 72
70
 73
86
 74
85
  0
VERTEX
  5
1C9
330
17
100
AcDbEntity
  8
0
100
AcDbFaceRecord
 10
0.0
 20
0.0
 30
0.0
 70
128
 71
70
 72
71
 73
87
 74
86
  0
VERTEX
  5
1CE
330
17
100
AcDbEntity
  8
0
100
AcDbFaceRecord
 10
0.0
 20
0.0
 30
0.0
 70
128
 71
71
 72
72
 73
88
 74
87
  0
VERTEX
  5
1D3
330
17
100
AcDbEntity
  8
0
100
AcDbFaceRecord
 10
0.0
 20
0.0
 30
0.0
 70
128
 71
72
 72
73
 73
89
 74
88
  0
VERTEX
  5
1D8
330
17
100
AcDbEntity
  8
0
100
AcDbFaceRecord
 10
0.0
 20
0.0
 30
0.0
 70
128
 71
73
 72
74
 73
90
 74
89
  0
VERTEX
  5
1DD
330
17
100
AcDbEntity
  8
0
100
AcDbFaceRecord
 10
0.0
 20
0.0
 30
0.0
 70
128
 71
74
 72
75
 73
91
 74
90
  0
VERTEX
  5
1E2
330
17
100
AcDbEntity
  8
0
100
AcDbFaceRecord
 10
0.0
 20
0.0
 30
0.0
 70
128
 71
75
 72
76
 73
92
 74
91
  0
VERTEX
  5
1E7
330
17
100
AcDbEntity
  8
0
100
AcDbFaceRecord
 10
0.0
 20
0.0
 30
0.0
 70
128
 71
76
 72
77
 73
93
 74
92
  0
VERTEX
  5
1EC
330
17
100
AcDbEntity
  8
0
100
AcDbFaceRecord
 10
0.0
 20
0.0
 30
0.0
 70
128
 71
77
 72
78
 73
94
 74
93
  0
VERTEX
  5
1F1
330
17
100
AcDbEntity
  8
0
100
AcDbFaceRecord
 10
0.0
 20
0.0
 30
0.0
 70
128
 71
78
 72
79
 73
95
 74
94
  0
VERTEX
  5
1F6
330
17
100
AcDbEntity
  8
0
100
AcDbFaceRecord
 10
0.0
 20
0.0
 30
0.0
 70
128
 71
79
 72
80
 73
96
 74
95
  0
VERTEX
  5
1FB
330
17
100
AcDbEntity
  8
0
100
AcDbFaceRecord
 10
0.0
 20
0.0
 30
0.0
 70
128
 71
80
 72
81
 73
97
 74
96
  0
VERTEX
  5
200
330
17
100
AcDbEntity
  8
0
100
AcDbFaceRecord
 10
0.0
 20
0.0
 30
0.0
 70
128
 71
81
 72
67
 73
83
 74
97
  0
VERTEX
  5
205
330
17
100
AcDbEntity
  8
0
100
AcDbFaceRecord
 10
0.0
 20
0.0
 30
0.0
 70
128
 71
83
 72
82
 73
98
 74
99
  0
VERTEX
  5
20A
330
17
100
AcDbEntity
  8
0
100
AcDbFaceRecord
 10
0.0
 20
0.0
 30
0.0
 70
128
 71
82
 72
84
 73
100
 74
98
  0
VERTEX
  5
20F
330
17
100
AcDbEntity
  8
0
100
AcDbFaceRecord
 10
0.0
 20
0.0
 30
0.0
 70
128
 71
84
 72
85
 73
101
 74
100
  0
VERTEX
  5
214
330
17
100
AcDbEntity
  8
0
100
AcDbFaceRecord
 10
0.0
 20
0.0
 30
0.0
 70
128
 71
85
 72
86
 73
102
 74
101
  0
VERTEX
  5
219
330
17
100
AcDbEntity
  8
0
100
AcDbFaceRecord
 10
0.0
 20
0.0
 30
0.0
 70
128
 71
86
 72
87
 73
103
 74
102
  0
VERTEX
  5
21E
330
17
100
AcDbEntity
  8
0
100
AcDbFaceRecord
 10
0.0
 20
0.0
 30
0.0
 70
128
 71
87
 72
88
 73
104
 74
103
  0
VERTEX
  5
223
330
17
100
AcDbEntity
  8
0
100
AcDbFaceRecord
 10
0.0
 20
0.0
 30
0.0
 70
128
 71
88
 72
89
 73
105
 74
104
  0
VERTEX
  5
228
330
17
100
AcDbEntity
  8
0
100
AcDbFaceRecord
 10
0.0
 20
0.0
 30
0.0
 70
128
 71
89
 72
90
 73
106
 74
105
  0
VERTEX
  5
22D
330
17
100
AcDbEntity
  8
0
100
AcDbFaceRecord
 10
0.0
 20
0.0
 30
0.0
 70
128
 71
90
 72
91
 73
107
 74
106
  0
VERTEX
  5
232
330
17
100
AcDbEntity
  8
0
100
AcDbFaceRecord
 10
0.0
 20
0.0
 30
0.0
 70
128
 71
91
 72
92
 73
108
 74
107
  0
VERTEX
  5
237
330
17
100
AcDbEntity
  8
0
100
AcDbFaceRecord
 10
0.0
 20
0.0
 30
0.0
 70
128
 71
92
 72
93
 73
109
 74
108
  0
VERTEX
  5
23C
330
17
100
AcDbEntity
  8
0
100
AcDbFaceRecord
 10
0.0
 20
0.0
 30
0.0
 70
128
 71
93
 72
94
 73
110
 74
109
  0
VERTEX
  5
241
330
17
100
AcDbEntity
  8
0
100
AcDbFaceRecord
 10
0.0
 20
0.0
 30
0.0
 70
128
 71
94
 72
95
 73
111
 74
110
  0
VERTEX
  5
246
330
17
100
AcDbEntity
  8
0
100
AcDbFaceRecord
 10
0.0
 20
0.0
 30
0.0
 70
128
 71
95
 72
96
 73
112
 74
111
  0
VERTEX
  5
24B
330
17
100
AcDbEntity
  8
0
100
AcDbFaceRecord
 10
0.0
 20
0.0
 30
0.0
 70
128
 71
96
 72
97
 73
113
 74
112
  0
VERTEX
  5
250
330
17
100
AcDbEntity
  8
0
100
AcDbFaceRecord
 10
0.0
 20
0.0
 30
0.0
 70
128
 71
97
 72
83
 73
99
 74
113
  0
VERTEX
  5
254
330
17
100
AcDbEntity
  8
0
100
AcDbFaceRecord
 10
0.0
 20
0.0
 30
0.0
 70
128
 71
99
 72
98
 73
114
  0
VERTEX
  5
258
330
17
100
AcDbEntity
  8
0
100
AcDbFaceRecord
 10
0.0
 20
0.0
 30
0.0
 70
128
 71
98
 72
100
 73
114
  0
VERTEX
  5
25C
330
17
100
AcDbEntity
  8
0
100
AcDbFaceRecord
 10
0.0
 20
0.0
 30
0.0
 70
128
 71
100
 72
101
 73
114
  0
VERTEX
  5
260
330
17
100
AcDbEntity
  8
0
100
AcDbFaceRecord
 10
0.0
 20
0.0
 30
0.0
 70
128
 71
101
 72
102
 73
114
  0
VERTEX
  5
264
330
17
100
AcDbEntity
  8
0
100
AcDbFaceRecord
 10
0.0
 20
0.0
 30
0.0
 70
128
 71
102
 72
103
 73
114
  0
VERTEX
  5
268
330
17
100
AcDbEntity
  8
0
100
AcDbFaceRecord
 10
0.0
 20
0.0
 30
0.0
 70
128
 71
103
 72
104
 73
114
  0
VERTEX
  5
26C
330
17
100
AcDbEntity
  8
0
100
AcDbFaceRecord
 10
0.0
 20
0.0
 30
0.0
 70
128
 71
104
 72
105
 73
114
  0
VERTEX
  5
270
330
17
100
AcDbEntity
  8
0
100
AcDbFaceRecord
 10
0.0
 20
0.0
 30
0.0
 70
128
 71
105
 72
106
 73
114
  0
VERTEX
  5
274
330
17
100
AcDbEntity
  8
0
100
AcDbFaceRecord
 10
0.0
 20
0.0
 30
0.0
 70
128
 71
106
 72
107
 73
114
  0
VERTEX
  5
278
330
17
100
AcDbEntity
  8
0
100
AcDbFaceRecord
 10
0.0
 20
0.0
 30
0.0
 70
128
 71
107
 72
108
 73
114
  0
VERTEX
  5
27C
330
17
100
AcDbEntity
  8
0
100
AcDbFaceRecord
 10
0.0
 20
0.0
 30
0.0
 70
128
 71
108
 72
109
 73
114
  0
VERTEX
  5
280
330
17
100
AcDbEntity
  8
0
100
AcDbFaceRecord
 10
0.0
 20
0.0
 30
0.0
 70
128
 71
109
 72
110
 73
114
  0
VERTEX
  5
284
330
17
100
AcDbEntity
  8
0
100
AcDbFaceRecord
 10
0.0
 20
0.0
 30
0.0
 70
128
 71
110
 72
111
 73
114
  0
VERTEX
  5
288
330
17
100
AcDbEntity
  8
0
100
AcDbFaceRecord
 10
0.0
 20
0.0
 30
0.0
 70
128
 71
111
 72
112
 73
114
  0
VERTEX
  5
28C
330
17
100
AcDbEntity
  8
0
100
AcDbFaceRecord
 10
0.0
 20
0.0
 30
0.0
 70
128
 71
112
 72
113
 73
114
  0
VERTEX
  5
290
330
17
100
AcDbEntity
  8
0
100
AcDbFaceRecord
 10
0.0
 20
0.0
 30
0.0
 70
128
 71
113
 72
99
 73
114
  0
SEQEND
  5
30
330
2F
100
AcDbEntity
  8
0
  0
ENDSEC
  0
SECTION
  2
OBJECTS
  0
DICTIONARY
  5
A
330
0
100
AcDbDictionary
281
1
  3
ACAD_COLOR
350
B
  3
ACAD_GROUP
350
C
  3
ACAD_LAYOUT
350
D
  3
ACAD_MATERIAL
350
E
  3
ACAD_MLEADERSTYLE
350
F
  3
ACAD_MLINESTYLE
350
10
  3
ACAD_PLOTSETTINGS
350
11
  3
ACAD_PLOTSTYLENAME
350
12
  3
ACAD_SCALELIST
350
14
  3
ACAD_TABLESTYLE
350
15
  3
ACAD_VISUALSTYLE
350
16
  3
EZDXF_META
350
2D
  0
DICTIONARY
  5
B
330
A
100
AcDbDictionary
281
1
  0
DICTIONARY
  5
C
330
A
100
AcDbDictionary
281
1
  0
DICTIONARY
  5
D
330
A
100
AcDbDictionary
281
1
  3
Model
350
1A
  3
Layout1
350
1E
  0
DICTIONARY
  5
E
330
A
100
AcDbDictionary
281
1
  3
ByBlock
350
1F
  3
ByLayer
350
20
  3
Global
350
21
  0
DICTIONARY
  5
F
330
A
100
AcDbDictionary
281
1
  3
Standard
350
2C
  0
DICTIONARY
  5
10
330
A
100
AcDbDictionary
281
1
  3
Standard
350
22
  0
DICTIONARY
  5
11
330
A
100
AcDbDictionary
281
1
  0
ACDBDICTIONARYWDFLT
  5
12
330
A
100
AcDbDictionary
281
1
  3
Normal
350
13
100
AcDbDictionaryWithDefault
340
13
  0
ACDBPLACEHOLDER
  5
13
330
12
  0
DICTIONARY
  5
14
330
A
100
AcDbDictionary
281
1
  0
DICTIONARY
  5
15
330
A
100
AcDbDictionary
281
1
  0
DICTIONARY
  5
16
330
A
100
AcDbDictionary
281
1
  0
LAYOUT
  5
1A
330
D
100
AcDbPlotSettings
  1

  4
A3
  6

 40
7.5
 41
20.0
 42
7.5
 43
20.0
 44
420.0
 45
297.0
 46
0.0
 47
0.0
 48
0.0
 49
0.0
140
0.0
141
0.0
142
1.0
143
1.0
 70
1024
 72
1
 73
0
 74
5
  7

 75
16
 76
0
 77
2
 78
300
147
1.0
148
0.0
149
0.0
100
AcDbLayout
  1
Model
 70
1
 71
0
 10
0.0
 20
0.0
 11
420.0
 21
297.0
 12
0.0
 22
0.0
 32
0.0
 14
1e+20
 24
1e+20
 34
1e+20
 15
-1e+20
 25
-1e+20
 35
-1e+20
146
0.0
 13
0.0
 23
0.0
 33
0.0
 16
1.0
 26
0.0
 36
0.0
 17
0.0
 27
1.0
 37
0.0
 76
1
330
17
  0
LAYOUT
  5
1E
330
D
100
AcDbPlotSettings
  1

  4
A3
  6

 40
7.5
 41
20.0
 42
7.5
 43
20.0
 44
420.0
 45
297.0
 46
0.0
 47
0.0
 48
0.0
 49
0.0
140
0.0
141
0.0
142
1.0
143
1.0
 70
0
 72
1
 73
0
 74
5
  7

 75
16
 76
0
 77
2
 78
300
147
1.0
148
0.0
149
0.0
100
AcDbLayout
  1
Layout1
 70
1
 71
1
 10
0.0
 20
0.0
 11
420.0
 21
297.0
 12
0.0
 22
0.0
 32
0.0
 14
1e+20
 24
1e+20
 34
1e+20
 15
-1e+20
 25
-1e+20
 35
-1e+20
146
0.0
 13
0.0
 23
0.0
 33
0.0
 16
1.0
 26
0.0
 36
0.0
 17
0.0
 27
1.0
 37
0.0
 76
1
330
1B
  0
MATERIAL
  5
1F
102
{ACAD_REACTORS
330
E
102
}
330
E
100
AcDbMaterial
  1
ByBlock
  2

 70
0
 40
1.0
 71
1
 41
1.0
 91
-1023410177
 42
1.0
 72
1
  3

 73
1
 74
1
 75
1
 44
0.5
 73
0
 45
1.0
 46
1.0
 77
1
  4

 78
1
 79
1
170
1
 48
1.0
171
1
  6

172
1
173
1
174
1
140
1.0
141
1.0
175
1
  7

176
1
177
1
178
1
143
1.0
179
1
  8

270
1
271
1
272
1
145
1.0
146
1.0
273
1
  9

274
1
275
1
276
1
 42
1.0
 72
1
  3

 73
1
 74
1
 75
1
 94
63
  0
MATERIAL
  5
20
102
{ACAD_REACTORS
330
E
102
}
330
E
100
AcDbMaterial
  1
ByLayer
  2

 70
0
 40
1.0
 71
1
 41
1.0
 91
-1023410177
 42
1.0
 72
1
  3

 73
1
 74
1
 75
1
 44
0.5
 73
0
 45
1.0
 46
1.0
 77
1
  4

 78
1
 79
1
170
1
 48
1.0
171
1
  6

172
1
173
1
174
1
140
1.0
141
1.0
175
1
  7

176
1
177
1
178
1
143
1.0
179
1
  8

270
1
271
1
272
1
145
1.0
146
1.0
273
1
  9

274
1
275
1
276
1
 42
1.0
 72
1
  3

 73
1
 74
1
 75
1
 94
63
  0
MATERIAL
  5
21
102
{ACAD_REACTORS
330
E
102
}
330
E
100
AcDbMaterial
  1
Global
  2

 70
0
 40
1.0
 71
1
 41
1.0
 91
-1023410177
 42
1.0
 72
1
  3

 73
1
 74
1
 75
1
 44
0.5
 73
0
 45
1.0
 46
1.0
 77
1
  4

 78
1
 79
1
170
1
 48
1.0
171
1
  6

172
1
173
1
174
1
140
1.0
141
1.0
175
1
  7

176
1
177
1
178
1
143
1.0
179
1
  8

270
1
271
1
272
1
145
1.0
146
1.0
273
1
  9

274
1
275
1
276
1
 42
1.0
 72
1
  3

 73
1
 74
1
 75
1
 94
63
  0
MLINESTYLE
  5
22
102
{ACAD_REACTORS
330
10
102
}
330
10
100
AcDbMlineStyle
  2
Standard
 70
0
  3

 62
256
 51
90.0
 52
90.0
 71
2
 49
0.5
 62
256
  6
BYLAYER
 49
-0.5
 62
256
  6
BYLAYER
  0
MLEADERSTYLE
  5
2C
102
{ACAD_REACTORS
330
F
102
}
330
F
100
AcDbMLeaderStyle
179
2
170
2
171
1
172
0
 90
2
 40
0.0
 41
0.0
173
1
 91
-1056964608
 92
-2
290
1
 42
2.0
291
1
 43
8.0
  3
Standard
 44
4.0
300

342
29
174
1
175
1
176
0
178
1
 93
-1056964608
 45
4.0
292
0
297
0
 46
4.0
 94
-1056964608
 47
1.0
 49
1.0
140
1.0
294
1
141
0.0
177
0
142
1.0
295
0
296
0
143
3.75
271
0
272
9
273
9
  0
DICTIONARY
  5
2D
330
A
100
AcDbDictionary
280
1
281
1
  3
CREATED_BY_EZDXF
350
2E
  3
WRITTEN_BY_EZDXF
350
293
  0
DICTIONARYVAR
  5
2E
330
2D
100
DictionaryVariables
280
0
  1
1.4.3 @ 2026-04-27T23:28:35.359977+00:00
  0
DICTIONARYVAR
  5
293
330
2D
100
DictionaryVariables
280
0
  1
1.4.3 @ 2026-04-27T23:28:35.379757+00:00
  0
ENDSEC
  0
EOF
